# This file uses centimeters as units for non-parametric coordinates.

mtllib fancy.mtl
g default
v -0.500000 -0.755439 1.012819
v 0.500000 -0.755439 1.012819
v -0.500000 -0.644720 1.012819
v 0.500000 -0.644720 1.012819
v -0.500000 -0.644720 0.894550
v 0.500000 -0.644720 0.894550
v -0.500000 -0.755439 0.894550
v 0.500000 -0.755439 0.894550
v -0.500000 -0.756671 0.898022
v 0.500000 -0.756671 0.898022
v -0.500000 -0.572225 0.898022
v 0.500000 -0.572225 0.898022
v -0.500000 -0.572225 0.770770
v 0.500000 -0.572225 0.770770
v -0.500000 -0.756671 0.770770
v 0.500000 -0.756671 0.770770
v -0.500000 -0.756246 0.772583
v 0.500000 -0.756246 0.772583
v -0.500000 -0.501112 0.772583
v 0.500000 -0.501112 0.772583
v -0.500000 -0.501112 -0.496315
v 0.500000 -0.501112 -0.496315
v -0.500000 -0.756246 -0.496315
v 0.500000 -0.756246 -0.496315
v -0.366767 -0.494299 0.701600
v -0.399454 -0.494299 0.688061
v -0.432140 -0.494299 0.701600
v -0.445679 -0.494299 0.734286
v -0.432140 -0.494299 0.766973
v -0.399454 -0.494299 0.780512
v -0.366767 -0.494299 0.766973
v -0.353228 -0.494299 0.734286
v -0.366767 0.494299 0.701600
v -0.399454 0.494299 0.688061
v -0.432140 0.494299 0.701600
v -0.445679 0.494299 0.734286
v -0.432140 0.494299 0.766973
v -0.399454 0.494299 0.780512
v -0.366767 0.494299 0.766973
v -0.353228 0.494299 0.734286
v -0.399454 -0.494299 0.734286
v -0.399454 0.494299 0.734286
v 0.422036 -0.494299 0.701600
v 0.389350 -0.494299 0.688061
v 0.356663 -0.494299 0.701600
v 0.343124 -0.494299 0.734286
v 0.356663 -0.494299 0.766973
v 0.389350 -0.494299 0.780512
v 0.422036 -0.494299 0.766973
v 0.435575 -0.494299 0.734286
v 0.422036 0.494299 0.701600
v 0.389350 0.494299 0.688061
v 0.356663 0.494299 0.701600
v 0.343124 0.494299 0.734286
v 0.356663 0.494299 0.766973
v 0.389350 0.494299 0.780512
v 0.422036 0.494299 0.766973
v 0.435575 0.494299 0.734286
v 0.389350 -0.494299 0.734286
v 0.389350 0.494299 0.734286
v -0.500000 0.495821 0.775241
v 0.500000 0.495821 0.775241
v 0.000000 1.035078 0.775241
v 0.000000 1.035078 -0.496564
v -0.500000 0.495821 -0.496564
v 0.500000 0.495821 -0.496564
vt 0.375000 0.000000
vt 0.625000 0.000000
vt 0.375000 0.250000
vt 0.625000 0.250000
vt 0.375000 0.500000
vt 0.625000 0.500000
vt 0.375000 0.750000
vt 0.625000 0.750000
vt 0.375000 1.000000
vt 0.625000 1.000000
vt 0.875000 0.000000
vt 0.875000 0.250000
vt 0.125000 0.000000
vt 0.125000 0.250000
vt 0.375000 0.000000
vt 0.625000 0.000000
vt 0.625000 0.250000
vt 0.375000 0.250000
vt 0.625000 0.500000
vt 0.375000 0.500000
vt 0.625000 0.750000
vt 0.375000 0.750000
vt 0.625000 1.000000
vt 0.375000 1.000000
vt 0.875000 0.000000
vt 0.875000 0.250000
vt 0.125000 0.000000
vt 0.125000 0.250000
vt 0.375000 0.000000
vt 0.625000 0.000000
vt 0.625000 0.250000
vt 0.375000 0.250000
vt 0.625000 0.500000
vt 0.375000 0.500000
vt 0.625000 0.750000
vt 0.375000 0.750000
vt 0.625000 1.000000
vt 0.375000 1.000000
vt 0.875000 0.000000
vt 0.875000 0.250000
vt 0.125000 0.000000
vt 0.125000 0.250000
vt 0.375000 0.312500
vt 0.406250 0.312500
vt 0.406250 0.688440
vt 0.375000 0.688440
vt 0.437500 0.312500
vt 0.437500 0.688440
vt 0.468750 0.312500
vt 0.468750 0.688440
vt 0.500000 0.312500
vt 0.500000 0.688440
vt 0.531250 0.312500
vt 0.531250 0.688440
vt 0.562500 0.312500
vt 0.562500 0.688440
vt 0.593750 0.312500
vt 0.593750 0.688440
vt 0.625000 0.312500
vt 0.625000 0.688440
vt 0.500000 0.000000
vt 0.610485 0.045765
vt 0.500000 0.150000
vt 0.389515 0.045765
vt 0.343750 0.156250
vt 0.389515 0.266735
vt 0.500000 0.312500
vt 0.610485 0.266735
vt 0.656250 0.156250
vt 0.610485 0.954235
vt 0.500000 1.000000
vt 0.500000 0.837500
vt 0.389515 0.954235
vt 0.343750 0.843750
vt 0.389515 0.733265
vt 0.500000 0.687500
vt 0.610485 0.733265
vt 0.656250 0.843750
vt 0.375000 0.312500
vt 0.406250 0.312500
vt 0.406250 0.688440
vt 0.375000 0.688440
vt 0.437500 0.312500
vt 0.437500 0.688440
vt 0.468750 0.312500
vt 0.468750 0.688440
vt 0.500000 0.312500
vt 0.500000 0.688440
vt 0.531250 0.312500
vt 0.531250 0.688440
vt 0.562500 0.312500
vt 0.562500 0.688440
vt 0.593750 0.312500
vt 0.593750 0.688440
vt 0.625000 0.312500
vt 0.625000 0.688440
vt 0.500000 0.000000
vt 0.610485 0.045765
vt 0.500000 0.150000
vt 0.389515 0.045765
vt 0.343750 0.156250
vt 0.389515 0.266735
vt 0.500000 0.312500
vt 0.610485 0.266735
vt 0.656250 0.156250
vt 0.610485 0.954235
vt 0.500000 1.000000
vt 0.500000 0.837500
vt 0.389515 0.954235
vt 0.343750 0.843750
vt 0.389515 0.733265
vt 0.500000 0.687500
vt 0.610485 0.733265
vt 0.656250 0.843750
vt 0.375000 0.000000
vt 0.625000 0.000000
vt 0.500000 0.250000
vt 0.500000 0.500000
vt 0.625000 0.750000
vt 0.375000 0.750000
vt 0.625000 1.000000
vt 0.375000 1.000000
vt 0.875000 0.000000
vt 0.875000 0.250000
vt 0.125000 0.000000
vt 0.125000 0.250000
vn 0.000000 0.000000 1.000000
vn 0.000000 0.000000 1.000000
vn 0.000000 0.000000 1.000000
vn 0.000000 0.000000 1.000000
vn 0.000000 1.000000 0.000000
vn 0.000000 1.000000 0.000000
vn 0.000000 1.000000 0.000000
vn 0.000000 1.000000 0.000000
vn 0.000000 0.000000 -1.000000
vn 0.000000 0.000000 -1.000000
vn 0.000000 0.000000 -1.000000
vn 0.000000 0.000000 -1.000000
vn 0.000000 -1.000000 0.000000
vn 0.000000 -1.000000 0.000000
vn 0.000000 -1.000000 0.000000
vn 0.000000 -1.000000 0.000000
vn 1.000000 0.000000 0.000000
vn 1.000000 0.000000 0.000000
vn 1.000000 0.000000 0.000000
vn 1.000000 0.000000 0.000000
vn -1.000000 0.000000 0.000000
vn -1.000000 0.000000 0.000000
vn -1.000000 0.000000 0.000000
vn -1.000000 0.000000 0.000000
vn 0.000000 0.000000 1.000000
vn 0.000000 0.000000 1.000000
vn 0.000000 0.000000 1.000000
vn 0.000000 0.000000 1.000000
vn 0.000000 1.000000 0.000000
vn 0.000000 1.000000 0.000000
vn 0.000000 1.000000 0.000000
vn 0.000000 1.000000 0.000000
vn 0.000000 0.000000 -1.000000
vn 0.000000 0.000000 -1.000000
vn 0.000000 0.000000 -1.000000
vn 0.000000 0.000000 -1.000000
vn 0.000000 -1.000000 0.000000
vn 0.000000 -1.000000 0.000000
vn 0.000000 -1.000000 0.000000
vn 0.000000 -1.000000 0.000000
vn 1.000000 0.000000 0.000000
vn 1.000000 0.000000 0.000000
vn 1.000000 0.000000 0.000000
vn 1.000000 0.000000 0.000000
vn -1.000000 0.000000 0.000000
vn -1.000000 0.000000 0.000000
vn -1.000000 0.000000 0.000000
vn -1.000000 0.000000 0.000000
vn 0.000000 0.000000 1.000000
vn 0.000000 0.000000 1.000000
vn 0.000000 0.000000 1.000000
vn 0.000000 0.000000 1.000000
vn 0.000000 1.000000 0.000000
vn 0.000000 1.000000 0.000000
vn 0.000000 1.000000 0.000000
vn 0.000000 1.000000 0.000000
vn 0.000000 0.000000 -1.000000
vn 0.000000 0.000000 -1.000000
vn 0.000000 0.000000 -1.000000
vn 0.000000 0.000000 -1.000000
vn 0.000000 -1.000000 0.000000
vn 0.000000 -1.000000 0.000000
vn 0.000000 -1.000000 0.000000
vn 0.000000 -1.000000 0.000000
vn 1.000000 0.000000 0.000000
vn 1.000000 0.000000 0.000000
vn 1.000000 0.000000 0.000000
vn 1.000000 0.000000 0.000000
vn -1.000000 0.000000 0.000000
vn -1.000000 0.000000 0.000000
vn -1.000000 0.000000 0.000000
vn -1.000000 0.000000 0.000000
vn 0.382684 0.000000 -0.923879
vn 0.382684 0.000000 -0.923879
vn 0.382684 0.000000 -0.923879
vn 0.382684 0.000000 -0.923879
vn -0.382684 0.000000 -0.923879
vn -0.382684 0.000000 -0.923879
vn -0.382684 0.000000 -0.923879
vn -0.382684 0.000000 -0.923879
vn -0.923880 0.000000 -0.382683
vn -0.923880 0.000000 -0.382683
vn -0.923880 0.000000 -0.382683
vn -0.923880 0.000000 -0.382683
vn -0.923879 0.000000 0.382684
vn -0.923879 0.000000 0.382684
vn -0.923879 0.000000 0.382684
vn -0.923879 0.000000 0.382684
vn -0.382684 0.000000 0.923879
vn -0.382684 0.000000 0.923879
vn -0.382684 0.000000 0.923879
vn -0.382684 0.000000 0.923879
vn 0.382684 0.000000 0.923879
vn 0.382684 0.000000 0.923879
vn 0.382684 0.000000 0.923879
vn 0.382684 0.000000 0.923879
vn 0.923879 0.000000 0.382684
vn 0.923879 0.000000 0.382684
vn 0.923879 0.000000 0.382684
vn 0.923879 0.000000 0.382684
vn 0.923880 0.000000 -0.382683
vn 0.923880 0.000000 -0.382683
vn 0.923880 0.000000 -0.382683
vn 0.923880 0.000000 -0.382683
vn 0.000000 -1.000000 0.000000
vn 0.000000 -1.000000 0.000000
vn 0.000000 -1.000000 0.000000
vn 0.000000 -1.000000 0.000000
vn 0.000000 -1.000000 0.000000
vn 0.000000 -1.000000 0.000000
vn 0.000000 -1.000000 0.000000
vn 0.000000 -1.000000 0.000000
vn 0.000000 -1.000000 0.000000
vn 0.000000 1.000000 0.000000
vn 0.000000 1.000000 0.000000
vn 0.000000 1.000000 0.000000
vn 0.000000 1.000000 0.000000
vn 0.000000 1.000000 0.000000
vn 0.000000 1.000000 0.000000
vn 0.000000 1.000000 0.000000
vn 0.000000 1.000000 0.000000
vn 0.000000 1.000000 0.000000
vn 0.382684 0.000000 -0.923879
vn 0.382684 0.000000 -0.923879
vn 0.382684 0.000000 -0.923879
vn 0.382684 0.000000 -0.923879
vn -0.382684 0.000000 -0.923879
vn -0.382684 0.000000 -0.923879
vn -0.382684 0.000000 -0.923879
vn -0.382684 0.000000 -0.923879
vn -0.923880 0.000000 -0.382683
vn -0.923880 0.000000 -0.382683
vn -0.923880 0.000000 -0.382683
vn -0.923880 0.000000 -0.382683
vn -0.923879 0.000000 0.382684
vn -0.923879 0.000000 0.382684
vn -0.923879 0.000000 0.382684
vn -0.923879 0.000000 0.382684
vn -0.382684 0.000000 0.923879
vn -0.382684 0.000000 0.923879
vn -0.382684 0.000000 0.923879
vn -0.382684 0.000000 0.923879
vn 0.382684 0.000000 0.923879
vn 0.382684 0.000000 0.923879
vn 0.382684 0.000000 0.923879
vn 0.382684 0.000000 0.923879
vn 0.923879 0.000000 0.382684
vn 0.923879 0.000000 0.382684
vn 0.923879 0.000000 0.382684
vn 0.923879 0.000000 0.382684
vn 0.923880 0.000000 -0.382683
vn 0.923880 0.000000 -0.382683
vn 0.923880 0.000000 -0.382683
vn 0.923880 0.000000 -0.382683
vn 0.000000 -1.000000 0.000000
vn 0.000000 -1.000000 0.000000
vn 0.000000 -1.000000 0.000000
vn 0.000000 -1.000000 0.000000
vn 0.000000 -1.000000 0.000000
vn 0.000000 -1.000000 0.000000
vn 0.000000 -1.000000 0.000000
vn 0.000000 -1.000000 0.000000
vn 0.000000 -1.000000 0.000000
vn 0.000000 1.000000 0.000000
vn 0.000000 1.000000 0.000000
vn 0.000000 1.000000 0.000000
vn 0.000000 1.000000 0.000000
vn 0.000000 1.000000 0.000000
vn 0.000000 1.000000 0.000000
vn 0.000000 1.000000 0.000000
vn 0.000000 1.000000 0.000000
vn 0.000000 1.000000 0.000000
vn 0.000000 0.000000 1.000000
vn 0.000000 0.000000 1.000000
vn 0.000000 0.000000 1.000000
vn 0.000000 0.000000 -1.000000
vn 0.000000 0.000000 -1.000000
vn 0.000000 0.000000 -1.000000
vn 0.000000 -1.000000 0.000000
vn 0.000000 -1.000000 0.000000
vn 0.000000 -1.000000 0.000000
vn 0.000000 -1.000000 0.000000
vn 0.733294 0.679912 0.000000
vn 0.733294 0.679912 0.000000
vn 0.733294 0.679912 0.000000
vn 0.733294 0.679912 0.000000
vn -0.733294 0.679912 0.000000
vn -0.733294 0.679912 0.000000
vn -0.733294 0.679912 0.000000
vn -0.733294 0.679912 0.000000
s off
g pCube7
usemtl initialShadingGroup
f 1/1/1 2/2/2 4/4/3 3/3/4
f 3/3/5 4/4/6 6/6/7 5/5/8
f 5/5/9 6/6/10 8/8/11 7/7/12
f 7/7/13 8/8/14 2/10/15 1/9/16
f 2/2/17 8/11/18 6/12/19 4/4/20
f 7/13/21 1/1/22 3/3/23 5/14/24
f 9/15/25 10/16/26 12/17/27 11/18/28
f 11/18/29 12/17/30 14/19/31 13/20/32
f 13/20/33 14/19/34 16/21/35 15/22/36
f 15/22/37 16/21/38 10/23/39 9/24/40
f 10/16/41 16/25/42 14/26/43 12/17/44
f 15/27/45 9/15/46 11/18/47 13/28/48
f 17/29/49 18/30/50 20/31/51 19/32/52
f 19/32/53 20/31/54 22/33/55 21/34/56
f 21/34/57 22/33/58 24/35/59 23/36/60
f 23/36/61 24/35/62 18/37/63 17/38/64
f 18/30/65 24/39/66 22/40/67 20/31/68
f 23/41/69 17/29/70 19/32/71 21/42/72
f 25/43/73 26/44/74 34/45/75 33/46/76
f 26/44/77 27/47/78 35/48/79 34/45/80
f 27/47/81 28/49/82 36/50/83 35/48/84
f 28/49/85 29/51/86 37/52/87 36/50/88
f 29/51/89 30/53/90 38/54/91 37/52/92
f 30/53/93 31/55/94 39/56/95 38/54/96
f 31/55/97 32/57/98 40/58/99 39/56/100
f 32/57/101 25/59/102 33/60/103 40/58/104
s 1
f 26/61/105 25/62/106 41/63/107
f 27/64/108 26/61/105 41/63/107
f 28/65/109 27/64/108 41/63/107
f 29/66/110 28/65/109 41/63/107
f 30/67/111 29/66/110 41/63/107
f 31/68/112 30/67/111 41/63/107
f 32/69/113 31/68/112 41/63/107
f 25/62/106 32/69/113 41/63/107
s 2
f 33/70/114 34/71/115 42/72/116
f 34/71/115 35/73/117 42/72/116
f 35/73/117 36/74/118 42/72/116
f 36/74/118 37/75/119 42/72/116
f 37/75/119 38/76/120 42/72/116
f 38/76/120 39/77/121 42/72/116
f 39/77/121 40/78/122 42/72/116
f 40/78/122 33/70/114 42/72/116
s off
f 43/79/123 44/80/124 52/81/125 51/82/126
f 44/80/127 45/83/128 53/84/129 52/81/130
f 45/83/131 46/85/132 54/86/133 53/84/134
f 46/85/135 47/87/136 55/88/137 54/86/138
f 47/87/139 48/89/140 56/90/141 55/88/142
f 48/89/143 49/91/144 57/92/145 56/90/146
f 49/91/147 50/93/148 58/94/149 57/92/150
f 50/93/151 43/95/152 51/96/153 58/94/154
s 3
f 44/97/155 43/98/156 59/99/157
f 45/100/158 44/97/155 59/99/157
f 46/101/159 45/100/158 59/99/157
f 47/102/160 46/101/159 59/99/157
f 48/103/161 47/102/160 59/99/157
f 49/104/162 48/103/161 59/99/157
f 50/105/163 49/104/162 59/99/157
f 43/98/156 50/105/163 59/99/157
s 4
f 51/106/164 52/107/165 60/108/166
f 52/107/165 53/109/167 60/108/166
f 53/109/167 54/110/168 60/108/166
f 54/110/168 55/111/169 60/108/166
f 55/111/169 56/112/170 60/108/166
f 56/112/170 57/113/171 60/108/166
f 57/113/171 58/114/172 60/108/166
f 58/114/172 51/106/164 60/108/166
s off
f 61/115/173 62/116/174 63/117/175
f 64/118/176 66/119/177 65/120/178
f 65/120/179 66/119/180 62/121/181 61/122/182
f 62/116/183 66/123/184 64/124/185 63/117/186
f 65/125/187 61/115/188 63/117/189 64/126/190
