# This file uses centimeters as units for non-parametric coordinates.

mtllib tree.mtl
g default
v 0.615762 0.513953 -0.200073
v 0.382209 0.594499 -0.277691
v 0.380562 0.513953 -0.523799
v 0.145991 0.594499 -0.449313
v -0.000000 0.513953 -0.647451
v -0.145991 0.594499 -0.449313
v -0.380562 0.513953 -0.523799
v -0.382208 0.594499 -0.277691
v -0.615762 0.513953 -0.200073
v -0.472436 0.594499 -0.000000
v -0.615762 0.513953 0.200073
v -0.382208 0.594499 0.277691
v -0.380562 0.513953 0.523799
v -0.145991 0.594499 0.449313
v -0.000000 0.513953 0.647451
v 0.145991 0.594499 0.449313
v 0.380562 0.513953 0.523799
v 0.382208 0.594499 0.277691
v 0.615762 0.513953 0.200073
v 0.472436 0.594499 -0.000000
v 0.000000 1.299016 0.000000
v 0.598042 0.214234 -0.194316
v 0.629857 0.124856 -0.457618
v 0.369610 0.214234 -0.508725
v 0.240584 0.124856 -0.740441
v 0.000000 0.214234 -0.628819
v -0.240584 0.124856 -0.740441
v -0.369610 0.214234 -0.508725
v -0.629857 0.124856 -0.457618
v -0.598042 0.214234 -0.194316
v -0.778545 0.124856 0.000000
v -0.598042 0.214234 0.194316
v -0.629856 0.124856 0.457618
v -0.369610 0.214234 0.508725
v -0.240584 0.124856 0.740441
v -0.000000 0.214234 0.628818
v 0.240584 0.124856 0.740441
v 0.369610 0.214234 0.508725
v 0.629856 0.124856 0.457618
v 0.598042 0.214234 0.194316
v 0.778545 0.124856 0.000000
v 0.000000 1.180039 0.000000
v 0.317968 0.909426 -0.103314
v 0.380251 0.862512 -0.276269
v 0.196515 0.909426 -0.270480
v 0.145243 0.862512 -0.447012
v 0.000000 0.909426 -0.334332
v -0.145243 0.862512 -0.447012
v -0.196515 0.909426 -0.270480
v -0.380251 0.862512 -0.276269
v -0.317968 0.909426 -0.103314
v -0.470016 0.862512 0.000000
v -0.317968 0.909426 0.103314
v -0.380251 0.862512 0.276269
v -0.196515 0.909426 0.270480
v -0.145243 0.862512 0.447012
v -0.000000 0.909426 0.334332
v 0.145243 0.862512 0.447012
v 0.196515 0.909426 0.270480
v 0.380251 0.862512 0.276269
v 0.317968 0.909426 0.103314
v 0.470016 0.862512 0.000000
v 0.000000 1.435807 0.000000
vt 0.737764 0.172746
vt 0.702254 0.103054
vt 0.646946 0.047746
vt 0.577254 0.012236
vt 0.500000 -0.000000
vt 0.422746 0.012236
vt 0.353054 0.047746
vt 0.297746 0.103054
vt 0.262236 0.172746
vt 0.250000 0.250000
vt 0.262236 0.327254
vt 0.297746 0.396946
vt 0.353054 0.452254
vt 0.422746 0.487764
vt 0.500000 0.500000
vt 0.577254 0.487764
vt 0.646946 0.452254
vt 0.702254 0.396946
vt 0.737764 0.327254
vt 0.750000 0.250000
vt 0.250000 0.500000
vt 0.275000 0.500000
vt 0.300000 0.500000
vt 0.325000 0.500000
vt 0.350000 0.500000
vt 0.375000 0.500000
vt 0.400000 0.500000
vt 0.425000 0.500000
vt 0.450000 0.500000
vt 0.475000 0.500000
vt 0.500000 0.500000
vt 0.525000 0.500000
vt 0.550000 0.500000
vt 0.575000 0.500000
vt 0.600000 0.500000
vt 0.625000 0.500000
vt 0.650000 0.500000
vt 0.675000 0.500000
vt 0.700000 0.500000
vt 0.725000 0.500000
vt 0.750000 0.500000
vt 0.500000 1.000000
vt 0.737764 0.172746
vt 0.750000 0.250000
vt 0.737764 0.327254
vt 0.702254 0.396946
vt 0.646946 0.452254
vt 0.577254 0.487764
vt 0.500000 0.500000
vt 0.422746 0.487764
vt 0.353054 0.452254
vt 0.297746 0.396946
vt 0.262236 0.327254
vt 0.250000 0.250000
vt 0.262236 0.172746
vt 0.297746 0.103054
vt 0.353054 0.047746
vt 0.422746 0.012236
vt 0.500000 -0.000000
vt 0.577254 0.012236
vt 0.646946 0.047746
vt 0.702254 0.103054
vt 0.250000 0.500000
vt 0.275000 0.500000
vt 0.500000 1.000000
vt 0.300000 0.500000
vt 0.325000 0.500000
vt 0.350000 0.500000
vt 0.375000 0.500000
vt 0.400000 0.500000
vt 0.425000 0.500000
vt 0.450000 0.500000
vt 0.475000 0.500000
vt 0.500000 0.500000
vt 0.525000 0.500000
vt 0.550000 0.500000
vt 0.575000 0.500000
vt 0.600000 0.500000
vt 0.625000 0.500000
vt 0.650000 0.500000
vt 0.675000 0.500000
vt 0.700000 0.500000
vt 0.725000 0.500000
vt 0.750000 0.500000
vt 0.737764 0.172746
vt 0.750000 0.250000
vt 0.737764 0.327254
vt 0.702254 0.396946
vt 0.646946 0.452254
vt 0.577254 0.487764
vt 0.500000 0.500000
vt 0.422746 0.487764
vt 0.353054 0.452254
vt 0.297746 0.396946
vt 0.262236 0.327254
vt 0.250000 0.250000
vt 0.262236 0.172746
vt 0.297746 0.103054
vt 0.353054 0.047746
vt 0.422746 0.012236
vt 0.500000 -0.000000
vt 0.577254 0.012236
vt 0.646946 0.047746
vt 0.702254 0.103054
vt 0.250000 0.500000
vt 0.275000 0.500000
vt 0.500000 1.000000
vt 0.300000 0.500000
vt 0.325000 0.500000
vt 0.350000 0.500000
vt 0.375000 0.500000
vt 0.400000 0.500000
vt 0.425000 0.500000
vt 0.450000 0.500000
vt 0.475000 0.500000
vt 0.500000 0.500000
vt 0.525000 0.500000
vt 0.550000 0.500000
vt 0.575000 0.500000
vt 0.600000 0.500000
vt 0.625000 0.500000
vt 0.650000 0.500000
vt 0.675000 0.500000
vt 0.700000 0.500000
vt 0.725000 0.500000
vt 0.750000 0.500000
vn -0.000000 -1.000000 -0.000000
vn -0.000000 -1.000000 -0.000000
vn -0.000000 -1.000000 -0.000000
vn -0.000000 -1.000000 -0.000000
vn -0.000000 -1.000000 -0.000000
vn -0.000000 -1.000000 -0.000000
vn -0.000000 -1.000000 -0.000000
vn -0.000000 -1.000000 -0.000000
vn -0.000000 -1.000000 -0.000000
vn -0.000000 -1.000000 -0.000000
vn -0.000000 -1.000000 -0.000000
vn -0.000000 -1.000000 -0.000000
vn -0.000000 -1.000000 -0.000000
vn -0.000000 -1.000000 -0.000000
vn -0.000000 -1.000000 -0.000000
vn -0.000000 -1.000000 -0.000000
vn -0.000000 -1.000000 -0.000000
vn -0.000000 -1.000000 -0.000000
vn -0.000000 -1.000000 -0.000000
vn -0.000000 -1.000000 -0.000000
vn 0.733724 0.636250 -0.238401
vn 0.671927 0.556949 -0.488183
vn 0.000000 1.000000 -0.000000
vn 0.453466 0.636251 -0.624143
vn 0.256653 0.556949 -0.789897
vn 0.000000 0.636250 -0.771483
vn -0.256653 0.556949 -0.789897
vn -0.453466 0.636250 -0.624143
vn -0.671927 0.556949 -0.488183
vn -0.733724 0.636250 -0.238401
vn -0.830547 0.556949 0.000000
vn -0.733724 0.636250 0.238401
vn -0.671927 0.556949 0.488183
vn -0.453466 0.636250 0.624143
vn -0.256653 0.556949 0.789897
vn 0.000000 0.636250 0.771483
vn 0.256653 0.556949 0.789897
vn 0.453466 0.636250 0.624142
vn 0.671927 0.556949 0.488183
vn 0.733724 0.636250 0.238401
vn 0.830547 0.556948 0.000001
vn 0.000000 -1.000000 0.000000
vn 0.000000 -1.000000 0.000000
vn 0.000000 -1.000000 0.000000
vn 0.000000 -1.000000 0.000000
vn 0.000000 -1.000000 0.000000
vn 0.000000 -1.000000 0.000000
vn 0.000000 -1.000000 0.000000
vn 0.000000 -1.000000 0.000000
vn 0.000000 -1.000000 0.000000
vn 0.000000 -1.000000 0.000000
vn 0.000000 -1.000000 0.000000
vn 0.000000 -1.000000 0.000000
vn 0.000000 -1.000000 0.000000
vn 0.000000 -1.000000 0.000000
vn 0.000000 -1.000000 0.000000
vn 0.000000 -1.000000 0.000000
vn 0.000000 -1.000000 0.000000
vn 0.000000 -1.000000 0.000000
vn 0.000000 -1.000000 0.000000
vn 0.000000 -1.000000 0.000000
vn 0.797013 0.545626 -0.258964
vn 0.650997 0.593714 -0.472977
vn 0.000001 1.000000 -0.000000
vn 0.492581 0.545626 -0.677980
vn 0.248658 0.593714 -0.765292
vn -0.000000 0.545626 -0.838029
vn -0.248659 0.593714 -0.765292
vn -0.492581 0.545626 -0.677980
vn -0.650997 0.593714 -0.472977
vn -0.797013 0.545626 -0.258965
vn -0.804676 0.593714 -0.000000
vn -0.797013 0.545626 0.258965
vn -0.650997 0.593714 0.472977
vn -0.492581 0.545626 0.677980
vn -0.248658 0.593714 0.765293
vn 0.000000 0.545626 0.838029
vn 0.248659 0.593714 0.765293
vn 0.492581 0.545625 0.677980
vn 0.650997 0.593714 0.472977
vn 0.797013 0.545626 0.258965
vn 0.804676 0.593714 0.000001
vn -0.000000 -1.000000 -0.000000
vn -0.000000 -1.000000 -0.000000
vn -0.000000 -1.000000 -0.000000
vn -0.000000 -1.000000 -0.000000
vn -0.000000 -1.000000 -0.000000
vn -0.000000 -1.000000 -0.000000
vn -0.000000 -1.000000 -0.000000
vn -0.000000 -1.000000 -0.000000
vn -0.000000 -1.000000 -0.000000
vn -0.000000 -1.000000 -0.000000
vn -0.000000 -1.000000 -0.000000
vn -0.000000 -1.000000 -0.000000
vn -0.000000 -1.000000 -0.000000
vn -0.000000 -1.000000 -0.000000
vn -0.000000 -1.000000 -0.000000
vn -0.000000 -1.000000 -0.000000
vn -0.000000 -1.000000 -0.000000
vn -0.000000 -1.000000 -0.000000
vn -0.000000 -1.000000 -0.000000
vn -0.000000 -1.000000 -0.000000
vn 0.802810 0.536147 -0.260848
vn 0.625632 0.634011 -0.454549
vn -0.000000 1.000000 -0.000000
vn 0.496164 0.536147 -0.682911
vn 0.238970 0.634011 -0.735475
vn -0.000000 0.536147 -0.844125
vn -0.238970 0.634011 -0.735475
vn -0.496164 0.536147 -0.682911
vn -0.625633 0.634011 -0.454548
vn -0.802810 0.536147 -0.260849
vn -0.773324 0.634011 -0.000000
vn -0.802810 0.536147 0.260849
vn -0.625633 0.634011 0.454549
vn -0.496164 0.536147 0.682911
vn -0.238971 0.634011 0.735475
vn 0.000000 0.536147 0.844125
vn 0.238970 0.634010 0.735475
vn 0.496164 0.536147 0.682911
vn 0.625633 0.634011 0.454548
vn 0.802810 0.536147 0.260849
vn 0.773325 0.634010 0.000001
s off
g pCone5
usemtl initialShadingGroup
f 1/1/1 20/20/2 19/19/3 18/18/4 17/17/5 16/16/6 15/15/7 14/14/8 13/13/9 12/12/10 11/11/11 10/10/12 9/9/13 8/8/14 7/7/15 6/6/16 5/5/17 4/4/18 3/3/19 2/2/20
s 1
f 1/21/21 2/22/22 21/42/23
f 2/22/22 3/23/24 21/42/23
f 3/23/24 4/24/25 21/42/23
f 4/24/25 5/25/26 21/42/23
f 5/25/26 6/26/27 21/42/23
f 6/26/27 7/27/28 21/42/23
f 7/27/28 8/28/29 21/42/23
f 8/28/29 9/29/30 21/42/23
f 9/29/30 10/30/31 21/42/23
f 10/30/31 11/31/32 21/42/23
f 11/31/32 12/32/33 21/42/23
f 12/32/33 13/33/34 21/42/23
f 13/33/34 14/34/35 21/42/23
f 14/34/35 15/35/36 21/42/23
f 15/35/36 16/36/37 21/42/23
f 16/36/37 17/37/38 21/42/23
f 17/37/38 18/38/39 21/42/23
f 18/38/39 19/39/40 21/42/23
f 19/39/40 20/40/41 21/42/23
f 20/40/41 1/41/21 21/42/23
s off
f 22/43/42 41/44/43 40/45/44 39/46/45 38/47/46 37/48/47 36/49/48 35/50/49 34/51/50 33/52/51 32/53/52 31/54/53 30/55/54 29/56/55 28/57/56 27/58/57 26/59/58 25/60/59 24/61/60 23/62/61
s 2
f 22/63/62 23/64/63 42/65/64
f 23/64/63 24/66/65 42/65/64
f 24/66/65 25/67/66 42/65/64
f 25/67/66 26/68/67 42/65/64
f 26/68/67 27/69/68 42/65/64
f 27/69/68 28/70/69 42/65/64
f 28/70/69 29/71/70 42/65/64
f 29/71/70 30/72/71 42/65/64
f 30/72/71 31/73/72 42/65/64
f 31/73/72 32/74/73 42/65/64
f 32/74/73 33/75/74 42/65/64
f 33/75/74 34/76/75 42/65/64
f 34/76/75 35/77/76 42/65/64
f 35/77/76 36/78/77 42/65/64
f 36/78/77 37/79/78 42/65/64
f 37/79/78 38/80/79 42/65/64
f 38/80/79 39/81/80 42/65/64
f 39/81/80 40/82/81 42/65/64
f 40/82/81 41/83/82 42/65/64
f 41/83/82 22/84/62 42/65/64
s off
f 43/85/83 62/86/84 61/87/85 60/88/86 59/89/87 58/90/88 57/91/89 56/92/90 55/93/91 54/94/92 53/95/93 52/96/94 51/97/95 50/98/96 49/99/97 48/100/98 47/101/99 46/102/100 45/103/101 44/104/102
s 3
f 43/105/103 44/106/104 63/107/105
f 44/106/104 45/108/106 63/107/105
f 45/108/106 46/109/107 63/107/105
f 46/109/107 47/110/108 63/107/105
f 47/110/108 48/111/109 63/107/105
f 48/111/109 49/112/110 63/107/105
f 49/112/110 50/113/111 63/107/105
f 50/113/111 51/114/112 63/107/105
f 51/114/112 52/115/113 63/107/105
f 52/115/113 53/116/114 63/107/105
f 53/116/114 54/117/115 63/107/105
f 54/117/115 55/118/116 63/107/105
f 55/118/116 56/119/117 63/107/105
f 56/119/117 57/120/118 63/107/105
f 57/120/118 58/121/119 63/107/105
f 58/121/119 59/122/120 63/107/105
f 59/122/120 60/123/121 63/107/105
f 60/123/121 61/124/122 63/107/105
f 61/124/122 62/125/123 63/107/105
f 62/125/123 43/126/103 63/107/105
