# This file uses centimeters as units for non-parametric coordinates.

mtllib angleroof.mtl
g default
v -0.447104 0.051801 0.447104
v -0.057687 0.051801 0.447104
v 0.057687 0.051801 0.447104
v 0.447104 0.051801 0.447104
v -0.447104 0.111262 0.447104
v -0.057687 0.387130 0.447104
v 0.057687 0.387130 0.447104
v 0.447104 0.111262 0.447104
v -0.447104 0.111262 -0.447104
v -0.057687 0.387130 -0.447104
v 0.057687 0.387130 -0.447104
v 0.447104 0.111262 -0.447104
v -0.447104 0.051801 -0.447104
v -0.057687 0.051801 -0.447104
v 0.057687 0.051801 -0.447104
v 0.447104 0.051801 -0.447104
v -0.360501 0.084505 0.447104
v -0.037003 0.084505 0.447104
v -0.037003 0.358230 0.447104
v -0.360501 0.129887 0.447104
v 0.037003 0.084505 0.447104
v 0.037003 0.358230 0.447104
v 0.360501 0.084505 0.447104
v 0.360501 0.129887 0.447104
v -0.360501 0.129887 -0.447104
v -0.037003 0.358230 -0.447104
v -0.037003 0.084505 -0.447104
v -0.360501 0.084505 -0.447104
v 0.037003 0.358230 -0.447104
v 0.037003 0.084505 -0.447104
v 0.360501 0.129887 -0.447104
v 0.360501 0.084505 -0.447104
v -0.360501 0.084505 0.380060
v -0.037003 0.084505 0.380060
v -0.037003 0.358230 0.380060
v -0.360501 0.129887 0.380060
v 0.037003 0.084505 0.380060
v 0.037003 0.358230 0.380060
v 0.360501 0.084505 0.380060
v 0.360501 0.129887 0.380060
v -0.360501 0.129887 -0.380060
v -0.037003 0.358230 -0.380060
v -0.037003 0.084505 -0.380060
v -0.360501 0.084505 -0.380060
v 0.037003 0.358230 -0.380060
v 0.037003 0.084505 -0.380060
v 0.360501 0.129887 -0.380060
v 0.360501 0.084505 -0.380060
v -0.493198 0.054143 -0.493198
v -0.063635 0.054143 -0.493198
v -0.063635 0.004038 -0.493198
v -0.493198 0.004038 -0.493198
v -0.493198 0.054143 0.493198
v -0.063635 0.054143 0.493198
v -0.493198 0.004038 0.493198
v -0.063635 0.004038 0.493198
v 0.063635 0.054143 -0.493198
v 0.063635 0.004038 -0.493198
v 0.063635 0.054143 0.493198
v 0.063635 0.004038 0.493198
v 0.493198 0.054143 -0.493198
v 0.493198 0.004038 -0.493198
v 0.493198 0.054143 0.493198
v 0.493198 0.004038 0.493198
vt 0.375000 0.000000
vt 0.458333 0.000000
vt 0.541667 0.000000
vt 0.625000 0.000000
vt 0.375000 0.250000
vt 0.458333 0.250000
vt 0.541667 0.250000
vt 0.625000 0.250000
vt 0.375000 0.500000
vt 0.458333 0.500000
vt 0.541667 0.500000
vt 0.625000 0.500000
vt 0.375000 0.750000
vt 0.458333 0.750000
vt 0.541667 0.750000
vt 0.625000 0.750000
vt 0.375000 1.000000
vt 0.458333 1.000000
vt 0.541667 1.000000
vt 0.625000 1.000000
vt 0.875000 0.000000
vt 0.875000 0.250000
vt 0.125000 0.000000
vt 0.125000 0.250000
vt 0.375000 0.000000
vt 0.458333 0.000000
vt 0.458333 0.250000
vt 0.375000 0.250000
vt 0.541667 0.000000
vt 0.541667 0.250000
vt 0.625000 0.000000
vt 0.625000 0.250000
vt 0.375000 0.500000
vt 0.458333 0.500000
vt 0.458333 0.750000
vt 0.375000 0.750000
vt 0.541667 0.500000
vt 0.541667 0.750000
vt 0.625000 0.500000
vt 0.625000 0.750000
vt 0.375000 0.000000
vt 0.458333 0.000000
vt 0.458333 0.250000
vt 0.375000 0.250000
vt 0.541667 0.000000
vt 0.541667 0.250000
vt 0.625000 0.000000
vt 0.625000 0.250000
vt 0.375000 0.500000
vt 0.458333 0.500000
vt 0.458333 0.750000
vt 0.375000 0.750000
vt 0.541667 0.500000
vt 0.541667 0.750000
vt 0.625000 0.500000
vt 0.625000 0.750000
vt 0.375000 0.750000
vt 0.458333 0.750000
vt 0.458333 0.750000
vt 0.375000 0.750000
vt 0.458333 1.000000
vt 0.375000 1.000000
vt 0.375000 1.000000
vt 0.458333 1.000000
vt 0.541667 0.750000
vt 0.541667 0.750000
vt 0.541667 1.000000
vt 0.541667 1.000000
vt 0.625000 0.750000
vt 0.625000 0.750000
vt 0.625000 1.000000
vt 0.625000 1.000000
vn -0.000000 0.000000 1.000000
vn -0.000000 0.000000 1.000000
vn -0.000000 0.000000 1.000000
vn -0.000000 0.000000 1.000000
vn 0.000000 0.000000 1.000000
vn 0.000000 0.000000 1.000000
vn 0.000000 0.000000 1.000000
vn 0.000000 0.000000 1.000000
vn 0.000000 0.000000 1.000000
vn 0.000000 0.000000 1.000000
vn 0.000000 0.000000 1.000000
vn 0.000000 0.000000 1.000000
vn -0.578061 0.815994 0.000000
vn -0.578061 0.815994 0.000000
vn -0.578061 0.815994 0.000000
vn -0.578061 0.815994 0.000000
vn 0.000000 1.000000 0.000000
vn 0.000000 1.000000 0.000000
vn 0.000000 1.000000 0.000000
vn 0.000000 1.000000 0.000000
vn 0.578061 0.815994 0.000000
vn 0.578061 0.815994 0.000000
vn 0.578061 0.815994 0.000000
vn 0.578061 0.815994 0.000000
vn -0.000000 0.000000 -1.000000
vn -0.000000 0.000000 -1.000000
vn -0.000000 0.000000 -1.000000
vn -0.000000 0.000000 -1.000000
vn 0.000000 0.000000 -1.000000
vn 0.000000 0.000000 -1.000000
vn 0.000000 0.000000 -1.000000
vn 0.000000 0.000000 -1.000000
vn 0.000000 0.000000 -1.000000
vn 0.000000 0.000000 -1.000000
vn 0.000000 0.000000 -1.000000
vn 0.000000 0.000000 -1.000000
vn 1.000000 0.000000 0.000000
vn 1.000000 0.000000 0.000000
vn 1.000000 0.000000 0.000000
vn 1.000000 0.000000 0.000000
vn -1.000000 0.000000 0.000000
vn -1.000000 0.000000 0.000000
vn -1.000000 0.000000 0.000000
vn -1.000000 0.000000 0.000000
vn 0.000000 0.000000 1.000000
vn 0.000000 0.000000 1.000000
vn 0.000000 0.000000 1.000000
vn 0.000000 0.000000 1.000000
vn 0.000000 0.000000 1.000000
vn 0.000000 0.000000 1.000000
vn 0.000000 0.000000 1.000000
vn 0.000000 0.000000 1.000000
vn 0.000000 0.000000 1.000000
vn 0.000000 0.000000 1.000000
vn 0.000000 0.000000 1.000000
vn 0.000000 0.000000 1.000000
vn 0.000000 0.000000 1.000000
vn 0.000000 0.000000 1.000000
vn 0.000000 0.000000 1.000000
vn 0.000000 0.000000 1.000000
vn 0.000000 0.000000 1.000000
vn 0.000000 0.000000 1.000000
vn 0.000000 0.000000 1.000000
vn 0.000000 0.000000 1.000000
vn 0.000000 0.000000 1.000000
vn 0.000000 0.000000 1.000000
vn 0.000000 0.000000 1.000000
vn 0.000000 0.000000 1.000000
vn 0.000000 0.000000 1.000000
vn 0.000000 0.000000 1.000000
vn 0.000000 0.000000 1.000000
vn 0.000000 0.000000 1.000000
vn -0.000000 0.000000 1.000000
vn -0.000000 0.000000 1.000000
vn -0.000000 0.000000 1.000000
vn -0.000000 0.000000 1.000000
vn 0.000000 0.000000 -1.000000
vn 0.000000 0.000000 -1.000000
vn 0.000000 0.000000 -1.000000
vn 0.000000 0.000000 -1.000000
vn 0.000000 0.000000 -1.000000
vn 0.000000 0.000000 -1.000000
vn 0.000000 0.000000 -1.000000
vn 0.000000 0.000000 -1.000000
vn 0.000000 0.000000 -1.000000
vn 0.000000 0.000000 -1.000000
vn 0.000000 0.000000 -1.000000
vn 0.000000 0.000000 -1.000000
vn 0.000000 0.000000 -1.000000
vn 0.000000 0.000000 -1.000000
vn 0.000000 0.000000 -1.000000
vn 0.000000 0.000000 -1.000000
vn 0.000000 0.000000 -1.000000
vn 0.000000 0.000000 -1.000000
vn 0.000000 0.000000 -1.000000
vn 0.000000 0.000000 -1.000000
vn -0.000000 0.000000 -1.000000
vn -0.000000 0.000000 -1.000000
vn -0.000000 0.000000 -1.000000
vn -0.000000 0.000000 -1.000000
vn 0.000000 0.000000 -1.000000
vn 0.000000 0.000000 -1.000000
vn 0.000000 0.000000 -1.000000
vn 0.000000 0.000000 -1.000000
vn 0.000000 0.000000 -1.000000
vn 0.000000 0.000000 -1.000000
vn 0.000000 0.000000 -1.000000
vn 0.000000 0.000000 -1.000000
vn 0.000000 1.000000 0.000000
vn 0.000000 1.000000 0.000000
vn 0.000000 1.000000 0.000000
vn 0.000000 1.000000 0.000000
vn 0.576668 -0.816979 0.000000
vn 0.576668 -0.816979 0.000000
vn 0.576668 -0.816979 0.000000
vn 0.576668 -0.816979 0.000000
vn 1.000000 0.000000 0.000000
vn 1.000000 0.000000 0.000000
vn 1.000000 0.000000 0.000000
vn 1.000000 0.000000 0.000000
vn 0.000000 1.000000 0.000000
vn 0.000000 1.000000 0.000000
vn 0.000000 1.000000 0.000000
vn 0.000000 1.000000 0.000000
vn 0.000000 -1.000000 0.000000
vn 0.000000 -1.000000 0.000000
vn 0.000000 -1.000000 0.000000
vn 0.000000 -1.000000 0.000000
vn 0.000000 1.000000 0.000000
vn 0.000000 1.000000 0.000000
vn 0.000000 1.000000 0.000000
vn 0.000000 1.000000 0.000000
vn -1.000000 0.000000 0.000000
vn -1.000000 0.000000 0.000000
vn -1.000000 0.000000 0.000000
vn -1.000000 0.000000 0.000000
vn -0.576668 -0.816978 0.000000
vn -0.576668 -0.816978 0.000000
vn -0.576668 -0.816978 0.000000
vn -0.576668 -0.816978 0.000000
vn 0.576668 -0.816979 0.000000
vn 0.576668 -0.816979 0.000000
vn 0.576668 -0.816979 0.000000
vn 0.576668 -0.816979 0.000000
vn 0.000000 1.000000 0.000000
vn 0.000000 1.000000 0.000000
vn 0.000000 1.000000 0.000000
vn 0.000000 1.000000 0.000000
vn 1.000000 0.000000 0.000000
vn 1.000000 0.000000 0.000000
vn 1.000000 0.000000 0.000000
vn 1.000000 0.000000 0.000000
vn 0.000000 -1.000000 0.000000
vn 0.000000 -1.000000 0.000000
vn 0.000000 -1.000000 0.000000
vn 0.000000 -1.000000 0.000000
vn 0.000000 1.000000 0.000000
vn 0.000000 1.000000 0.000000
vn 0.000000 1.000000 0.000000
vn 0.000000 1.000000 0.000000
vn -0.576668 -0.816978 0.000000
vn -0.576668 -0.816978 0.000000
vn -0.576668 -0.816978 0.000000
vn -0.576668 -0.816978 0.000000
vn -1.000000 0.000000 0.000000
vn -1.000000 0.000000 0.000000
vn -1.000000 0.000000 0.000000
vn -1.000000 0.000000 0.000000
vn 0.000000 1.000000 0.000000
vn 0.000000 1.000000 0.000000
vn 0.000000 1.000000 0.000000
vn 0.000000 1.000000 0.000000
vn 0.000000 0.000000 -1.000000
vn 0.000000 0.000000 -1.000000
vn 0.000000 0.000000 -1.000000
vn 0.000000 0.000000 -1.000000
vn 0.000000 0.000000 1.000000
vn 0.000000 0.000000 1.000000
vn 0.000000 0.000000 1.000000
vn 0.000000 0.000000 1.000000
vn -1.000000 0.000000 0.000000
vn -1.000000 0.000000 0.000000
vn -1.000000 0.000000 0.000000
vn -1.000000 0.000000 0.000000
vn 0.000000 0.000000 -1.000000
vn 0.000000 0.000000 -1.000000
vn 0.000000 0.000000 -1.000000
vn 0.000000 0.000000 -1.000000
vn 0.000000 0.000000 1.000000
vn 0.000000 0.000000 1.000000
vn 0.000000 0.000000 1.000000
vn 0.000000 0.000000 1.000000
vn 0.000000 0.000000 -1.000000
vn 0.000000 0.000000 -1.000000
vn 0.000000 0.000000 -1.000000
vn 0.000000 0.000000 -1.000000
vn 1.000000 0.000000 0.000000
vn 1.000000 0.000000 0.000000
vn 1.000000 0.000000 0.000000
vn 1.000000 0.000000 0.000000
vn 0.000000 0.000000 1.000000
vn 0.000000 0.000000 1.000000
vn 0.000000 0.000000 1.000000
vn 0.000000 0.000000 1.000000
vn 0.000000 0.998712 0.050730
vn 0.000000 0.998712 0.050730
vn 0.000000 0.998712 0.050730
vn 0.000000 0.998712 0.050730
vn 0.000000 0.998712 -0.050730
vn 0.000000 0.998712 -0.050730
vn 0.000000 0.998712 -0.050730
vn 0.000000 0.998712 -0.050730
vn 0.050730 0.998712 0.000000
vn 0.050730 0.998712 0.000000
vn 0.050730 0.998712 0.000000
vn 0.050730 0.998712 0.000000
vn 0.000000 0.998712 0.050730
vn 0.000000 0.998712 0.050730
vn 0.000000 0.998712 0.050730
vn 0.000000 0.998712 0.050730
vn 0.000000 0.998712 -0.050730
vn 0.000000 0.998712 -0.050730
vn 0.000000 0.998712 -0.050730
vn 0.000000 0.998712 -0.050730
vn 0.000000 0.998712 0.050730
vn 0.000000 0.998712 0.050730
vn 0.000000 0.998712 0.050730
vn 0.000000 0.998712 0.050730
vn -0.050730 0.998712 0.000000
vn -0.050730 0.998712 0.000000
vn -0.050730 0.998712 0.000000
vn -0.050730 0.998712 0.000000
vn 0.000000 0.998712 -0.050730
vn 0.000000 0.998712 -0.050730
vn 0.000000 0.998712 -0.050730
vn 0.000000 0.998712 -0.050730
s off
g pCube3
usemtl initialShadingGroup
f 33/41/1 34/42/2 35/43/3 36/44/4
f 34/42/5 37/45/6 38/46/7 35/43/8
f 37/45/9 39/47/10 40/48/11 38/46/12
f 5/5/13 6/6/14 10/10/15 9/9/16
f 6/6/17 7/7/18 11/11/19 10/10/20
f 7/7/21 8/8/22 12/12/23 11/11/24
f 41/49/25 42/50/26 43/51/27 44/52/28
f 42/50/29 45/53/30 46/54/31 43/51/32
f 45/53/33 47/55/34 48/56/35 46/54/36
f 4/4/37 16/21/38 12/22/39 8/8/40
f 13/23/41 1/1/42 5/5/43 9/24/44
f 1/1/45 2/2/46 18/26/47 17/25/48
f 6/6/49 5/5/50 20/28/51 19/27/52
f 5/5/53 1/1/54 17/25/55 20/28/56
f 2/2/57 3/3/58 21/29/59 18/26/60
f 7/7/61 6/6/62 19/27/63 22/30/64
f 3/3/65 4/4/66 23/31/67 21/29/68
f 4/4/69 8/8/70 24/32/71 23/31/72
f 8/8/73 7/7/74 22/30/75 24/32/76
f 9/9/77 10/10/78 26/34/79 25/33/80
f 14/14/81 13/13/82 28/36/83 27/35/84
f 13/13/85 9/9/86 25/33/87 28/36/88
f 10/10/89 11/11/90 29/37/91 26/34/92
f 15/15/93 14/14/94 27/35/95 30/38/96
f 11/11/97 12/12/98 31/39/99 29/37/100
f 12/12/101 16/16/102 32/40/103 31/39/104
f 16/16/105 15/15/106 30/38/107 32/40/108
f 17/25/109 18/26/110 34/42/111 33/41/112
f 19/27/113 20/28/114 36/44/115 35/43/116
f 20/28/117 17/25/118 33/41/119 36/44/120
f 18/26/121 21/29/122 37/45/123 34/42/124
f 22/30/125 19/27/126 35/43/127 38/46/128
f 21/29/129 23/31/130 39/47/131 37/45/132
f 23/31/133 24/32/134 40/48/135 39/47/136
f 24/32/137 22/30/138 38/46/139 40/48/140
f 25/33/141 26/34/142 42/50/143 41/49/144
f 27/35/145 28/36/146 44/52/147 43/51/148
f 28/36/149 25/33/150 41/49/151 44/52/152
f 26/34/153 29/37/154 45/53/155 42/50/156
f 30/38/157 27/35/158 43/51/159 46/54/160
f 29/37/161 31/39/162 47/55/163 45/53/164
f 31/39/165 32/40/166 48/56/167 47/55/168
f 32/40/169 30/38/170 46/54/171 48/56/172
f 49/57/173 50/58/174 51/59/175 52/60/176
f 54/61/177 53/62/178 55/63/179 56/64/180
f 53/62/181 49/57/182 52/60/183 55/63/184
f 50/58/185 57/65/186 58/66/187 51/59/188
f 59/67/189 54/61/190 56/64/191 60/68/192
f 57/65/193 61/69/194 62/70/195 58/66/196
f 61/69/197 63/71/198 64/72/199 62/70/200
f 63/71/201 59/67/202 60/68/203 64/72/204
f 13/13/205 14/14/206 50/58/207 49/57/208
f 2/18/209 1/17/210 53/62/211 54/61/212
f 1/17/213 13/13/214 49/57/215 53/62/216
f 14/14/217 15/15/218 57/65/219 50/58/220
f 3/19/221 2/18/222 54/61/223 59/67/224
f 15/15/225 16/16/226 61/69/227 57/65/228
f 16/16/229 4/20/230 63/71/231 61/69/232
f 4/20/233 3/19/234 59/67/235 63/71/236
