# This file uses centimeters as units for non-parametric coordinates.

mtllib roundroof.mtl
g default
v 0.339244 0.127000 -0.339245
v 0.000000 0.127000 -0.479764
v -0.339244 0.127000 -0.339245
v -0.479764 0.127000 0.000000
v -0.339244 0.127000 0.339245
v 0.000000 0.127000 0.479764
v 0.339244 0.127000 0.339245
v 0.479764 0.127000 0.000000
v 0.322640 0.315681 -0.322641
v 0.000000 0.315681 -0.456283
v -0.322640 0.315681 -0.322641
v -0.456283 0.315681 0.000000
v -0.322640 0.315681 0.322641
v 0.000000 0.315681 0.456283
v 0.322640 0.315681 0.322641
v 0.456283 0.315681 0.000000
v 0.274454 0.463443 -0.274455
v 0.000000 0.463443 -0.388137
v -0.274454 0.463443 -0.274455
v -0.388137 0.463443 0.000000
v -0.274454 0.463443 0.274455
v 0.000000 0.463443 0.388137
v 0.274454 0.463443 0.274455
v 0.388137 0.463443 0.000000
v 0.199403 0.580708 -0.199403
v 0.000000 0.580708 -0.281998
v -0.199403 0.580708 -0.199403
v -0.281998 0.580708 0.000000
v -0.199403 0.580708 0.199403
v 0.000000 0.580708 0.281998
v 0.199403 0.580708 0.199403
v 0.281998 0.580708 0.000000
v 0.104832 0.655997 -0.104832
v 0.000000 0.655997 -0.148255
v -0.104832 0.655997 -0.104832
v -0.148255 0.655997 0.000000
v -0.104832 0.655997 0.104832
v 0.000000 0.655997 0.148255
v 0.104832 0.655997 0.104832
v 0.148255 0.655997 0.000000
v 0.000000 0.659219 0.000000
v 0.500000 0.127000 -0.500000
v 0.000000 0.127000 -0.500000
v 0.500000 0.002000 -0.500000
v 0.000000 0.002000 -0.500000
v -0.500000 0.127000 -0.500000
v -0.500000 0.002000 -0.500000
v -0.500000 0.127000 0.000000
v -0.500000 0.002000 0.000000
v -0.500000 0.127000 0.500000
v -0.500000 0.002000 0.500000
v 0.000000 0.127000 0.500000
v 0.000000 0.002000 0.500000
v 0.500000 0.127000 0.500000
v 0.500000 0.002000 0.500000
v 0.500000 0.127000 0.000000
v 0.500000 0.002000 0.000000
v 0.000000 0.002000 0.000000
vt 0.000000 0.500000
vt 0.125000 0.500000
vt 0.250000 0.500000
vt 0.375000 0.500000
vt 0.500000 0.500000
vt 0.625000 0.500000
vt 0.750000 0.500000
vt 0.875000 0.500000
vt 1.000000 0.500000
vt 0.000000 0.600000
vt 0.125000 0.600000
vt 0.250000 0.600000
vt 0.375000 0.600000
vt 0.500000 0.600000
vt 0.625000 0.600000
vt 0.750000 0.600000
vt 0.875000 0.600000
vt 1.000000 0.600000
vt 0.000000 0.700000
vt 0.125000 0.700000
vt 0.250000 0.700000
vt 0.375000 0.700000
vt 0.500000 0.700000
vt 0.625000 0.700000
vt 0.750000 0.700000
vt 0.875000 0.700000
vt 1.000000 0.700000
vt 0.000000 0.800000
vt 0.125000 0.800000
vt 0.250000 0.800000
vt 0.375000 0.800000
vt 0.500000 0.800000
vt 0.625000 0.800000
vt 0.750000 0.800000
vt 0.875000 0.800000
vt 1.000000 0.800000
vt 0.000000 0.900000
vt 0.125000 0.900000
vt 0.250000 0.900000
vt 0.375000 0.900000
vt 0.500000 0.900000
vt 0.625000 0.900000
vt 0.750000 0.900000
vt 0.875000 0.900000
vt 1.000000 0.900000
vt 0.187500 1.000000
vt 0.437500 1.000000
vt 0.687500 1.000000
vt 0.937500 1.000000
vt 0.000000 0.000000
vt 1.000000 0.000000
vt 0.000000 0.000000
vt 1.000000 0.000000
vt 0.000000 0.000000
vt 1.000000 0.000000
vt 0.000000 0.000000
vt 1.000000 0.000000
vt 0.000000 0.000000
vt 1.000000 0.000000
vt 0.000000 0.000000
vt 1.000000 0.000000
vt 0.000000 0.000000
vt 1.000000 0.000000
vt 0.000000 0.000000
vt 1.000000 0.000000
vt 0.000000 0.000000
vt 1.000000 0.000000
vt 1.000000 1.000000
vt 0.000000 1.000000
vt 0.000000 0.000000
vt 1.000000 0.000000
vt 1.000000 1.000000
vt 0.000000 1.000000
vt 0.000000 0.000000
vt 1.000000 0.000000
vt 1.000000 1.000000
vt 0.000000 1.000000
vt 0.000000 0.000000
vt 1.000000 0.000000
vt 1.000000 1.000000
vt 0.000000 1.000000
vt 0.000000 0.000000
vt 1.000000 0.000000
vt 1.000000 1.000000
vt 0.000000 1.000000
vt 0.000000 0.000000
vt 1.000000 0.000000
vt 1.000000 1.000000
vt 0.000000 1.000000
vt 0.000000 0.000000
vt 1.000000 0.000000
vt 1.000000 1.000000
vt 0.000000 1.000000
vt 0.000000 0.000000
vt 1.000000 0.000000
vt 1.000000 1.000000
vt 0.000000 1.000000
vt 0.500000 1.000000
vt 0.500000 1.000000
vt 0.500000 1.000000
vt 0.500000 1.000000
vn 0.380179 0.114225 -0.917833
vn 0.380179 0.114225 -0.917833
vn 0.380179 0.114225 -0.917833
vn 0.380179 0.114224 -0.917833
vn -0.380179 0.114224 -0.917833
vn -0.380179 0.114225 -0.917833
vn -0.380179 0.114224 -0.917833
vn -0.380179 0.114225 -0.917833
vn -0.917833 0.114225 -0.380179
vn -0.917833 0.114225 -0.380179
vn -0.917833 0.114225 -0.380179
vn -0.917833 0.114225 -0.380179
vn -0.917833 0.114225 0.380179
vn -0.917833 0.114225 0.380179
vn -0.917833 0.114225 0.380179
vn -0.917833 0.114225 0.380179
vn -0.380179 0.114225 0.917833
vn -0.380179 0.114225 0.917833
vn -0.380179 0.114225 0.917833
vn -0.380179 0.114224 0.917833
vn 0.380179 0.114224 0.917833
vn 0.380179 0.114224 0.917833
vn 0.380179 0.114224 0.917833
vn 0.380179 0.114224 0.917833
vn 0.917833 0.114224 0.380179
vn 0.917833 0.114225 0.380179
vn 0.917833 0.114225 0.380179
vn 0.917833 0.114225 0.380179
vn 0.917833 0.114225 -0.380179
vn 0.917833 0.114225 -0.380179
vn 0.917833 0.114225 -0.380179
vn 0.917833 0.114225 -0.380179
vn 0.352059 0.391980 -0.849945
vn 0.352059 0.391980 -0.849945
vn 0.352059 0.391980 -0.849945
vn 0.352059 0.391980 -0.849945
vn -0.352059 0.391980 -0.849945
vn -0.352059 0.391980 -0.849945
vn -0.352059 0.391980 -0.849945
vn -0.352059 0.391980 -0.849945
vn -0.849945 0.391980 -0.352059
vn -0.849945 0.391979 -0.352059
vn -0.849945 0.391980 -0.352059
vn -0.849945 0.391979 -0.352060
vn -0.849945 0.391979 0.352059
vn -0.849945 0.391980 0.352059
vn -0.849945 0.391979 0.352059
vn -0.849944 0.391981 0.352059
vn -0.352059 0.391980 0.849945
vn -0.352059 0.391980 0.849945
vn -0.352059 0.391980 0.849945
vn -0.352059 0.391980 0.849945
vn 0.352059 0.391980 0.849945
vn 0.352059 0.391980 0.849945
vn 0.352059 0.391980 0.849945
vn 0.352059 0.391980 0.849945
vn 0.849945 0.391980 0.352059
vn 0.849945 0.391980 0.352059
vn 0.849945 0.391980 0.352059
vn 0.849945 0.391979 0.352060
vn 0.849945 0.391979 -0.352059
vn 0.849945 0.391980 -0.352059
vn 0.849945 0.391979 -0.352059
vn 0.849944 0.391981 -0.352059
vn 0.293568 0.641492 -0.708735
vn 0.293568 0.641492 -0.708735
vn 0.293568 0.641492 -0.708735
vn 0.293568 0.641492 -0.708735
vn -0.293568 0.641492 -0.708735
vn -0.293568 0.641493 -0.708735
vn -0.293568 0.641492 -0.708735
vn -0.293568 0.641492 -0.708735
vn -0.708735 0.641492 -0.293568
vn -0.708735 0.641492 -0.293568
vn -0.708735 0.641492 -0.293568
vn -0.708735 0.641493 -0.293568
vn -0.708735 0.641492 0.293568
vn -0.708735 0.641492 0.293568
vn -0.708735 0.641492 0.293568
vn -0.708735 0.641492 0.293568
vn -0.293568 0.641492 0.708735
vn -0.293568 0.641492 0.708735
vn -0.293568 0.641492 0.708735
vn -0.293568 0.641492 0.708735
vn 0.293568 0.641492 0.708735
vn 0.293568 0.641493 0.708735
vn 0.293568 0.641492 0.708735
vn 0.293568 0.641492 0.708735
vn 0.708735 0.641492 0.293568
vn 0.708735 0.641492 0.293568
vn 0.708735 0.641492 0.293568
vn 0.708735 0.641493 0.293568
vn 0.708735 0.641492 -0.293568
vn 0.708735 0.641492 -0.293568
vn 0.708735 0.641492 -0.293568
vn 0.708735 0.641492 -0.293568
vn 0.199124 0.853963 -0.480726
vn 0.199123 0.853963 -0.480726
vn 0.199123 0.853963 -0.480726
vn 0.199122 0.853963 -0.480726
vn -0.199123 0.853963 -0.480726
vn -0.199123 0.853963 -0.480726
vn -0.199123 0.853963 -0.480726
vn -0.199123 0.853963 -0.480726
vn -0.480727 0.853962 -0.199124
vn -0.480727 0.853962 -0.199124
vn -0.480727 0.853963 -0.199124
vn -0.480726 0.853963 -0.199122
vn -0.480726 0.853963 0.199124
vn -0.480726 0.853962 0.199124
vn -0.480726 0.853962 0.199124
vn -0.480727 0.853962 0.199123
vn -0.199124 0.853963 0.480726
vn -0.199123 0.853963 0.480726
vn -0.199123 0.853963 0.480726
vn -0.199122 0.853963 0.480726
vn 0.199123 0.853963 0.480726
vn 0.199123 0.853963 0.480726
vn 0.199123 0.853963 0.480726
vn 0.199123 0.853963 0.480726
vn 0.480727 0.853962 0.199124
vn 0.480727 0.853962 0.199124
vn 0.480727 0.853963 0.199124
vn 0.480726 0.853963 0.199122
vn 0.480726 0.853963 -0.199124
vn 0.480726 0.853962 -0.199124
vn 0.480726 0.853962 -0.199124
vn 0.480727 0.853962 -0.199123
vn -0.008999 0.999723 -0.021725
vn -0.015363 0.999764 -0.015363
vn -0.015363 0.999764 -0.015363
vn -0.021726 0.999723 -0.008999
vn -0.021726 0.999723 0.008999
vn -0.015363 0.999764 0.015363
vn -0.015363 0.999764 0.015363
vn -0.008999 0.999723 0.021725
vn 0.008999 0.999723 0.021725
vn 0.015363 0.999764 0.015363
vn 0.015363 0.999764 0.015363
vn 0.021726 0.999723 0.008999
vn 0.021726 0.999723 -0.008999
vn 0.015363 0.999764 -0.015363
vn 0.015363 0.999764 -0.015363
vn 0.008999 0.999723 -0.021725
vn 0.000000 0.000000 -1.000000
vn 0.000000 0.000000 -1.000000
vn 0.000000 0.000000 -1.000000
vn 0.000000 0.000000 -1.000000
vn 0.000000 0.000000 -1.000000
vn 0.000000 0.000000 -1.000000
vn 0.000000 0.000000 -1.000000
vn 0.000000 0.000000 -1.000000
vn -1.000000 0.000000 0.000000
vn -1.000000 0.000000 0.000000
vn -1.000000 0.000000 0.000000
vn -1.000000 0.000000 0.000000
vn -1.000000 0.000000 0.000000
vn -1.000000 0.000000 0.000000
vn -1.000000 0.000000 0.000000
vn -1.000000 0.000000 0.000000
vn 0.000000 0.000000 1.000000
vn 0.000000 0.000000 1.000000
vn 0.000000 0.000000 1.000000
vn 0.000000 0.000000 1.000000
vn 0.000000 0.000000 1.000000
vn 0.000000 0.000000 1.000000
vn 0.000000 0.000000 1.000000
vn 0.000000 0.000000 1.000000
vn 1.000000 0.000000 0.000000
vn 1.000000 0.000000 0.000000
vn 1.000000 0.000000 0.000000
vn 1.000000 0.000000 0.000000
vn 1.000000 0.000000 0.000000
vn 1.000000 0.000000 0.000000
vn 1.000000 0.000000 0.000000
vn 1.000000 0.000000 0.000000
vn 0.000000 1.000000 0.000000
vn 0.000000 1.000000 0.000000
vn 0.000000 1.000000 0.000000
vn 0.000000 1.000000 0.000000
vn 0.000000 1.000000 0.000000
vn 0.000000 1.000000 0.000000
vn 0.000000 1.000000 0.000000
vn 0.000000 1.000000 0.000000
vn 0.000000 1.000000 0.000000
vn 0.000000 1.000000 -0.000000
vn 0.000000 1.000000 -0.000000
vn 0.000000 1.000000 -0.000000
vn 0.000000 1.000000 0.000000
vn 0.000000 1.000000 0.000000
vn 0.000000 1.000000 0.000000
vn 0.000000 1.000000 0.000000
vn 0.000000 1.000000 0.000000
vn 0.000000 1.000000 0.000000
vn 0.000000 1.000000 0.000000
vn 0.000000 1.000000 0.000000
vn 0.000000 1.000000 0.000000
vn 0.000000 1.000000 0.000000
vn 0.000000 1.000000 0.000000
vn 0.000000 1.000000 0.000000
vn 0.000000 1.000000 0.000000
vn 0.000000 1.000000 0.000000
vn 0.000000 1.000000 0.000000
vn 0.000000 1.000000 0.000000
vn 0.000000 1.000000 0.000000
vn 0.000000 1.000000 0.000000
vn 0.000000 1.000000 0.000000
vn 0.000000 1.000000 0.000000
vn 0.000000 -1.000000 0.000000
vn 0.000000 -1.000000 0.000000
vn 0.000000 -1.000000 0.000000
vn 0.000000 -1.000000 0.000000
vn 0.000000 -1.000000 0.000000
vn 0.000000 -1.000000 0.000000
vn 0.000000 -1.000000 0.000000
vn 0.000000 -1.000000 0.000000
vn 0.000000 -1.000000 0.000000
vn 0.000000 -1.000000 0.000000
vn 0.000000 -1.000000 0.000000
vn 0.000000 -1.000000 0.000000
vn 0.000000 -1.000000 0.000000
vn 0.000000 -1.000000 0.000000
vn 0.000000 -1.000000 0.000000
vn 0.000000 -1.000000 0.000000
s 1
g pSphere1
usemtl initialShadingGroup
f 1/1/1 2/2/2 9/10/3
f 9/10/3 2/2/2 10/11/4
s 2
f 2/2/5 3/3/6 10/11/7
f 10/11/7 3/3/6 11/12/8
s 3
f 3/3/9 4/4/10 11/12/11
f 11/12/11 4/4/10 12/13/12
s 4
f 4/4/13 5/5/14 12/13/15
f 12/13/15 5/5/14 13/14/16
s 5
f 5/5/17 6/6/18 13/14/19
f 13/14/19 6/6/18 14/15/20
s 6
f 6/6/21 7/7/22 14/15/23
f 14/15/23 7/7/22 15/16/24
s 7
f 7/7/25 8/8/26 15/16/27
f 15/16/27 8/8/26 16/17/28
s 8
f 8/8/29 1/9/30 16/17/31
f 16/17/31 1/9/30 9/18/32
s 9
f 9/10/33 10/11/34 17/19/35
f 17/19/35 10/11/34 18/20/36
s 10
f 10/11/37 11/12/38 18/20/39
f 18/20/39 11/12/38 19/21/40
s 11
f 11/12/41 12/13/42 19/21/43
f 19/21/43 12/13/42 20/22/44
s 12
f 12/13/45 13/14/46 20/22/47
f 20/22/47 13/14/46 21/23/48
s 13
f 13/14/49 14/15/50 21/23/51
f 21/23/51 14/15/50 22/24/52
s 14
f 14/15/53 15/16/54 22/24/55
f 22/24/55 15/16/54 23/25/56
s 15
f 15/16/57 16/17/58 23/25/59
f 23/25/59 16/17/58 24/26/60
s 16
f 16/17/61 9/18/62 24/26/63
f 24/26/63 9/18/62 17/27/64
s 17
f 17/19/65 18/20/66 25/28/67
f 25/28/67 18/20/66 26/29/68
s 18
f 18/20/69 19/21/70 26/29/71
f 26/29/71 19/21/70 27/30/72
s 19
f 19/21/73 20/22/74 27/30/75
f 27/30/75 20/22/74 28/31/76
s 20
f 20/22/77 21/23/78 28/31/79
f 28/31/79 21/23/78 29/32/80
s 21
f 21/23/81 22/24/82 29/32/83
f 29/32/83 22/24/82 30/33/84
s 22
f 22/24/85 23/25/86 30/33/87
f 30/33/87 23/25/86 31/34/88
s 23
f 23/25/89 24/26/90 31/34/91
f 31/34/91 24/26/90 32/35/92
s 24
f 24/26/93 17/27/94 32/35/95
f 32/35/95 17/27/94 25/36/96
s 25
f 25/28/97 26/29/98 33/37/99
f 33/37/99 26/29/98 34/38/100
s 26
f 26/29/101 27/30/102 34/38/103
f 34/38/103 27/30/102 35/39/104
s 27
f 27/30/105 28/31/106 35/39/107
f 35/39/107 28/31/106 36/40/108
s 28
f 28/31/109 29/32/110 36/40/111
f 36/40/111 29/32/110 37/41/112
s 29
f 29/32/113 30/33/114 37/41/115
f 37/41/115 30/33/114 38/42/116
s 30
f 30/33/117 31/34/118 38/42/119
f 38/42/119 31/34/118 39/43/120
s 31
f 31/34/121 32/35/122 39/43/123
f 39/43/123 32/35/122 40/44/124
s 32
f 32/35/125 25/36/126 40/44/127
f 40/44/127 25/36/126 33/45/128
s 33
f 34/38/129 35/39/130 41/46/131
f 41/46/131 35/39/130 36/40/132
s 34
f 36/40/133 37/41/134 41/47/135
f 41/47/135 37/41/134 38/42/136
s 35
f 38/42/137 39/43/138 41/48/139
f 41/48/139 39/43/138 40/44/140
s 36
f 40/44/141 33/37/142 41/49/143
f 41/49/143 33/37/142 34/38/144
s 37
f 43/66/145 42/67/146 45/69/147
f 45/69/147 42/67/146 44/68/148
s 38
f 46/70/149 43/71/150 47/73/151
f 47/73/151 43/71/150 45/72/152
s 39
f 48/74/153 46/75/154 49/77/155
f 49/77/155 46/75/154 47/76/156
s 40
f 50/78/157 48/79/158 51/81/159
f 51/81/159 48/79/158 49/80/160
s 41
f 52/82/161 50/83/162 53/85/163
f 53/85/163 50/83/162 51/84/164
s 42
f 54/86/165 52/87/166 55/89/167
f 55/89/167 52/87/166 53/88/168
s 43
f 56/90/169 54/91/170 57/93/171
f 57/93/171 54/91/170 55/92/172
s 44
f 42/94/173 56/95/174 44/97/175
f 44/97/175 56/95/174 57/96/176
s 45
f 43/66/177 2/50/178 42/67/179
f 2/50/178 1/51/180 42/67/179
s 46
f 43/71/181 46/70/182 2/53/183
f 3/52/184 2/53/183 46/70/182
s 47
f 48/74/185 4/54/186 46/75/187
f 4/54/186 3/55/188 46/75/187
s 48
f 48/79/189 50/78/190 4/57/191
f 5/56/192 4/57/191 50/78/190
s 49
f 52/82/193 6/58/194 50/83/195
f 6/58/194 5/59/196 50/83/195
s 50
f 52/87/197 54/86/198 6/61/199
f 7/60/200 6/61/199 54/86/198
s 51
f 56/90/201 8/62/202 54/91/203
f 8/62/202 7/63/204 54/91/203
s 52
f 56/95/205 42/94/206 8/65/207
f 1/64/208 8/65/207 42/94/206
s 53
f 47/73/209 45/72/210 49/99/211
f 49/99/211 45/72/210 58/98/212
s 54
f 49/99/213 58/98/214 51/84/215
f 51/84/215 58/98/214 53/85/216
s 55
f 45/69/217 44/68/218 58/101/219
f 58/101/219 44/68/218 57/100/220
s 56
f 58/101/221 57/100/222 53/88/223
f 53/88/223 57/100/222 55/89/224
