# This file uses centimeters as units for non-parametric coordinates.

mtllib balcony.mtl
g default
v -0.401265 -0.000944 0.500000
v 0.010955 -0.000944 0.500000
v -0.401265 0.545300 0.500000
v -0.371048 0.545300 0.500000
v 0.010955 0.545300 0.500000
v -0.401265 0.545300 0.422679
v -0.343279 0.020090 0.411332
v 0.008688 0.020090 0.411332
v -0.401265 0.545300 -0.432871
v -0.343279 0.020090 -0.421524
v 0.008688 0.020090 -0.421524
v -0.401265 0.545300 -0.500000
v -0.371048 0.545300 -0.500000
v 0.010955 0.545300 -0.500000
v -0.401265 -0.000944 -0.500000
v 0.010955 -0.000944 -0.500000
v 0.010955 -0.000944 -0.432871
v 0.010955 -0.000944 0.422679
vt 0.375000 0.000000
vt 0.625000 0.000000
vt 0.375000 0.250000
vt 0.458333 0.250000
vt 0.625000 0.250000
vt 0.375000 0.333333
vt 0.458333 0.333333
vt 0.625000 0.333333
vt 0.375000 0.416667
vt 0.458333 0.416667
vt 0.625000 0.416667
vt 0.375000 0.500000
vt 0.458333 0.500000
vt 0.625000 0.500000
vt 0.375000 0.750000
vt 0.625000 0.750000
vt 0.625000 0.833333
vt 0.625000 0.916667
vt 0.375000 1.000000
vt 0.625000 1.000000
vt 0.875000 0.000000
vt 0.791667 0.000000
vt 0.708333 0.000000
vt 0.875000 0.250000
vt 0.791667 0.250000
vt 0.708333 0.250000
vt 0.125000 0.000000
vt 0.125000 0.250000
vt 0.208333 0.250000
vt 0.291667 0.250000
vn 0.000000 0.000000 1.000000
vn 0.000000 0.000000 1.000000
vn 0.000000 0.000000 1.000000
vn 0.000000 0.000000 1.000000
vn 0.000000 0.000000 1.000000
vn 0.993960 0.109739 0.000000
vn 0.923664 0.160707 -0.347876
vn 0.723771 0.608248 -0.325867
vn 0.000000 0.166469 -0.986047
vn 0.000000 0.166469 -0.986047
vn 0.000000 0.868103 -0.496384
vn 0.993960 0.109739 0.000000
vn 0.722371 0.607855 0.329686
vn 0.000000 0.865699 0.500565
vn 0.906815 0.158480 0.390603
vn 0.000000 0.147777 0.989021
vn 0.000000 0.147777 0.989021
vn 0.000000 0.000000 -1.000000
vn 0.000000 0.000000 -1.000000
vn 0.000000 0.000000 -1.000000
vn 0.000000 0.000000 -1.000000
vn 0.000000 0.000000 -1.000000
vn 0.000000 -1.000000 0.000000
vn 0.000000 -1.000000 0.000000
vn 0.000000 -1.000000 0.000000
vn 0.000000 -1.000000 0.000000
vn 0.000000 -1.000000 0.000000
vn 0.000000 -1.000000 0.000000
vn 0.994241 0.107170 0.000000
vn 0.999593 0.001444 0.028492
vn 0.999308 0.030985 0.020566
vn 0.999583 0.000000 0.028879
vn 0.994240 0.107173 0.000000
vn 0.999388 0.029683 -0.018513
vn 0.999680 0.001272 -0.025260
vn 0.999673 0.000000 -0.025562
vn -1.000000 0.000000 0.000000
vn -1.000000 0.000000 0.000000
vn -1.000000 0.000000 0.000000
vn -1.000000 0.000000 0.000000
vn -1.000000 0.000000 0.000000
vn -1.000000 0.000000 0.000000
s 1
g pCube3
usemtl initialShadingGroup
f 3/3/1 1/1/2 4/4/3
f 1/1/2 2/2/4 4/4/3
f 4/4/3 2/2/4 5/5/5
s 2
f 6/6/6 3/3/7 7/7/8
f 3/3/7 4/4/9 7/7/8
f 4/4/9 5/5/10 7/7/8
f 7/7/8 5/5/10 8/8/11
f 6/6/6 7/7/8 9/9/12
f 9/9/12 7/7/8 10/10/13
f 10/10/13 7/7/8 11/11/14
f 11/11/14 7/7/8 8/8/11
f 9/9/12 10/10/13 12/12/15
f 10/10/13 13/13/16 12/12/15
f 13/13/16 10/10/13 14/14/17
f 14/14/17 10/10/13 11/11/14
s 3
f 15/15/18 12/12/19 16/16/20
f 12/12/19 13/13/21 16/16/20
f 13/13/21 14/14/22 16/16/20
s 4
f 2/20/23 1/19/24 18/18/25
f 1/19/24 15/15/26 18/18/25
f 16/16/27 17/17/28 15/15/26
f 15/15/26 17/17/28 18/18/25
s 5
f 17/22/29 16/21/30 11/25/31
f 16/21/30 14/24/32 11/25/31
f 18/23/33 17/22/29 8/26/34
f 8/26/34 17/22/29 11/25/31
f 18/23/33 8/26/34 2/2/35
f 2/2/35 8/26/34 5/5/36
s 6
f 12/28/37 15/27/38 9/29/39
f 15/27/38 1/1/40 9/29/39
f 3/3/41 6/30/42 1/1/40
f 6/30/42 9/29/39 1/1/40
