# This file uses centimeters as units for non-parametric coordinates.

mtllib window_l.mtl
g default
v -0.009307 0.765919 -1.062314
v -0.009999 0.829354 -0.944599
v -0.009999 0.886214 -0.803524
v -0.009999 0.931338 -0.583794
v -0.009999 0.960310 -0.306919
v -0.009999 0.970293 0.000000
v -0.009999 0.960310 0.306919
v -0.009999 0.931338 0.583794
v -0.009999 0.886214 0.803524
v -0.009999 0.829354 0.944599
v -0.009307 0.765919 1.061458
v 0.007282 0.767392 -1.066615
v 0.007777 0.829354 -0.944599
v 0.007777 0.886214 -0.803524
v 0.007777 0.931338 -0.583794
v 0.007777 0.960310 -0.306919
v 0.007777 0.970293 0.000000
v 0.007777 0.960310 0.306919
v 0.007777 0.931338 0.583794
v 0.007777 0.886214 0.803524
v 0.007777 0.829354 0.944599
v 0.007282 0.767392 1.065759
v 0.007777 0.836357 -1.049554
v 0.007777 0.899535 -0.892804
v 0.007777 0.949673 -0.648660
v 0.007777 0.981864 -0.341021
v 0.007777 0.992956 0.000000
v 0.007777 0.981864 0.341021
v 0.007777 0.949673 0.648660
v 0.007777 0.899535 0.892804
v 0.007777 0.836357 1.049554
v -0.025214 0.836357 -1.049554
v -0.025214 0.899535 -0.892804
v -0.025214 0.949673 -0.648660
v -0.025214 0.981864 -0.341021
v -0.025214 0.992956 -0.000000
v -0.025214 0.981864 0.341021
v -0.025214 0.949673 0.648660
v -0.025214 0.899535 0.892804
v -0.025214 0.836357 1.049554
v -0.008009 0.011292 1.056908
v -0.008009 0.754224 1.056908
v -0.008009 0.754224 -1.059477
v -0.008009 0.011292 -1.059477
v -0.008009 0.754224 0.063153
v -0.008009 0.011292 0.063153
v -0.008009 0.754224 -0.073904
v -0.008009 0.011292 -0.073904
v -0.008009 0.404034 0.063153
v -0.008009 0.404034 -0.073904
v -0.008009 0.404355 -1.059477
v -0.008009 0.404355 1.056908
v -0.008009 0.361652 0.063153
v -0.008009 0.361652 -0.073904
v -0.008009 0.361333 -1.059477
v -0.008009 0.361333 1.056908
v -0.015688 0.405263 -0.073904
v -0.015688 0.410523 -1.059477
v -0.015688 0.355214 -1.059477
v -0.015688 0.360432 -0.073904
v -0.015688 0.410523 1.056908
v -0.015688 0.405263 0.063153
v -0.015688 0.360432 0.063153
v -0.015688 0.355214 1.056908
v -0.015688 -0.004334 -0.073904
v -0.015688 -0.004334 0.063153
v -0.015688 0.769850 0.063153
v -0.015688 0.769850 -0.073904
v 0.006293 -0.004010 1.100498
v 0.006293 -0.004010 -1.103068
v -0.016005 0.749805 1.044006
v -0.014285 0.404355 1.036561
v -0.014285 0.361333 1.036561
v -0.016005 0.015711 1.044006
v -0.023135 0.000409 1.087596
v -0.016005 0.749806 -1.046575
v -0.014318 0.747256 -0.073904
v -0.014318 0.747256 0.063153
v -0.016005 0.015711 -1.046575
v -0.023135 0.000409 -1.090165
v -0.014285 0.361333 -1.039130
v -0.014285 0.404355 -1.039130
v -0.014318 0.018260 0.063153
v -0.014318 0.018260 -0.073904
vt 0.250000 0.625000
vt 0.300000 0.750000
vt 0.350000 0.750000
vt 0.400000 0.750000
vt 0.450000 0.750000
vt 0.500000 0.750000
vt 0.550000 0.750000
vt 0.600000 0.750000
vt 0.650000 0.750000
vt 0.700000 0.750000
vt 0.750000 0.625000
vt 0.300000 0.500000
vt 0.350000 0.500000
vt 0.400000 0.500000
vt 0.450000 0.500000
vt 0.500000 0.500000
vt 0.550000 0.500000
vt 0.600000 0.500000
vt 0.650000 0.500000
vt 0.700000 0.500000
vt 0.250000 0.125000
vt 0.300000 0.250000
vt 0.350000 0.250000
vt 0.400000 0.250000
vt 0.450000 0.250000
vt 0.500000 0.250000
vt 0.550000 0.250000
vt 0.600000 0.250000
vt 0.650000 0.250000
vt 0.700000 0.250000
vt 0.750000 0.125000
vt 0.300000 0.000000
vt 0.350000 0.000000
vt 0.400000 0.000000
vt 0.450000 0.000000
vt 0.500000 0.000000
vt 0.550000 0.000000
vt 0.600000 0.000000
vt 0.650000 0.000000
vt 0.700000 0.000000
vt 0.125000 0.000000
vt 0.241422 0.000000
vt 0.241422 0.117791
vt 0.125000 0.117791
vt 0.241422 0.132267
vt 0.125000 0.132267
vt 0.125000 0.117791
vt 0.241422 0.117791
vt 0.375000 0.132267
vt 0.257612 0.132267
vt 0.257612 0.117791
vt 0.375000 0.117791
vt 0.375000 0.117791
vt 0.257612 0.117791
vt 0.257612 0.000000
vt 0.375000 0.000000
vt 0.241422 0.000000
vt 0.257612 0.000000
vt 0.257612 0.250000
vt 0.241422 0.250000
vt 0.125000 0.132267
vt 0.241422 0.132267
vt 0.241422 0.250000
vt 0.125000 0.250000
vt 0.257612 0.132267
vt 0.375000 0.132267
vt 0.375000 0.250000
vt 0.257612 0.250000
vt 0.375000 0.250000
vt 0.375000 0.250000
vt 0.375000 0.132267
vt 0.375000 0.117791
vt 0.375000 0.000000
vt 0.375000 0.000000
vt 0.375000 0.500000
vt 0.375000 0.500000
vt 0.375000 0.383578
vt 0.375000 0.367388
vt 0.375000 0.750000
vt 0.375000 0.750000
vt 0.375000 0.632209
vt 0.375000 0.617733
vt 0.375000 1.000000
vt 0.375000 1.000000
vt 0.375000 0.882612
vt 0.375000 0.866422
vt 0.375000 0.000000
vt 0.375000 0.250000
vt 0.375000 0.500000
vt 0.375000 0.383578
vt 0.375000 0.367388
vt 0.375000 0.500000
vt 0.375000 0.750000
vt 0.375000 0.632209
vt 0.375000 0.617733
vt 0.375000 0.750000
vt 0.375000 1.000000
vt 0.375000 0.882612
vt 0.375000 0.866422
vt 0.375000 1.000000
vn 0.999998 -0.001802 -0.000120
vn 0.999975 -0.007056 -0.000471
vn 0.999989 -0.004754 -0.000317
vn 1.000000 -0.000000 0.000000
vn 1.000000 0.000000 0.000000
vn 1.000000 -0.000000 0.000000
vn 1.000000 -0.000000 0.000000
vn 1.000000 0.000000 0.000000
vn 1.000000 0.000000 0.000000
vn 1.000000 -0.000000 0.000000
vn 1.000000 -0.000000 0.000000
vn 1.000000 -0.000000 0.000000
vn 1.000000 -0.000000 0.000000
vn 1.000000 -0.000000 0.000000
vn 1.000000 -0.000000 0.000000
vn 1.000000 0.000000 0.000000
vn 1.000000 0.000000 0.000000
vn 0.999998 -0.001808 0.000121
vn 0.999989 -0.004750 0.000317
vn 0.999975 -0.007061 0.000471
vn -0.261766 0.057764 -0.963401
vn -0.244182 0.058179 -0.967983
vn -0.006811 0.796614 -0.604450
vn 0.000000 0.804762 -0.593597
vn 0.000000 0.962297 -0.272001
vn 0.000000 0.962297 -0.272001
vn 0.000000 0.989051 -0.147571
vn 0.000000 0.989051 -0.147571
vn 0.000000 0.997781 -0.066578
vn 0.000000 0.997781 -0.066578
vn 0.000000 1.000000 0.000000
vn 0.000000 1.000000 -0.000000
vn 0.000000 0.997781 0.066578
vn 0.000000 0.997781 0.066578
vn 0.000000 0.989051 0.147571
vn 0.000000 0.989051 0.147571
vn 0.000000 0.962297 0.272001
vn 0.000000 0.962297 0.272001
vn -0.006808 0.795253 0.606239
vn 0.000000 0.803526 0.595270
vn -0.261575 0.054756 0.963629
vn -0.243988 0.054982 0.968218
vn -0.958345 -0.258396 0.121679
vn -0.962915 -0.239839 0.123580
vn -0.952965 -0.278502 0.119558
vn -0.937999 -0.328438 0.110840
vn -0.911898 -0.399066 0.095854
vn -0.886985 -0.454911 0.079457
vn -0.865246 -0.497457 0.062333
vn -0.846007 -0.531556 0.041471
vn -0.837828 -0.545151 0.029230
vn -0.830263 -0.557373 0.000000
vn -0.830262 -0.557373 -0.000000
vn -0.846007 -0.531556 -0.041471
vn -0.837828 -0.545151 -0.029230
vn -0.886985 -0.454911 -0.079457
vn -0.865247 -0.497456 -0.062333
vn -0.937999 -0.328438 -0.110840
vn -0.911899 -0.399065 -0.095854
vn -0.958561 -0.257554 -0.121766
vn -0.953078 -0.278096 -0.119601
vn -0.963246 -0.238435 -0.123721
vn -1.000000 0.000000 0.000000
vn -1.000000 -0.000000 -0.000000
vn -1.000000 -0.000000 -0.000000
vn -1.000000 -0.000000 -0.000000
vn -1.000000 0.000000 0.000000
vn -1.000000 0.000000 0.000000
vn -1.000000 0.000000 0.000000
vn -1.000000 0.000000 0.000000
vn -1.000000 0.000000 0.000000
vn -1.000000 0.000000 0.000000
vn -1.000000 0.000000 0.000000
vn -1.000000 0.000000 0.000000
vn -1.000000 0.000000 0.000000
vn -1.000000 -0.000000 0.000000
vn -1.000000 -0.000000 0.000000
vn -1.000000 -0.000000 0.000000
vn -1.000000 0.000000 0.000000
vn -1.000000 0.000000 0.000000
vn -1.000000 0.000000 0.000000
vn -1.000000 0.000000 0.000000
vn -1.000000 0.000000 -0.000000
vn -1.000000 0.000000 -0.000000
vn -1.000000 0.000000 -0.000000
vn -1.000000 0.000000 0.000000
vn -1.000000 0.000000 0.000000
vn -1.000000 0.000000 0.000000
vn -1.000000 0.000000 0.000000
vn -1.000000 0.000000 0.000000
vn 0.158075 0.987427 0.000322
vn 0.623535 0.781784 0.004138
vn 0.164988 0.986296 0.000376
vn 0.626241 0.779619 0.004161
vn 0.000020 0.000000 -1.000000
vn 0.000011 0.000000 -1.000000
vn -0.000019 0.000000 -1.000000
vn -0.000021 0.000000 -1.000000
vn 0.623203 -0.782060 0.000253
vn 0.163688 -0.986499 0.005169
vn 0.620483 -0.784220 0.000288
vn 0.156843 -0.987610 0.005229
vn 0.626246 0.779625 -0.000252
vn 0.164934 0.986291 -0.005166
vn 0.623553 0.781781 -0.000287
vn 0.158072 0.987414 -0.005227
vn 0.156845 -0.987623 -0.000316
vn 0.620512 -0.784187 -0.004084
vn 0.163631 -0.986522 -0.000370
vn 0.623198 -0.782053 -0.004107
vn 0.000010 0.000000 1.000000
vn -0.000029 0.000000 1.000000
vn 0.000001 0.000000 1.000000
vn -0.000031 0.000000 1.000000
vn -0.000000 -0.000000 -1.000000
vn 0.000001 -0.000000 -1.000000
vn -0.000000 -0.000000 -1.000000
vn 0.000001 0.000000 -1.000000
vn 0.897466 -0.441083 0.000000
vn 0.897466 -0.441083 0.000000
vn 0.897466 -0.441083 0.000000
vn 0.897466 -0.441083 0.000000
vn 0.000001 0.000000 1.000000
vn 0.000001 0.000000 1.000000
vn -0.000000 0.000000 1.000000
vn -0.000000 0.000000 1.000000
vn -0.000000 -0.000000 1.000000
vn -0.000000 -0.000000 1.000000
vn -0.000000 -0.000000 1.000000
vn 0.000000 -0.000000 1.000000
vn 0.897465 0.441085 0.000000
vn 0.897465 0.441085 0.000000
vn 0.897465 0.441085 0.000000
vn 0.897465 0.441085 0.000000
vn 0.000000 0.000000 -1.000000
vn 0.000000 0.000000 -1.000000
vn 0.000002 0.000000 -1.000000
vn 0.000002 0.000000 -1.000000
vn -0.944809 0.320813 0.066446
vn -0.955586 0.274367 0.107599
vn -0.964667 0.255189 -0.065538
vn -0.983874 -0.001041 -0.178861
vn -0.985527 0.000196 -0.169516
vn -0.946051 0.321282 -0.042023
vn -0.952551 0.282988 -0.112094
vn -0.989978 0.141207 -0.002067
vn -0.963669 0.267100 0.000157
vn -0.959972 0.214747 -0.179827
vn -0.980274 0.172453 0.096552
vn -0.983874 -0.001041 0.178860
vn -0.985527 0.000196 0.169515
vn -0.966955 0.244468 0.072347
vn -0.887946 0.459948 -0.000331
vn -0.897161 0.441703 0.000025
vn 0.849994 0.000000 -0.526792
vn 0.954559 0.009735 -0.297862
vn 0.853524 0.000296 -0.521054
vn 0.955523 0.009874 -0.294751
vn 0.954560 -0.009731 -0.297861
vn 0.955523 -0.009869 -0.294751
vn 0.849988 0.000000 -0.526802
vn 0.853516 -0.000296 -0.521067
vn -0.395906 0.041820 0.917338
vn -0.394967 0.041794 0.917744
vn 0.483668 -0.875252 0.000000
vn 0.739305 -0.673365 -0.002643
vn 0.485851 -0.874042 -0.000023
vn 0.741287 -0.671183 -0.002669
vn 0.739320 -0.673349 0.002624
vn 0.741287 -0.671183 0.002649
vn 0.483673 -0.875249 0.000000
vn 0.485838 -0.874049 0.000023
vn 0.849985 0.000000 0.526807
vn 0.954559 -0.009731 0.297864
vn 0.853513 -0.000296 0.521071
vn 0.955522 -0.009869 0.294754
vn 0.954557 0.009736 0.297869
vn 0.955521 0.009874 0.294758
vn 0.849989 0.000000 0.526801
vn 0.853518 0.000296 0.521064
vn -0.395617 0.043858 -0.917368
vn -0.394681 0.043833 -0.917772
vn 0.483667 0.875252 0.000000
vn 0.739318 0.673351 0.002624
vn 0.485832 0.874052 0.000023
vn 0.741286 0.671184 0.002649
vn 0.739304 0.673367 -0.002643
vn 0.741286 0.671185 -0.002669
vn 0.483668 0.875252 0.000000
vn 0.485850 0.874042 -0.000023
vn -0.148493 -0.988913 0.000000
vn -0.148492 -0.988914 -0.000000
vn -0.148493 -0.988913 -0.000000
vn -0.148492 -0.988914 -0.000000
vn 0.999999 -0.001282 0.000000
vn 0.999999 -0.001282 0.000000
vn 0.999999 -0.001282 0.000000
vn 0.999999 -0.001282 0.000000
vn -0.999940 -0.010920 -0.000000
vn -0.999988 -0.004978 -0.000268
vn -0.999961 -0.008804 0.000067
vn -1.000000 -0.000880 0.000315
vn -0.999999 -0.001446 0.000276
vn -0.999998 -0.002120 0.000205
vn -0.999996 -0.002976 0.000080
vn -0.999991 -0.004177 -0.000158
vn -0.999981 -0.006129 -0.000684
vn -0.999736 -0.022103 -0.006247
vn -1.000000 0.000000 0.000000
vn 0.999968 -0.007983 0.000000
vn 0.999994 -0.003514 0.000169
vn 0.999979 -0.006425 -0.000048
vn 1.000000 -0.000628 -0.000225
vn 1.000000 -0.001034 -0.000197
vn 0.999999 -0.001518 -0.000147
vn 0.999998 -0.002137 -0.000057
vn 0.999996 -0.003011 0.000114
vn 0.999990 -0.004444 0.000493
vn 0.999836 -0.017419 0.004924
vn 1.000000 0.000000 0.000000
s 1
g pPipe2
usemtl initialShadingGroup
f 13/2/1 12/1/2 23/12/3
f 14/3/4 13/2/1 24/13/5
f 24/13/5 13/2/1 23/12/3
f 15/4/6 14/3/4 25/14/7
f 25/14/7 14/3/4 24/13/5
f 16/5/8 15/4/6 26/15/9
f 26/15/9 15/4/6 25/14/7
f 17/6/10 16/5/8 27/16/11
f 27/16/11 16/5/8 26/15/9
f 17/6/10 27/16/11 18/7/12
f 18/7/12 27/16/11 28/17/13
f 18/7/12 28/17/13 19/8/14
f 19/8/14 28/17/13 29/18/15
f 19/8/14 29/18/15 20/9/16
f 20/9/16 29/18/15 30/19/17
f 20/9/16 30/19/17 21/10/18
f 21/10/18 30/19/17 31/20/19
f 22/11/20 21/10/18 31/20/19
s 2
f 12/1/21 1/21/22 23/12/23
f 23/12/23 1/21/22 32/22/24
f 24/13/25 23/12/23 33/23/26
f 33/23/26 23/12/23 32/22/24
f 25/14/27 24/13/25 34/24/28
f 34/24/28 24/13/25 33/23/26
f 26/15/29 25/14/27 35/25/30
f 35/25/30 25/14/27 34/24/28
f 27/16/31 26/15/29 36/26/32
f 36/26/32 26/15/29 35/25/30
f 28/17/33 27/16/31 37/27/34
f 37/27/34 27/16/31 36/26/32
f 29/18/35 28/17/33 38/28/36
f 38/28/36 28/17/33 37/27/34
f 30/19/37 29/18/35 39/29/38
f 39/29/38 29/18/35 38/28/36
f 31/20/39 30/19/37 40/30/40
f 40/30/40 30/19/37 39/29/38
f 22/11/41 31/20/39 11/31/42
f 11/31/42 31/20/39 40/30/40
s 3
f 32/22/43 1/21/44 2/32/45
f 32/22/43 2/32/45 33/23/46
f 33/23/46 2/32/45 3/33/47
f 33/23/46 3/33/47 34/24/48
f 34/24/48 3/33/47 4/34/49
f 34/24/48 4/34/49 35/25/50
f 35/25/50 4/34/49 5/35/51
f 35/25/50 5/35/51 36/26/52
f 36/26/52 5/35/51 6/36/53
f 37/27/54 36/26/52 7/37/55
f 7/37/55 36/26/52 6/36/53
f 38/28/56 37/27/54 8/38/57
f 8/38/57 37/27/54 7/37/55
f 39/29/58 38/28/56 9/39/59
f 9/39/59 38/28/56 8/38/57
f 40/30/60 39/29/58 10/40/61
f 10/40/61 39/29/58 9/39/59
f 11/31/62 40/30/60 10/40/61
s 4
f 44/41/63 48/42/64 55/44/65
f 55/44/65 48/42/64 54/43/66
s 5
f 57/45/67 58/46/68 60/48/69
f 60/48/69 58/46/68 59/47/70
f 61/49/71 62/50/72 64/52/73
f 64/52/73 62/50/72 63/51/74
s 7
f 56/53/75 53/54/76 41/56/77
f 41/56/77 53/54/76 46/55/78
s 5
f 65/57/79 66/58/80 60/48/69
f 66/58/80 63/51/74 60/48/69
f 60/48/69 63/51/74 57/45/67
f 63/51/74 62/50/72 57/45/67
f 62/50/72 67/59/81 57/45/67
f 67/59/81 68/60/82 57/45/67
s 9
f 51/61/83 50/62/84 43/64/85
f 43/64/85 50/62/84 47/63/86
s 10
f 49/65/87 52/66/88 45/68/89
f 45/68/89 52/66/88 42/67/90
s 11
f 50/62/91 51/61/92 57/45/93
f 57/45/93 51/61/92 58/46/94
s 12
f 55/44/95 59/47/96 51/61/97
f 51/61/97 59/47/96 58/46/98
s 13
f 55/44/99 54/43/100 59/47/101
f 59/47/101 54/43/100 60/48/102
s 14
f 52/66/103 49/65/104 61/49/105
f 61/49/105 49/65/104 62/50/106
s 15
f 53/54/107 56/53/108 63/51/109
f 63/51/109 56/53/108 64/52/110
s 16
f 56/53/111 52/66/112 64/52/113
f 64/52/113 52/66/112 61/49/114
s 17
f 54/43/115 48/42/116 60/48/117
f 60/48/117 48/42/116 65/57/118
s 18
f 48/42/119 46/55/120 65/57/121
f 65/57/121 46/55/120 66/58/122
s 19
f 53/54/123 63/51/124 46/55/125
f 46/55/125 63/51/124 66/58/126
s 20
f 49/65/127 45/68/128 62/50/129
f 62/50/129 45/68/128 67/59/130
s 21
f 45/68/131 47/63/132 67/59/133
f 67/59/133 47/63/132 68/60/134
s 22
f 50/62/135 57/45/136 47/63/137
f 47/63/137 57/45/136 68/60/138
s 23
f 11/69/139 71/70/140 75/74/141
f 71/70/140 72/71/142 75/74/141
f 72/71/142 73/72/143 75/74/141
f 73/72/143 74/73/144 75/74/141
f 11/69/139 1/75/145 71/70/140
f 71/70/140 1/75/145 78/78/146
f 78/78/146 1/75/145 77/77/147
f 1/75/145 76/76/148 77/77/147
f 1/75/145 80/79/149 76/76/148
f 76/76/148 80/79/149 82/82/150
f 82/82/150 80/79/149 81/81/151
f 80/79/149 79/80/152 81/81/151
f 75/83/141 74/84/144 80/79/149
f 74/84/144 83/85/153 80/79/149
f 83/85/153 84/86/154 80/79/149
f 84/86/154 79/80/152 80/79/149
s 24
f 42/67/155 52/66/156 71/70/157
f 71/70/157 52/66/156 72/71/158
f 52/66/156 56/53/159 72/71/158
f 72/71/158 56/53/159 73/72/160
f 41/56/161 74/73/162 56/53/159
f 56/53/159 74/73/162 73/72/160
s 2
f 69/87/163 22/88/41 75/74/164
f 75/74/164 22/88/41 11/69/42
s 25
f 43/89/165 47/90/166 76/76/167
f 76/76/167 47/90/166 77/77/168
f 47/90/166 45/91/169 77/77/168
f 77/77/168 45/91/169 78/78/170
f 42/67/171 71/70/172 45/91/169
f 45/91/169 71/70/172 78/78/170
s 26
f 44/93/173 55/94/174 79/80/175
f 79/80/175 55/94/174 81/81/176
f 55/94/174 51/95/177 81/81/176
f 81/81/176 51/95/177 82/82/178
f 43/89/179 76/76/180 51/95/177
f 51/95/177 76/76/180 82/82/178
s 2
f 70/96/181 80/79/182 12/92/21
f 12/92/21 80/79/182 1/75/22
s 27
f 41/97/183 46/98/184 74/84/185
f 74/84/185 46/98/184 83/85/186
f 46/98/184 48/99/187 83/85/186
f 83/85/186 48/99/187 84/86/188
f 44/93/189 79/80/190 48/99/187
f 48/99/187 79/80/190 84/86/188
s 28
f 70/96/191 69/100/192 80/79/193
f 80/79/193 69/100/192 75/83/194
s 29
f 22/88/195 69/100/196 12/92/197
f 12/92/197 69/100/196 70/96/198
s 30
f 1/75/199 11/31/200 2/32/201
f 2/32/201 11/31/200 3/33/202
f 3/33/202 11/31/200 4/34/203
f 4/34/203 11/31/200 5/35/204
f 5/35/204 11/31/200 6/36/205
f 6/36/205 11/31/200 7/37/206
f 7/37/206 11/31/200 8/38/207
f 11/31/200 10/40/208 8/38/207
f 10/40/208 9/39/209 8/38/207
s 31
f 22/88/210 12/1/211 21/10/212
f 21/10/212 12/1/211 20/9/213
f 20/9/213 12/1/211 19/8/214
f 19/8/214 12/1/211 18/7/215
f 18/7/215 12/1/211 17/6/216
f 17/6/216 12/1/211 16/5/217
f 16/5/217 12/1/211 15/4/218
f 12/1/211 13/2/219 15/4/218
f 13/2/219 14/3/220 15/4/218
