# This file uses centimeters as units for non-parametric coordinates.

mtllib floor.mtl
g default
v -0.658849 0.974951 3.445179
v -0.658849 0.974951 2.127480
v -0.658849 0.983931 3.445179
v -0.658849 0.983931 2.127480
v 0.658849 0.983931 2.127480
v 0.658849 0.974951 2.127480
v 0.658849 0.974951 3.445179
v 0.658849 0.983931 3.445179
v -0.658849 0.771590 3.445179
v -0.658849 0.771590 2.127480
v -0.658849 0.762611 3.445179
v -0.658849 0.762611 2.127480
v 0.658849 0.762611 2.127480
v 0.658849 0.771590 2.127480
v 0.658849 0.771590 3.445179
v 0.658849 0.762611 3.445179
v -0.675615 0.974837 2.110715
v -0.650470 0.974666 2.085573
v -0.686028 0.974666 2.100302
v -0.700756 0.974666 2.135859
v -0.700756 0.865414 2.135859
v -0.686028 0.865414 2.100302
v -0.650470 0.865414 2.085573
v 0.675615 0.974837 2.110715
v 0.700756 0.974666 2.135859
v 0.686028 0.974666 2.100302
v 0.650470 0.974666 2.085573
v 0.650470 0.865414 2.085573
v 0.686028 0.865414 2.100302
v 0.700756 0.865414 2.135859
v -0.675615 0.974837 3.461944
v -0.700756 0.974666 3.436799
v -0.686028 0.974666 3.472357
v -0.650470 0.974666 3.487086
v -0.650470 0.865414 3.487086
v -0.686028 0.865414 3.472357
v -0.700756 0.865414 3.436799
v 0.675615 0.974837 3.461944
v 0.650470 0.974666 3.487086
v 0.686028 0.974666 3.472357
v 0.700756 0.974666 3.436799
v 0.700756 0.865414 3.436799
v 0.686028 0.865414 3.472357
v 0.650470 0.865414 3.487086
v -0.675615 0.771705 3.461944
v -0.650470 0.771876 3.487086
v -0.686028 0.771876 3.472357
v -0.700756 0.771876 3.436799
v -0.675615 0.771705 2.110715
v -0.700756 0.771876 2.135859
v -0.686028 0.771876 2.100302
v -0.650470 0.771876 2.085573
v 0.675615 0.771705 2.110715
v 0.650470 0.771876 2.085573
v 0.686028 0.771876 2.100302
v 0.700756 0.771876 2.135859
v 0.675615 0.771705 3.461944
v 0.700756 0.771876 3.436799
v 0.686028 0.771876 3.472357
v 0.650470 0.771876 3.487086
vt 0.375000 0.250000
vt 0.125000 0.250000
vt 0.375000 0.500000
vt 0.625000 0.500000
vt 0.375000 0.517191
vt 0.875000 0.232809
vt 0.875000 0.250000
vt 0.625000 0.250000
vt 0.125000 0.232809
vt 0.375000 0.250000
vt 0.125000 0.250000
vt 0.375000 0.500000
vt 0.625000 0.500000
vt 0.625000 0.517191
vt 0.875000 0.250000
vt 0.625000 0.250000
vt 0.375000 0.517191
vt 0.625000 0.517191
vt 0.125000 0.232809
vt 0.375000 0.232809
vt 0.875000 0.232809
vt 0.625000 0.232809
vt 0.125000 0.232809
vt 0.375000 0.232809
vt 0.625000 0.517191
vt 0.375000 0.517191
vt 0.875000 0.232809
vt 0.625000 0.232809
vt 0.383970 0.517191
vt 0.866030 0.232809
vt 0.366030 0.232809
vt 0.616030 0.232809
vt 0.133970 0.013504
vt 0.133970 0.232809
vt 0.616030 0.517191
vt 0.616030 0.736496
vt 0.633970 0.013504
vt 0.633970 0.232809
vt 0.383970 0.013504
vt 0.383970 0.232809
vt 0.366030 0.013504
vt 0.383970 0.736496
vt 0.866030 0.013504
vt 0.616030 0.013504
vt 0.125000 0.232809
vt 0.625000 0.517191
vt 0.375000 0.232809
vt 0.625000 0.232809
vt 0.375000 0.232809
vt 0.375000 0.517191
vt 0.875000 0.232809
vt 0.625000 0.232809
vt 0.133970 0.232809
vt 0.383970 0.517191
vt 0.616030 0.517191
vt 0.866030 0.232809
vt 0.383970 0.232809
vt 0.366030 0.232809
vt 0.633970 0.232809
vt 0.616030 0.232809
vt 0.125000 0.232809
vt 0.375000 0.517191
vt 0.375000 0.736496
vt 0.125000 0.013504
vt 0.125000 0.013504
vt 0.375000 0.736496
vt 0.625000 0.517191
vt 0.875000 0.232809
vt 0.875000 0.013504
vt 0.625000 0.736496
vt 0.625000 0.736496
vt 0.875000 0.013504
vt 0.375000 0.232809
vt 0.375000 0.013504
vt 0.375000 0.013504
vt 0.625000 0.232809
vt 0.625000 0.013504
vt 0.625000 0.013504
vt 0.375000 0.232809
vt 0.125000 0.232809
vt 0.375000 0.517191
vt 0.625000 0.517191
vt 0.875000 0.232809
vt 0.625000 0.232809
vn -1.000000 0.000000 0.000000
vn -1.000000 0.000000 0.000000
vn -1.000000 0.000000 0.000000
vn -1.000000 0.000000 0.000000
vn 0.000000 0.000000 -1.000000
vn 0.000000 0.000000 -1.000000
vn 0.000000 0.000000 -1.000000
vn 0.000000 0.000000 -1.000000
vn 1.000000 0.000000 0.000000
vn 1.000000 0.000000 0.000000
vn 1.000000 0.000000 0.000000
vn 1.000000 0.000000 0.000000
vn 0.000000 0.000000 1.000000
vn 0.000000 0.000000 1.000000
vn 0.000000 0.000000 1.000000
vn 0.000000 0.000000 1.000000
vn 0.000000 1.000000 0.000000
vn 0.000000 1.000000 0.000000
vn 0.000000 1.000000 0.000000
vn 0.000000 1.000000 0.000000
vn -1.000000 0.000000 0.000000
vn -1.000000 0.000000 0.000000
vn -1.000000 0.000000 0.000000
vn -1.000000 0.000000 0.000000
vn 0.000000 0.000000 -1.000000
vn 0.000000 0.000000 -1.000000
vn 0.000000 0.000000 -1.000000
vn 0.000000 0.000000 -1.000000
vn 1.000000 0.000000 0.000000
vn 1.000000 0.000000 0.000000
vn 1.000000 0.000000 0.000000
vn 1.000000 0.000000 0.000000
vn 0.000000 0.000000 1.000000
vn 0.000000 0.000000 1.000000
vn 0.000000 0.000000 1.000000
vn 0.000000 0.000000 1.000000
vn 0.000000 -1.000000 0.000000
vn 0.000000 -1.000000 0.000000
vn 0.000000 -1.000000 0.000000
vn 0.000000 -1.000000 0.000000
vn -0.003432 0.999988 -0.003431
vn -0.006822 0.999977 -0.000004
vn -0.006822 0.999977 0.000004
vn -0.003432 0.999988 0.003431
vn -0.006818 0.999977 0.000000
vn -0.006818 0.999977 0.000000
vn 0.003432 0.999988 -0.003431
vn 0.000004 0.999977 -0.006821
vn -0.000004 0.999977 -0.006821
vn 0.000000 0.999977 -0.006818
vn 0.000000 0.999977 -0.006818
vn -0.000004 0.999977 0.006821
vn 0.000004 0.999977 0.006821
vn 0.003432 0.999988 0.003431
vn 0.000000 0.999977 0.006818
vn 0.000000 0.999977 0.006818
vn 0.006822 0.999977 0.000004
vn 0.006822 0.999977 -0.000004
vn 0.006818 0.999977 0.000000
vn 0.006818 0.999977 0.000000
vn -0.000004 -0.999977 0.006822
vn -0.003432 -0.999988 0.003432
vn 0.000000 -0.999977 0.006818
vn 0.000000 -0.999977 0.006818
vn 0.003432 -0.999988 0.003432
vn 0.000004 -0.999977 0.006822
vn -0.006822 -0.999977 -0.000004
vn -0.003432 -0.999988 -0.003432
vn -0.006818 -0.999977 0.000000
vn -0.006818 -0.999977 0.000000
vn -0.006822 -0.999977 0.000004
vn 0.000004 -0.999977 -0.006822
vn 0.003432 -0.999988 -0.003432
vn 0.000000 -0.999977 -0.006818
vn 0.000000 -0.999977 -0.006818
vn -0.000004 -0.999977 -0.006822
vn 0.006822 -0.999977 0.000004
vn 0.006818 -0.999977 0.000000
vn 0.006818 -0.999977 0.000000
vn 0.006822 -0.999977 -0.000004
vn -0.999939 0.000000 -0.011019
vn -0.923879 0.000000 -0.382684
vn -0.923879 0.000000 -0.382684
vn -0.999939 0.000000 -0.011019
vn -0.382686 0.000000 -0.923878
vn -0.011020 0.000000 -0.999939
vn -0.011020 0.000000 -0.999939
vn -0.382686 0.000000 -0.923879
vn 0.011020 0.000000 -0.999939
vn 0.382686 0.000000 -0.923878
vn 0.382686 0.000000 -0.923879
vn 0.011020 0.000000 -0.999939
vn 0.923879 0.000000 -0.382684
vn 0.999939 0.000000 -0.011019
vn 0.999939 0.000000 -0.011019
vn 0.923879 0.000000 -0.382684
vn -0.011020 0.000000 0.999939
vn -0.382686 0.000000 0.923878
vn -0.382686 0.000000 0.923879
vn -0.011020 0.000000 0.999939
vn -0.923879 0.000000 0.382684
vn -0.999939 0.000000 0.011019
vn -0.999939 0.000000 0.011019
vn -0.923879 0.000000 0.382684
vn 0.999939 0.000000 0.011019
vn 0.923879 0.000000 0.382684
vn 0.923879 0.000000 0.382684
vn 0.999939 0.000000 0.011019
vn 0.382686 0.000000 0.923878
vn 0.011020 0.000000 0.999939
vn 0.011020 0.000000 0.999939
vn 0.382686 0.000000 0.923879
vn -0.999939 0.000000 -0.011019
vn -0.999939 0.000000 0.011019
vn -0.011020 0.000000 -0.999939
vn 0.011020 0.000000 -0.999939
vn 0.999939 0.000000 0.011019
vn 0.999939 0.000000 -0.011019
vn -0.011020 0.000000 0.999939
vn 0.011020 0.000000 0.999939
vn -0.008227 0.999932 -0.008227
vn 0.008227 0.999932 -0.008228
vn -0.008227 0.999932 0.008228
vn 0.008227 0.999932 0.008227
vn -0.008232 -0.999932 0.008232
vn -0.008232 -0.999932 -0.008232
vn 0.008232 -0.999932 -0.008232
vn 0.008232 -0.999932 0.008232
vn -0.923880 0.000000 -0.382684
vn -0.382685 0.000000 -0.923879
vn 0.382685 0.000000 -0.923879
vn 0.923880 0.000000 -0.382684
vn -0.382685 0.000000 0.923879
vn -0.923880 0.000000 0.382684
vn 0.923880 0.000000 0.382684
vn 0.382685 0.000000 0.923879
s off
g pCube8
usemtl initialShadingGroup
f 2/19/1 1/20/2 3/1/3 4/2/4
f 4/3/5 5/4/6 6/18/7 2/5/8
f 7/22/9 6/6/10 5/7/11 8/8/12
f 1/20/13 7/22/14 8/8/15 3/1/16
f 4/2/17 3/1/18 8/8/19 5/4/20
f 10/9/21 12/11/22 11/10/23 9/24/24
f 12/12/25 10/26/26 14/14/27 13/13/28
f 15/28/29 16/16/30 13/15/31 14/27/32
f 9/24/33 11/10/34 16/16/35 15/28/36
f 12/11/37 13/13/38 16/16/39 11/10/40
s 1
f 17/45/41 20/34/42 32/31/43 31/47/44 1/20/45 2/19/46
f 24/46/47 27/35/48 18/29/49 17/17/41 2/5/50 6/18/51
f 31/47/44 34/40/52 39/32/53 38/48/54 7/22/55 1/20/56
f 38/48/54 41/38/57 25/30/58 24/21/47 6/6/59 7/22/60
s 5
f 46/57/61 45/49/62 9/24/63 15/28/64 57/52/65 60/60/66
f 50/53/67 49/23/68 10/9/69 9/24/70 45/49/62 48/58/71
f 54/55/72 53/25/73 14/14/74 10/26/75 49/50/68 52/54/76
f 58/59/77 57/52/65 15/28/78 14/27/79 53/51/73 56/56/80
s 9
f 20/34/81 19/61/82 22/65/83 21/33/84
s 10
f 19/62/85 18/29/86 23/42/87 22/66/88
f 27/35/89 26/67/90 29/71/91 28/36/92
s 12
f 26/68/93 25/30/94 30/43/95 29/72/96
s 13
f 34/40/97 33/73/98 36/75/99 35/39/100
s 9
f 33/73/101 32/31/102 37/41/103 36/75/104
s 12
f 41/38/105 40/76/106 43/78/107 42/37/108
s 13
f 40/76/109 39/32/110 44/44/111 43/78/112
s 9
f 21/33/84 37/41/103 32/31/102 20/34/81
s 10
f 23/42/87 18/29/86 27/35/89 28/36/92
s 12
f 42/37/108 30/43/95 25/30/94 41/38/105
s 13
f 35/39/100 44/44/111 39/32/110 34/40/97
s 9
f 21/33/84 50/53/113 48/58/114 37/41/103
s 10
f 52/54/115 23/42/87 28/36/92 54/55/116
s 12
f 42/37/108 58/59/117 56/56/118 30/43/95
s 13
f 35/39/100 46/57/119 60/60/120 44/44/111
s 1
f 17/17/41 18/29/49 19/62/121
f 17/45/41 19/61/121 20/34/42
f 24/21/47 25/30/58 26/68/122
f 24/46/47 26/67/122 27/35/48
f 31/47/44 32/31/43 33/73/123
f 31/47/44 33/73/123 34/40/52
f 38/48/54 39/32/53 40/76/124
f 38/48/54 40/76/124 41/38/57
s 5
f 45/49/62 46/57/61 47/79/125
f 45/49/62 47/79/125 48/58/71
f 49/23/68 50/53/67 51/80/126
f 49/50/68 51/81/126 52/54/76
f 53/25/73 54/55/72 55/82/127
f 53/51/73 55/83/127 56/56/80
f 57/52/65 58/59/77 59/84/128
f 57/52/65 59/84/128 60/60/66
s 9
f 21/33/84 22/64/83 51/80/129 50/53/113
s 10
f 22/63/88 23/42/87 52/54/115 51/81/130
f 28/36/92 29/70/91 55/82/131 54/55/116
s 12
f 29/69/96 30/43/95 56/56/118 55/83/132
s 13
f 35/39/100 36/74/99 47/79/133 46/57/119
s 9
f 36/74/104 37/41/103 48/58/114 47/79/134
s 12
f 42/37/108 43/77/107 59/84/135 58/59/117
s 13
f 43/77/112 44/44/111 60/60/120 59/84/136
