# This file uses centimeters as units for non-parametric coordinates.

mtllib taller_nowindow.mtl
g default
v 2.790227 -1.046950 0.544927
v 4.227454 -1.046950 0.544927
v 2.790227 1.046950 0.544927
v 4.227454 1.046950 0.544927
v 2.790227 1.046950 -0.544927
v 4.227454 1.046950 -0.544927
v 2.790227 -1.046950 -0.544927
v 4.227454 -1.046950 -0.544927
vt 0.375000 0.000000
vt 0.625000 0.000000
vt 0.375000 0.250000
vt 0.625000 0.250000
vt 0.375000 0.500000
vt 0.625000 0.500000
vt 0.375000 0.750000
vt 0.625000 0.750000
vt 0.375000 1.000000
vt 0.625000 1.000000
vt 0.875000 0.000000
vt 0.875000 0.250000
vt 0.125000 0.000000
vt 0.125000 0.250000
vn 0.000000 0.000000 1.000000
vn 0.000000 0.000000 1.000000
vn 0.000000 0.000000 1.000000
vn 0.000000 0.000000 1.000000
vn 0.000000 1.000000 0.000000
vn 0.000000 1.000000 0.000000
vn 0.000000 1.000000 0.000000
vn 0.000000 1.000000 0.000000
vn 0.000000 0.000000 -1.000000
vn 0.000000 0.000000 -1.000000
vn 0.000000 0.000000 -1.000000
vn 0.000000 0.000000 -1.000000
vn 0.000000 -1.000000 0.000000
vn 0.000000 -1.000000 0.000000
vn 0.000000 -1.000000 0.000000
vn 0.000000 -1.000000 0.000000
vn 1.000000 0.000000 0.000000
vn 1.000000 0.000000 0.000000
vn 1.000000 0.000000 0.000000
vn 1.000000 0.000000 0.000000
vn -1.000000 0.000000 0.000000
vn -1.000000 0.000000 0.000000
vn -1.000000 0.000000 0.000000
vn -1.000000 0.000000 0.000000
s off
g pCube6
usemtl lambert3SG
f 1/1/1 2/2/2 4/4/3 3/3/4
f 3/3/5 4/4/6 6/6/7 5/5/8
f 5/5/9 6/6/10 8/8/11 7/7/12
f 7/7/13 8/8/14 2/10/15 1/9/16
f 2/2/17 8/11/18 6/12/19 4/4/20
f 7/13/21 1/1/22 3/3/23 5/14/24
g default
v 2.753188 1.037697 -0.565304
v 2.755452 1.037697 0.512359
v 4.264493 1.037697 0.510095
v 4.262229 1.037697 -0.567568
v 3.891535 1.546887 -0.028960
v 3.124996 1.546887 -0.027810
vt 0.500000 0.000000
vt 0.250000 0.250000
vt 0.500000 0.500000
vt 0.750000 0.250000
vt 0.250000 0.500000
vt 0.375000 0.500000
vt 0.500000 0.500000
vt 0.625000 0.500000
vt 0.750000 0.500000
vt 0.551658 0.749983
vt 0.399299 0.749967
vt 0.621093 0.749964
vn 0.000000 -1.000000 0.000000
vn 0.000000 -1.000000 0.000000
vn 0.000000 -1.000000 0.000000
vn 0.000000 -1.000000 0.000000
vn -0.808464 0.588543 0.001698
vn -0.808464 0.588543 0.001698
vn -0.808464 0.588543 0.001698
vn 0.001029 0.727313 0.686306
vn 0.001029 0.727313 0.686306
vn 0.001029 0.727313 0.686306
vn 0.001029 0.727313 0.686306
vn 0.807598 0.589731 -0.001696
vn 0.807598 0.589731 -0.001696
vn 0.807598 0.589731 -0.001696
vn -0.001031 0.726318 -0.687358
vn -0.001031 0.726318 -0.687358
vn -0.001031 0.726318 -0.687358
vn -0.001031 0.726318 -0.687358
s off
g pPyramid2
usemtl lambert4SG
f 9/15/25 12/18/26 11/17/27 10/16/28
f 9/19/29 10/20/30 14/25/31
f 10/20/32 11/21/33 13/24/34 14/25/35
f 11/21/36 12/22/37 13/24/38
f 12/22/39 9/23/40 14/26/41 13/24/42
