# This file uses centimeters as units for non-parametric coordinates.

v -0.500000 0.000000 0.229490
v 0.500000 0.000000 0.229490
v -0.500000 2.000000 0.229490
v 0.500000 2.000000 0.229490
v -0.500000 2.000000 -0.500000
v 0.500000 2.000000 -0.500000
v -0.500000 0.000000 -0.500000
v 0.500000 0.000000 -0.500000
v 0.309000 0.000000 0.229490
v 0.309000 0.000000 -0.500000
v 0.309000 2.000000 -0.500000
v 0.309000 2.000000 0.229490
v -0.309000 0.000000 0.229490
v -0.309000 2.000000 0.229490
v -0.309000 2.000000 -0.500000
v -0.309000 0.000000 -0.500000
v -0.500000 1.618035 0.229490
v 0.500000 1.618035 0.229490
v -0.500000 1.618035 -0.500000
v 0.500000 1.618035 -0.500000
v 0.309000 1.618035 0.229490
v 0.309000 1.618035 -0.500000
v -0.309000 1.618035 -0.500000
v -0.309000 1.618035 0.229490
v -0.500000 1.763933 -0.500000
v 0.500000 1.763933 -0.500000
v 0.309000 1.763933 -0.500000
v -0.309000 1.763933 -0.500000
v -0.500000 1.763933 0.229490
v 0.500000 1.763933 0.229490
v 0.000000 2.000000 -0.500000
v 0.000000 0.000000 0.229490
v 0.000000 2.000000 0.229490
v 0.000000 0.000000 -0.500000
v 0.000000 1.618035 -0.500000
v 0.000000 1.618035 0.229490
v 0.000000 1.763933 -0.500000
v 0.309000 1.763933 0.354102
v 0.309000 2.000000 0.354102
v 0.000000 2.000000 0.354102
v 0.000000 1.763933 0.354102
v -0.500000 0.000000 0.354102
v -0.309000 0.000000 0.354102
v -0.309000 1.618035 0.354102
v -0.500000 1.618035 0.354102
v 0.500000 1.763933 0.354102
v 0.500000 2.000000 0.354102
v -0.309000 1.763933 0.354102
v -0.500000 1.763933 0.354102
v 0.309000 1.618035 0.354102
v 0.500000 1.618035 0.354102
v 0.309000 0.000000 0.354102
v 0.500000 0.000000 0.354102
v 0.000000 1.618035 0.354102
v -0.309000 2.000000 0.354102
v -0.500000 2.000000 0.354102
v 0.309000 1.763933 0.500000
v 0.309000 2.000000 0.500000
v 0.000000 2.000000 0.500000
v 0.000000 1.763933 0.500000
v 0.500000 1.763933 0.500000
v 0.500000 2.000000 0.500000
v -0.309000 1.763933 0.500000
v -0.500000 1.763933 0.500000
v -0.309000 2.000000 0.500000
v -0.500000 2.000000 0.500000
vt 0.375000 0.000000
vt 0.625000 0.000000
vt 0.375000 0.250000
vt 0.625000 0.250000
vt 0.375000 0.500000
vt 0.625000 0.500000
vt 0.375000 0.750000
vt 0.625000 0.750000
vt 0.375000 1.000000
vt 0.625000 1.000000
vt 0.875000 0.000000
vt 0.875000 0.250000
vt 0.125000 0.000000
vt 0.125000 0.250000
vt 0.577250 0.000000
vt 0.577250 1.000000
vt 0.577250 0.750000
vt 0.577250 0.500000
vt 0.577250 0.250000
vt 0.422750 0.000000
vt 0.422750 1.000000
vt 0.422750 0.250000
vt 0.422750 0.500000
vt 0.422750 0.750000
vt 0.375000 0.154509
vt 0.625000 0.154509
vt 0.125000 0.154509
vt 0.375000 0.595491
vt 0.625000 0.595491
vt 0.875000 0.154509
vt 0.577250 0.154509
vt 0.577250 0.595491
vt 0.422750 0.595491
vt 0.422750 0.154509
vt 0.125000 0.190983
vt 0.375000 0.559017
vt 0.625000 0.559017
vt 0.875000 0.190983
vt 0.577250 0.559017
vt 0.422750 0.559017
vt 0.375000 0.190983
vt 0.625000 0.190983
vt 0.577250 0.190983
vt 0.422750 0.190983
vt 0.500000 0.500000
vt 0.500000 0.000000
vt 0.500000 1.000000
vt 0.500000 0.250000
vt 0.500000 0.750000
vt 0.500000 0.595491
vt 0.500000 0.154509
vt 0.500000 0.190983
vt 0.500000 0.559017
vt 0.577250 0.250000
vt 0.500000 0.250000
vt 0.375000 0.000000
vt 0.422750 0.000000
vt 0.422750 0.154509
vt 0.375000 0.154509
vt 0.625000 0.190983
vt 0.625000 0.250000
vt 0.375000 0.190983
vt 0.577250 0.154509
vt 0.577250 0.000000
vt 0.625000 0.000000
vt 0.625000 0.154509
vt 0.500000 0.154509
vt 0.422750 0.250000
vt 0.375000 0.250000
vt 0.577250 0.250000
vt 0.500000 0.250000
vt 0.500000 0.190983
vt 0.577250 0.190983
vt 0.625000 0.190983
vt 0.625000 0.250000
vt 0.375000 0.190983
vt 0.422750 0.190983
vt 0.422750 0.250000
vt 0.375000 0.250000
vn 0.000000 0.000000 1.000000
vn 0.000000 0.000000 1.000000
vn 0.000000 0.000000 1.000000
vn 0.000000 0.000000 1.000000
vn 0.000000 1.000000 0.000000
vn 0.000000 1.000000 0.000000
vn 0.000000 1.000000 0.000000
vn 0.000000 1.000000 0.000000
vn -0.000000 0.000000 -1.000000
vn -0.000000 0.000000 -1.000000
vn 0.000000 0.000000 -1.000000
vn 0.000000 0.000000 -1.000000
vn 0.000000 -1.000000 0.000000
vn 0.000000 -1.000000 0.000000
vn 0.000000 -1.000000 0.000000
vn 0.000000 -1.000000 0.000000
vn 1.000000 0.000000 0.000000
vn 1.000000 0.000000 0.000000
vn 1.000000 0.000000 0.000000
vn 1.000000 0.000000 0.000000
vn -1.000000 0.000000 0.000000
vn -1.000000 0.000000 0.000000
vn -1.000000 0.000000 0.000000
vn -1.000000 0.000000 0.000000
vn 0.000000 -1.000000 0.000000
vn 0.000000 -1.000000 0.000000
vn 0.000000 -1.000000 0.000000
vn 0.000000 -1.000000 0.000000
vn 0.000000 0.000000 -1.000000
vn 0.000000 0.000000 -1.000000
vn 0.000000 0.000000 -1.000000
vn 0.000000 0.000000 -1.000000
vn 0.000000 1.000000 0.000000
vn 0.000000 1.000000 0.000000
vn 0.000000 1.000000 0.000000
vn 0.000000 1.000000 0.000000
vn 0.000000 0.000000 1.000000
vn 0.000000 0.000000 1.000000
vn 0.000000 0.000000 1.000000
vn 0.000000 0.000000 1.000000
vn 0.000000 0.000000 1.000000
vn 0.000000 0.000000 1.000000
vn 0.000000 1.000000 0.000000
vn 0.000000 1.000000 0.000000
vn -0.000000 -0.000000 -1.000000
vn -0.000000 0.000000 -1.000000
vn 0.000000 -1.000000 0.000000
vn 0.000000 -1.000000 0.000000
vn 0.000000 0.000000 1.000000
vn 0.000000 0.000000 1.000000
vn 0.000000 0.000000 1.000000
vn 0.000000 0.000000 1.000000
vn -0.000000 -0.000000 -1.000000
vn 0.000000 -0.000000 -1.000000
vn 1.000000 0.000000 0.000000
vn 1.000000 0.000000 0.000000
vn -1.000000 0.000000 0.000000
vn -1.000000 0.000000 0.000000
vn 0.000000 0.000000 -1.000000
vn 0.000000 0.000000 -1.000000
vn 0.000000 0.000000 -1.000000
vn 0.000000 0.000000 -1.000000
vn 0.000000 0.000000 1.000000
vn 0.000000 0.000000 1.000000
vn 0.000000 0.000000 1.000000
vn 0.000000 0.000000 1.000000
vn 0.000000 0.000000 1.000000
vn 0.000000 0.000000 1.000000
vn -0.000000 -0.000000 -1.000000
vn 0.000000 0.000000 1.000000
vn 0.000000 0.000000 1.000000
vn 0.000000 0.000000 1.000000
vn 0.000000 0.000000 1.000000
vn 0.000000 0.000000 -1.000000
vn 1.000000 0.000000 0.000000
vn 1.000000 0.000000 0.000000
vn -1.000000 0.000000 0.000000
vn -1.000000 0.000000 0.000000
vn 0.000000 0.000000 1.000000
vn 0.000000 0.000000 1.000000
vn 0.000000 0.000000 1.000000
vn 0.000000 0.000000 1.000000
vn 0.000000 0.000000 -1.000000
vn 0.000000 0.000000 -1.000000
vn 0.000000 0.000000 1.000000
vn 0.000000 0.000000 1.000000
vn 0.000000 1.000000 0.000000
vn 0.000000 1.000000 0.000000
vn 0.000000 -1.000000 0.000000
vn 0.000000 -1.000000 0.000000
vn 1.000000 0.000000 0.000000
vn 1.000000 0.000000 0.000000
vn 1.000000 0.000000 0.000000
vn 1.000000 0.000000 0.000000
vn -1.000000 0.000000 0.000000
vn -1.000000 0.000000 0.000000
vn 1.000000 0.000000 0.000000
vn 1.000000 0.000000 0.000000
vn 0.000000 1.000000 0.000000
vn -1.000000 0.000000 0.000000
vn -1.000000 0.000000 0.000000
vn -1.000000 0.000000 0.000000
vn -1.000000 0.000000 0.000000
vn -1.000000 0.000000 0.000000
vn 0.000000 -1.000000 0.000000
vn 0.000000 -1.000000 0.000000
vn 1.000000 0.000000 0.000000
vn 1.000000 0.000000 0.000000
vn 0.000000 -1.000000 0.000000
vn 0.000000 -1.000000 0.000000
vn 0.000000 -1.000000 0.000000
vn 0.000000 -1.000000 0.000000
vn 0.000000 1.000000 0.000000
vn 0.000000 1.000000 0.000000
vn -1.000000 0.000000 0.000000
vn 0.000000 -1.000000 0.000000
vn 0.000000 -1.000000 0.000000
vn 0.000000 1.000000 0.000000
vn 0.000000 1.000000 0.000000
vn 0.000000 -1.000000 0.000000
vn 0.000000 -1.000000 0.000000
vn 0.000000 -1.000000 0.000000
vn 0.000000 -1.000000 0.000000
vn 0.000000 -1.000000 0.000000
vn 0.000000 -1.000000 0.000000
vn 1.000000 0.000000 0.000000
vn 1.000000 0.000000 0.000000
vn 0.000000 1.000000 0.000000
vn 0.000000 -1.000000 0.000000
vn 0.000000 -1.000000 0.000000
vn 0.000000 -1.000000 0.000000
vn 0.000000 -1.000000 0.000000
vn 0.000000 1.000000 0.000000
vn 0.000000 1.000000 0.000000
vn -1.000000 0.000000 0.000000
vn -1.000000 0.000000 0.000000
f 57/73/1 58/70/2 59/71/3 60/72/4
f 12/19/5 11/18/6 31/45/7 33/48/8
f 22/32/9 10/17/10 34/49/11 35/50/12
f 10/17/13 9/16/14 32/47/15 34/49/16
f 2/2/17 8/11/18 20/30/19 18/26/20
f 7/13/21 1/1/22 17/25/23 19/27/24
f 7/7/25 16/24/26 13/21/27 1/9/28
f 5/5/29 15/23/30 28/40/31 25/36/32
f 3/3/33 14/22/34 15/23/35 5/5/36
f 42/56/37 43/57/38 44/58/39 45/59/40
f 58/70/2 57/73/1 61/74/41 62/75/42
f 11/18/6 12/19/5 4/4/43 6/6/44
f 10/17/10 22/32/9 20/29/45 8/8/46
f 9/16/14 10/17/13 8/8/47 2/10/48
f 9/15/49 21/31/50 36/51/51 32/46/52
f 27/39/53 22/32/9 35/50/12 37/53/54
f 18/26/20 20/30/19 26/38/55 30/42/56
f 19/27/24 17/25/23 29/41/57 25/35/58
f 19/28/59 23/33/60 16/24/61 7/7/62
f 45/59/40 44/58/39 48/44/63 49/62/64
f 51/66/65 50/63/66 52/64/67 53/65/68
f 20/29/45 22/32/9 27/39/53 26/37/69
f 50/63/66 38/43/70 41/52/71 54/67/72
f 25/36/32 28/40/31 23/33/60 19/28/59
f 46/60/73 38/43/70 50/63/66 51/66/65
f 15/23/30 31/45/74 37/53/54 28/40/31
f 30/42/56 26/38/55 6/12/75 4/4/76
f 25/35/58 29/41/57 3/3/77 5/14/78
f 64/76/79 63/77/80 65/78/81 66/79/82
f 26/37/69 27/39/53 11/18/83 6/6/84
f 60/72/4 59/71/3 65/78/81 63/77/80
f 33/48/8 31/45/7 15/23/35 14/22/34
f 35/50/12 34/49/11 16/24/61 23/33/60
f 34/49/16 32/47/15 13/21/27 16/24/26
f 32/46/52 36/51/51 24/34/85 13/20/86
f 37/53/54 35/50/12 23/33/60 28/40/31
f 54/67/72 41/52/71 48/44/63 44/58/39
f 37/53/54 31/45/74 11/18/83 27/39/53
f 12/19/5 33/48/8 40/55/87 39/54/88
f 1/1/28 13/20/27 43/57/89 42/56/90
f 13/20/91 24/34/92 44/58/93 43/57/94
f 17/25/23 1/1/22 42/56/95 45/59/96
f 30/42/56 4/4/76 47/61/97 46/60/98
f 4/4/43 12/19/5 39/54/88 47/61/99
f 29/41/57 17/25/23 45/59/96 49/62/100
f 21/31/101 9/15/102 52/64/103 50/63/104
f 9/15/14 2/2/48 53/65/105 52/64/106
f 2/2/17 18/26/20 51/66/107 53/65/108
f 36/51/109 21/31/110 50/63/111 54/67/112
f 18/26/20 30/42/56 46/60/98 51/66/107
f 14/22/34 3/3/33 56/69/113 55/68/114
f 3/3/77 29/41/57 49/62/100 56/69/115
f 33/48/8 14/22/34 55/68/114 40/55/87
f 24/34/116 36/51/109 54/67/112 44/58/117
f 39/54/88 40/55/87 59/71/118 58/70/119
f 41/52/120 38/43/121 57/73/122 60/72/123
f 38/43/121 46/60/124 61/74/125 57/73/122
f 46/60/98 47/61/97 62/75/126 61/74/127
f 47/61/99 39/54/88 58/70/119 62/75/128
f 49/62/129 48/44/130 63/77/131 64/76/132
f 55/68/114 56/69/113 66/79/133 65/78/134
f 56/69/115 49/62/100 64/76/135 66/79/136
f 40/55/87 55/68/114 65/78/134 59/71/118
f 48/44/130 41/52/120 60/72/123 63/77/131
