# This file uses centimeters as units for non-parametric coordinates.

v -0.500000 1.000000 0.354000
v 0.500000 1.000000 0.354000
v -0.500000 2.000000 0.354000
v 0.500000 2.000000 0.354000
v -0.500000 2.000000 -0.500000
v 0.500000 2.000000 -0.500000
v -0.500000 1.000000 -0.500000
v 0.500000 1.000000 -0.500000
v -0.500000 1.763933 -0.500000
v 0.500000 1.763933 -0.500000
v -0.500000 1.763933 0.354000
v 0.500000 1.763933 0.354000
v 0.500000 1.763933 0.500000
v 0.500000 2.000000 0.500000
v -0.500000 1.763933 0.500000
v -0.500000 2.000000 0.500000
v -0.500000 0.000000 0.354000
v 0.500000 0.000000 0.354000
v -0.500000 1.000000 0.354000
v 0.500000 1.000000 0.354000
v -0.500000 1.000000 -0.500000
v 0.500000 1.000000 -0.500000
v -0.500000 0.000000 -0.500000
v 0.500000 0.000000 -0.500000
v -0.500000 0.382000 0.354000
v 0.500000 0.382000 0.354000
v -0.500000 0.382000 -0.500000
v 0.500000 0.382000 -0.500000
v -0.500000 0.000000 0.444233
v 0.500000 0.000000 0.444233
v 0.500000 0.382000 0.444233
v -0.500000 0.382000 0.444233
vt 0.375000 0.000000
vt 0.625000 0.000000
vt 0.375000 0.250000
vt 0.625000 0.250000
vt 0.375000 0.500000
vt 0.625000 0.500000
vt 0.375000 0.750000
vt 0.625000 0.750000
vt 0.375000 1.000000
vt 0.625000 1.000000
vt 0.875000 0.000000
vt 0.875000 0.250000
vt 0.125000 0.000000
vt 0.125000 0.250000
vt 0.125000 0.190983
vt 0.375000 0.559017
vt 0.625000 0.559017
vt 0.875000 0.190983
vt 0.375000 0.190983
vt 0.625000 0.190983
vt 0.625000 0.190983
vt 0.625000 0.250000
vt 0.375000 0.190983
vt 0.375000 0.250000
vt 0.375000 0.000000
vt 0.625000 0.000000
vt 0.625000 0.095500
vt 0.375000 0.095500
vt 0.375000 0.250000
vt 0.625000 0.250000
vt 0.625000 0.500000
vt 0.375000 0.500000
vt 0.625000 0.654500
vt 0.375000 0.654500
vt 0.375000 0.750000
vt 0.625000 0.750000
vt 0.625000 1.000000
vt 0.375000 1.000000
vt 0.625000 0.000000
vt 0.875000 0.000000
vt 0.875000 0.095500
vt 0.625000 0.095500
vt 0.125000 0.000000
vt 0.375000 0.000000
vt 0.375000 0.095500
vt 0.125000 0.095500
vt 0.875000 0.250000
vt 0.125000 0.250000
vn 1.000000 0.000000 0.000000
vn 1.000000 0.000000 0.000000
vn 1.000000 0.000000 0.000000
vn 1.000000 0.000000 0.000000
vn -1.000000 0.000000 0.000000
vn -1.000000 0.000000 0.000000
vn -1.000000 0.000000 0.000000
vn -1.000000 0.000000 0.000000
vn 0.000000 -1.000000 0.000000
vn 0.000000 -1.000000 0.000000
vn 0.000000 -1.000000 0.000000
vn 0.000000 -1.000000 0.000000
vn 0.000000 0.000000 -1.000000
vn 0.000000 0.000000 -1.000000
vn 0.000000 0.000000 -1.000000
vn 0.000000 0.000000 -1.000000
vn 0.000000 1.000000 0.000000
vn 0.000000 1.000000 0.000000
vn 0.000000 1.000000 0.000000
vn 0.000000 1.000000 0.000000
vn 0.000000 0.000000 1.000000
vn 0.000000 0.000000 1.000000
vn 0.000000 0.000000 1.000000
vn 0.000000 0.000000 1.000000
vn 0.000000 0.000000 -1.000000
vn 0.000000 0.000000 -1.000000
vn 1.000000 0.000000 0.000000
vn 1.000000 0.000000 0.000000
vn -1.000000 0.000000 0.000000
vn -1.000000 0.000000 0.000000
vn 0.000000 0.000000 1.000000
vn 0.000000 0.000000 1.000000
vn 0.000000 0.000000 1.000000
vn 0.000000 0.000000 1.000000
vn 1.000000 0.000000 0.000000
vn 1.000000 0.000000 0.000000
vn 0.000000 1.000000 0.000000
vn 0.000000 1.000000 0.000000
vn 0.000000 -1.000000 0.000000
vn 0.000000 -1.000000 0.000000
vn 0.000000 -1.000000 0.000000
vn 0.000000 -1.000000 0.000000
vn -1.000000 0.000000 0.000000
vn -1.000000 0.000000 0.000000
vn 0.000000 0.000000 1.000000
vn 0.000000 0.000000 1.000000
vn 0.000000 0.000000 1.000000
vn 0.000000 0.000000 1.000000
vn 0.000000 1.000000 0.000000
vn 0.000000 1.000000 0.000000
vn 0.000000 1.000000 0.000000
vn 0.000000 1.000000 0.000000
vn 0.000000 0.000000 -1.000000
vn 0.000000 0.000000 -1.000000
vn 0.000000 0.000000 -1.000000
vn 0.000000 0.000000 -1.000000
vn 0.000000 -1.000000 0.000000
vn 0.000000 -1.000000 0.000000
vn 0.000000 -1.000000 0.000000
vn 0.000000 -1.000000 0.000000
vn 1.000000 0.000000 0.000000
vn 1.000000 0.000000 0.000000
vn 1.000000 0.000000 0.000000
vn 1.000000 0.000000 0.000000
vn -1.000000 0.000000 0.000000
vn -1.000000 0.000000 0.000000
vn -1.000000 0.000000 0.000000
vn -1.000000 0.000000 0.000000
vn 0.000000 0.000000 1.000000
vn 0.000000 0.000000 1.000000
vn 0.000000 0.000000 1.000000
vn 0.000000 0.000000 1.000000
vn 0.000000 0.000000 -1.000000
vn 0.000000 0.000000 -1.000000
vn 1.000000 0.000000 0.000000
vn 1.000000 0.000000 0.000000
vn -1.000000 0.000000 0.000000
vn -1.000000 0.000000 0.000000
vn 0.000000 -1.000000 0.000000
vn 0.000000 -1.000000 0.000000
vn 1.000000 0.000000 0.000000
vn 1.000000 0.000000 0.000000
vn 0.000000 1.000000 0.000000
vn 0.000000 1.000000 0.000000
vn 0.000000 1.000000 0.000000
vn 0.000000 1.000000 0.000000
vn -1.000000 0.000000 0.000000
vn -1.000000 0.000000 0.000000
f 2/2/1 8/11/2 10/18/3 12/20/4
f 7/13/5 1/1/6 11/19/7 9/15/8
f 1/9/9 7/7/10 8/8/11 2/10/12
f 9/16/13 5/5/14 6/6/15 10/17/16
f 5/5/17 3/3/18 4/4/19 6/6/20
f 11/19/21 1/1/22 2/2/23 12/20/24
f 8/8/25 7/7/26 9/16/13 10/17/16
f 12/20/4 10/18/3 6/12/27 4/4/28
f 9/15/8 11/19/7 3/3/29 5/14/30
f 16/24/31 15/23/32 13/21/33 14/22/34
f 12/20/4 4/4/28 14/22/35 13/21/36
f 16/24/37 14/22/38 4/4/19 3/3/18
f 15/23/39 11/19/40 12/20/41 13/21/42
f 3/3/29 11/19/7 15/23/43 16/24/44
f 29/25/45 30/26/46 31/27/47 32/28/48
f 19/29/49 20/30/50 22/31/51 21/32/52
f 21/32/53 22/31/54 28/33/55 27/34/56
f 23/35/57 24/36/58 18/37/59 17/38/60
f 18/39/61 24/40/62 28/41/63 26/42/64
f 23/43/65 17/44/66 25/45/67 27/46/68
f 25/45/69 26/42/70 20/30/71 19/29/72
f 27/34/56 28/33/55 24/36/73 23/35/74
f 26/42/64 28/41/63 22/47/75 20/30/76
f 27/46/68 25/45/67 19/29/77 21/48/78
f 17/44/60 18/39/59 30/26/79 29/25/80
f 18/39/61 26/42/64 31/27/81 30/26/82
f 26/42/83 25/45/84 32/28/85 31/27/86
f 25/45/67 17/44/66 29/25/87 32/28/88
