# This file uses centimeters as units for non-parametric coordinates.

v -0.500000 0.146000 0.881966
v 0.881966 0.146000 0.881966
v -0.500000 0.381966 0.881966
v 0.881966 0.381966 0.881966
v -0.500000 0.381966 -0.500000
v 0.881966 0.381966 -0.500000
v -0.500000 0.146000 -0.500000
v 0.881966 0.146000 -0.500000
v 0.736068 0.146000 0.881966
v 0.736068 0.381966 0.881966
v 0.736068 0.381966 -0.500000
v 0.736068 0.146000 -0.500000
v -0.500000 0.381966 0.736068
v 0.881966 0.381966 0.736068
v -0.500000 0.146000 0.736068
v 0.881966 0.146000 0.736068
v 0.736068 0.381966 0.736068
v 0.736068 0.146000 0.736068
v -0.500000 0.000000 -0.500000
v 0.736068 0.000000 -0.500000
v 0.736068 0.000000 0.736068
v -0.500000 0.000000 0.736068
vt 0.375000 0.000000
vt 0.625000 0.000000
vt 0.375000 0.250000
vt 0.625000 0.250000
vt 0.375000 0.500000
vt 0.625000 0.500000
vt 0.375000 0.750000
vt 0.625000 0.750000
vt 0.375000 1.000000
vt 0.625000 1.000000
vt 0.875000 0.000000
vt 0.875000 0.250000
vt 0.125000 0.000000
vt 0.125000 0.250000
vt 0.598607 0.000000
vt 0.598607 1.000000
vt 0.598607 0.250000
vt 0.598607 0.500000
vt 0.598607 0.750000
vt 0.348607 0.250000
vt 0.375000 0.276393
vt 0.625000 0.276393
vt 0.651393 0.250000
vt 0.348607 0.000000
vt 0.375000 0.973607
vt 0.625000 0.973607
vt 0.651393 0.000000
vt 0.598607 0.276393
vt 0.598607 0.973607
vt 0.375000 0.750000
vt 0.598607 0.750000
vt 0.598607 0.973607
vt 0.375000 0.973607
vn 0.000000 0.000000 1.000000
vn 0.000000 0.000000 1.000000
vn 0.000000 0.000000 1.000000
vn 0.000000 0.000000 1.000000
vn 0.000000 1.000000 0.000000
vn 0.000000 1.000000 0.000000
vn 0.000000 1.000000 0.000000
vn 0.000000 1.000000 0.000000
vn 0.000000 0.000000 -1.000000
vn 0.000000 0.000000 -1.000000
vn 0.000000 0.000000 -1.000000
vn 0.000000 0.000000 -1.000000
vn 0.000000 -1.000000 0.000000
vn 0.000000 -1.000000 0.000000
vn 0.000000 -1.000000 0.000000
vn 0.000000 -1.000000 0.000000
vn 1.000000 0.000000 0.000000
vn 1.000000 0.000000 0.000000
vn 1.000000 0.000000 0.000000
vn 1.000000 0.000000 0.000000
vn -1.000000 0.000000 0.000000
vn -1.000000 0.000000 0.000000
vn -1.000000 0.000000 0.000000
vn -1.000000 0.000000 0.000000
vn 0.000000 0.000000 1.000000
vn 0.000000 0.000000 1.000000
vn 0.000000 1.000000 0.000000
vn 0.000000 1.000000 0.000000
vn 0.000000 1.000000 0.000000
vn 0.000000 0.000000 -1.000000
vn 0.000000 0.000000 -1.000000
vn 0.000000 -1.000000 0.000000
vn 0.000000 -1.000000 0.000000
vn 0.000000 -1.000000 0.000000
vn 0.000000 -1.000000 0.000000
vn 0.000000 1.000000 0.000000
vn 0.000000 -1.000000 0.000000
vn 0.000000 -1.000000 0.000000
vn 1.000000 0.000000 0.000000
vn 1.000000 0.000000 0.000000
vn -1.000000 0.000000 0.000000
vn -1.000000 0.000000 0.000000
vn 0.000000 1.000000 0.000000
vn 0.000000 -1.000000 0.000000
vn 0.000000 -1.000000 0.000000
vn 0.000000 0.000000 -1.000000
vn 0.000000 0.000000 -1.000000
vn 1.000000 0.000000 0.000000
vn 1.000000 0.000000 0.000000
vn 1.000000 0.000000 0.000000
vn 1.000000 0.000000 0.000000
vn 0.000000 0.000000 1.000000
vn 0.000000 0.000000 1.000000
vn 0.000000 0.000000 1.000000
vn 0.000000 0.000000 1.000000
vn -1.000000 0.000000 0.000000
vn -1.000000 0.000000 0.000000
f 1/1/1 9/15/2 10/17/3 3/3/4
f 3/3/5 10/17/6 17/28/7 13/21/8
f 7/7/9 5/5/10 11/18/11 12/19/12
f 19/30/13 20/31/14 21/32/15 22/33/16
f 4/4/17 2/2/18 16/27/19 14/23/20
f 7/13/21 15/24/22 13/20/23 5/14/24
f 10/17/3 9/15/2 2/2/25 4/4/26
f 11/18/27 17/28/7 14/22/28 6/6/29
f 12/19/12 11/18/11 6/6/30 8/8/31
f 9/16/32 18/29/33 16/26/34 2/10/35
f 13/21/8 17/28/7 11/18/27 5/5/36
f 15/25/37 18/29/33 9/16/32 1/9/38
f 14/23/20 16/27/19 8/11/39 6/12/40
f 13/20/23 15/24/22 1/1/41 3/3/42
f 14/22/28 17/28/7 10/17/6 4/4/43
f 16/26/34 18/29/33 12/19/44 8/8/45
f 7/7/9 12/19/12 20/31/46 19/30/47
f 12/19/48 18/29/49 21/32/50 20/31/51
f 18/29/52 15/25/53 22/33/54 21/32/55
f 15/25/22 7/7/21 19/30/56 22/33/57
