# This file uses centimeters as units for non-parametric coordinates.

v -0.500000 1.000000 0.354000
v 0.354000 1.000000 0.354000
v -0.500000 2.000000 0.354000
v 0.354000 2.000000 0.354000
v -0.500000 2.000000 -0.500000
v 0.354000 2.000000 -0.500000
v -0.500000 1.000000 -0.500000
v 0.354000 1.000000 -0.500000
v -0.500000 1.763933 -0.500000
v 0.354000 1.763933 -0.500000
v -0.500000 1.763933 0.354000
v 0.354000 1.763933 0.354000
v 0.354000 1.763933 0.500000
v 0.354000 2.000000 0.500000
v -0.500000 1.763933 0.500000
v -0.500000 2.000000 0.500000
v 0.500000 1.763933 -0.500000
v 0.500000 1.763933 0.354000
v 0.500000 2.000000 -0.500000
v 0.500000 2.000000 0.354000
v 0.500000 2.000000 0.500000
v 0.500000 1.763933 0.500000
v -0.500000 0.000000 0.354000
v 0.354000 0.000000 0.354000
v -0.500000 1.000000 0.354000
v 0.354000 1.000000 0.354000
v -0.500000 1.000000 -0.500000
v 0.354000 1.000000 -0.500000
v -0.500000 0.000000 -0.500000
v 0.354000 0.000000 -0.500000
v -0.500000 0.382000 0.354000
v 0.354000 0.382000 0.354000
v -0.500000 0.382000 -0.500000
v 0.354000 0.382000 -0.500000
v -0.500000 0.000000 0.444233
v 0.354000 0.000000 0.444233
v 0.354000 0.382000 0.444233
v -0.500000 0.382000 0.444233
v 0.444000 0.000000 -0.500000
v 0.444000 0.000000 0.354000
v 0.444000 0.382000 -0.500000
v 0.444000 0.382000 0.354000
v 0.444000 0.382000 0.444233
v 0.444000 0.000000 0.444233
vt 0.375000 0.000000
vt 0.625000 0.000000
vt 0.375000 0.250000
vt 0.625000 0.250000
vt 0.375000 0.500000
vt 0.625000 0.500000
vt 0.375000 0.750000
vt 0.625000 0.750000
vt 0.375000 1.000000
vt 0.625000 1.000000
vt 0.875000 0.000000
vt 0.875000 0.250000
vt 0.125000 0.000000
vt 0.125000 0.250000
vt 0.125000 0.190983
vt 0.375000 0.559017
vt 0.625000 0.559017
vt 0.875000 0.190983
vt 0.375000 0.190983
vt 0.625000 0.190983
vt 0.625000 0.190983
vt 0.625000 0.250000
vt 0.375000 0.190983
vt 0.375000 0.250000
vt 0.625000 0.190983
vt 0.875000 0.190983
vt 0.875000 0.250000
vt 0.625000 0.250000
vt 0.625000 0.250000
vt 0.625000 0.190983
vt 0.375000 0.000000
vt 0.625000 0.000000
vt 0.625000 0.095500
vt 0.375000 0.095500
vt 0.375000 0.250000
vt 0.625000 0.250000
vt 0.625000 0.500000
vt 0.375000 0.500000
vt 0.625000 0.654500
vt 0.375000 0.654500
vt 0.375000 0.750000
vt 0.625000 0.750000
vt 0.625000 1.000000
vt 0.375000 1.000000
vt 0.625000 0.000000
vt 0.875000 0.000000
vt 0.875000 0.095500
vt 0.625000 0.095500
vt 0.125000 0.000000
vt 0.375000 0.000000
vt 0.375000 0.095500
vt 0.125000 0.095500
vt 0.625000 0.095500
vt 0.875000 0.095500
vt 0.875000 0.250000
vt 0.125000 0.250000
vt 0.625000 0.000000
vt 0.625000 0.095500
vt 0.625000 0.000000
vt 0.875000 0.000000
vn 1.000000 0.000000 0.000000
vn 1.000000 0.000000 0.000000
vn 1.000000 0.000000 0.000000
vn 1.000000 0.000000 0.000000
vn -1.000000 0.000000 0.000000
vn -1.000000 0.000000 0.000000
vn -1.000000 0.000000 0.000000
vn -1.000000 0.000000 0.000000
vn 0.000000 -1.000000 0.000000
vn 0.000000 -1.000000 0.000000
vn 0.000000 -1.000000 0.000000
vn 0.000000 -1.000000 0.000000
vn 0.000000 0.000000 -1.000000
vn 0.000000 0.000000 -1.000000
vn 0.000000 0.000000 -1.000000
vn 0.000000 0.000000 -1.000000
vn 0.000000 1.000000 0.000000
vn 0.000000 1.000000 0.000000
vn 0.000000 1.000000 0.000000
vn 0.000000 1.000000 0.000000
vn 0.000000 0.000000 1.000000
vn 0.000000 0.000000 1.000000
vn 0.000000 0.000000 1.000000
vn 0.000000 0.000000 1.000000
vn 0.000000 0.000000 -1.000000
vn 0.000000 0.000000 -1.000000
vn 1.000000 0.000000 0.000000
vn 1.000000 0.000000 0.000000
vn 1.000000 0.000000 0.000000
vn 1.000000 0.000000 0.000000
vn -1.000000 0.000000 0.000000
vn -1.000000 0.000000 0.000000
vn 0.000000 0.000000 1.000000
vn 0.000000 0.000000 1.000000
vn 0.000000 0.000000 1.000000
vn 0.000000 0.000000 1.000000
vn 1.000000 0.000000 0.000000
vn 1.000000 0.000000 0.000000
vn 0.000000 1.000000 0.000000
vn 0.000000 1.000000 0.000000
vn 0.000000 -1.000000 0.000000
vn 0.000000 -1.000000 0.000000
vn 0.000000 -1.000000 0.000000
vn 0.000000 -1.000000 0.000000
vn -1.000000 0.000000 0.000000
vn -1.000000 0.000000 0.000000
vn 0.000000 -1.000000 0.000000
vn 0.000000 -1.000000 0.000000
vn 0.000000 -1.000000 0.000000
vn 0.000000 0.000000 -1.000000
vn 0.000000 0.000000 -1.000000
vn 0.000000 1.000000 0.000000
vn 0.000000 1.000000 0.000000
vn 0.000000 1.000000 0.000000
vn 0.000000 0.000000 1.000000
vn 0.000000 0.000000 1.000000
vn 0.000000 -1.000000 0.000000
vn 0.000000 0.000000 1.000000
vn 0.000000 0.000000 1.000000
vn 0.000000 0.000000 1.000000
vn 0.000000 0.000000 1.000000
vn 0.000000 1.000000 0.000000
vn 0.000000 1.000000 0.000000
vn 0.000000 1.000000 0.000000
vn 0.000000 1.000000 0.000000
vn 0.000000 0.000000 -1.000000
vn 0.000000 0.000000 -1.000000
vn 0.000000 0.000000 -1.000000
vn 0.000000 0.000000 -1.000000
vn 0.000000 -1.000000 0.000000
vn 0.000000 -1.000000 0.000000
vn 0.000000 -1.000000 0.000000
vn 0.000000 -1.000000 0.000000
vn 1.000000 0.000000 0.000000
vn 1.000000 0.000000 0.000000
vn 1.000000 0.000000 0.000000
vn 1.000000 0.000000 0.000000
vn -1.000000 0.000000 0.000000
vn -1.000000 0.000000 0.000000
vn -1.000000 0.000000 0.000000
vn -1.000000 0.000000 0.000000
vn 0.000000 0.000000 1.000000
vn 0.000000 0.000000 1.000000
vn 0.000000 0.000000 1.000000
vn 0.000000 0.000000 1.000000
vn 0.000000 0.000000 -1.000000
vn 0.000000 0.000000 -1.000000
vn 1.000000 0.000000 0.000000
vn 1.000000 0.000000 0.000000
vn 1.000000 0.000000 0.000000
vn 1.000000 0.000000 0.000000
vn -1.000000 0.000000 0.000000
vn -1.000000 0.000000 0.000000
vn 0.000000 -1.000000 0.000000
vn 0.000000 -1.000000 0.000000
vn 1.000000 0.000000 0.000000
vn 1.000000 0.000000 0.000000
vn 0.000000 1.000000 0.000000
vn 0.000000 1.000000 0.000000
vn 0.000000 1.000000 0.000000
vn 0.000000 1.000000 0.000000
vn -1.000000 0.000000 0.000000
vn -1.000000 0.000000 0.000000
vn 0.000000 -1.000000 0.000000
vn 0.000000 -1.000000 0.000000
vn 0.000000 0.000000 -1.000000
vn 0.000000 0.000000 -1.000000
vn 0.000000 1.000000 0.000000
vn 0.000000 1.000000 0.000000
vn 0.000000 1.000000 0.000000
vn 0.000000 1.000000 0.000000
vn 0.000000 0.000000 1.000000
vn 0.000000 0.000000 1.000000
vn 0.000000 -1.000000 0.000000
f 2/2/1 8/11/2 10/18/3 12/20/4
f 7/13/5 1/1/6 11/19/7 9/15/8
f 1/9/9 7/7/10 8/8/11 2/10/12
f 9/16/13 5/5/14 6/6/15 10/17/16
f 5/5/17 3/3/18 4/4/19 6/6/20
f 11/19/21 1/1/22 2/2/23 12/20/24
f 8/8/25 7/7/26 9/16/13 10/17/16
f 18/25/27 17/26/28 19/27/29 20/28/30
f 9/15/8 11/19/7 3/3/31 5/14/32
f 16/24/33 15/23/34 13/21/35 14/22/36
f 18/25/27 20/28/30 21/29/37 22/30/38
f 16/24/39 14/22/40 4/4/19 3/3/18
f 15/23/41 11/19/42 12/20/43 13/21/44
f 3/3/31 11/19/7 15/23/45 16/24/46
f 12/20/43 10/18/47 17/26/48 18/25/49
f 10/18/16 6/12/15 19/27/50 17/26/51
f 6/12/20 4/4/19 20/28/52 19/27/53
f 4/4/19 14/22/40 21/29/54 20/28/52
f 14/22/36 13/21/35 22/30/55 21/29/56
f 13/21/44 12/20/43 18/25/49 22/30/57
f 35/31/58 36/32/59 37/33/60 38/34/61
f 25/35/62 26/36/63 28/37/64 27/38/65
f 27/38/66 28/37/67 34/39/68 33/40/69
f 29/41/70 30/42/71 24/43/72 23/44/73
f 40/45/74 39/46/75 41/47/76 42/48/77
f 29/49/78 23/50/79 31/51/80 33/52/81
f 31/51/82 32/53/83 26/36/84 25/35/85
f 33/40/69 34/39/68 30/42/86 29/41/87
f 32/53/88 34/54/89 28/55/90 26/36/91
f 33/52/81 31/51/80 25/35/92 27/56/93
f 23/50/73 24/57/72 36/32/94 35/31/95
f 40/45/74 42/48/77 43/58/96 44/59/97
f 32/53/98 31/51/99 38/34/100 37/33/101
f 31/51/80 23/50/79 35/31/102 38/34/103
f 24/57/72 30/60/71 39/46/104 40/45/105
f 30/60/86 34/54/68 41/47/106 39/46/107
f 34/54/108 32/53/98 42/48/109 41/47/110
f 32/53/98 37/33/101 43/58/111 42/48/109
f 37/33/60 36/32/59 44/59/112 43/58/113
f 36/32/94 24/57/72 40/45/105 44/59/114
