# This file uses centimeters as units for non-parametric coordinates.

v -0.500000 0.764000 0.500000
v 0.500000 0.764000 0.500000
v -0.500000 1.000000 0.500000
v 0.500000 1.000000 0.500000
v -0.500000 1.000000 -0.500000
v 0.500000 1.000000 -0.500000
v -0.500000 0.764000 -0.500000
v 0.500000 0.764000 -0.500000
v -0.500000 1.000000 0.354000
v 0.500000 1.000000 0.354000
v -0.500000 0.764000 0.354000
v 0.500000 0.764000 0.354000
v 0.354000 0.764000 0.500000
v 0.354000 1.000000 0.500000
v 0.354000 1.000000 -0.500000
v 0.354000 0.764000 -0.500000
v 0.354000 1.000000 0.354000
v 0.354000 0.764000 0.354000
v -0.500000 0.618000 -0.500000
v 0.354000 0.618000 -0.500000
v 0.354000 0.618000 0.354000
v -0.500000 0.618000 0.354000
v -0.309000 0.764000 0.500000
v -0.309000 1.000000 0.500000
v -0.309000 1.000000 -0.500000
v -0.309000 0.764000 -0.500000
v -0.309000 1.000000 0.354000
v -0.309000 0.764000 0.354000
v -0.309000 0.618000 -0.500000
v -0.309000 0.618000 0.354000
v 0.309000 1.000000 0.354000
v 0.309000 0.764000 0.354000
v 0.309000 0.618000 0.354000
v 0.309000 0.764000 0.500000
v 0.309000 1.000000 0.500000
v 0.309000 1.000000 -0.500000
v 0.309000 0.764000 -0.500000
v 0.309000 0.618000 -0.500000
v -0.500000 0.764000 0.309000
v 0.500000 0.764000 0.309000
v -0.500000 1.000000 0.309000
v 0.500000 1.000000 0.309000
v 0.354000 0.764000 0.309000
v 0.354000 1.000000 0.309000
v 0.354000 0.618000 0.309000
v -0.500000 0.618000 0.309000
v -0.309000 0.618000 0.309000
v -0.309000 1.000000 0.309000
v 0.309000 1.000000 0.309000
v -0.500000 0.764000 -0.309000
v 0.500000 0.764000 -0.309000
v 0.354000 0.764000 -0.309000
v 0.354000 0.618000 -0.309000
v -0.500000 0.618000 -0.309000
v 0.309000 0.618000 -0.309000
v -0.500000 1.000000 -0.309000
v 0.500000 1.000000 -0.309000
v 0.354000 1.000000 -0.309000
v -0.309000 1.000000 -0.309000
v 0.309000 1.000000 -0.309000
v -0.500000 1.000000 0.229000
v 0.500000 1.000000 0.229000
v 0.354000 1.000000 0.229000
v -0.309000 1.000000 0.229000
v 0.309000 1.000000 0.229000
v -0.500000 0.764000 0.229000
v 0.500000 0.764000 0.229000
v 0.354000 0.764000 0.229000
v 0.354000 0.618000 0.229000
v -0.500000 0.618000 0.229000
v -0.309000 0.618000 0.229000
v 0.309000 0.618000 0.229000
v 0.229000 0.764000 0.500000
v 0.229000 1.000000 0.500000
v 0.229000 1.000000 -0.500000
v 0.229000 0.764000 -0.500000
v 0.229000 0.618000 -0.500000
v 0.229000 1.000000 0.354000
v 0.229000 0.764000 0.354000
v 0.229000 0.618000 0.354000
v 0.229000 0.618000 0.309000
v 0.229000 1.000000 0.309000
v 0.229000 1.000000 -0.309000
v 0.229000 0.618000 -0.309000
v 0.229000 0.618000 0.229000
v 0.229000 1.000000 0.229000
v -0.500000 0.000000 -0.500000
v -0.309000 0.000000 -0.500000
v -0.309000 0.000000 -0.309000
v -0.500000 0.000000 -0.309000
v -0.309000 0.000000 0.309000
v -0.500000 0.000000 0.309000
v -0.309000 0.000000 0.354000
v -0.500000 0.000000 0.354000
v -0.309000 0.000000 0.229000
v -0.500000 0.000000 0.229000
v 0.229000 0.000000 -0.309000
v 0.309000 0.000000 -0.309000
v 0.229000 0.000000 -0.500000
v 0.309000 0.000000 -0.500000
v 0.354000 0.000000 -0.309000
v 0.354000 0.000000 -0.500000
v 0.229000 0.000000 0.229000
v 0.309000 0.000000 0.309000
v 0.309000 0.000000 0.354000
v 0.354000 0.000000 0.309000
v 0.354000 0.000000 0.354000
v 0.229000 0.000000 0.309000
v 0.229000 0.000000 0.229000
v 0.309000 0.000000 0.229000
v 0.354000 0.000000 0.229000
v 0.229000 0.000000 0.354000
vt 0.375000 0.000000
vt 0.625000 0.000000
vt 0.375000 0.250000
vt 0.625000 0.250000
vt 0.375000 0.500000
vt 0.625000 0.500000
vt 0.375000 0.750000
vt 0.625000 0.750000
vt 0.375000 1.000000
vt 0.625000 1.000000
vt 0.875000 0.000000
vt 0.875000 0.250000
vt 0.125000 0.000000
vt 0.125000 0.250000
vt 0.338500 0.250000
vt 0.375000 0.286500
vt 0.625000 0.286500
vt 0.661500 0.250000
vt 0.338500 0.000000
vt 0.375000 0.963500
vt 0.625000 0.963500
vt 0.661500 0.000000
vt 0.588500 0.000000
vt 0.588500 1.000000
vt 0.588500 0.250000
vt 0.588500 0.500000
vt 0.588500 0.750000
vt 0.588500 0.286500
vt 0.588500 0.963500
vt 0.375000 0.750000
vt 0.588500 0.750000
vt 0.588500 0.963500
vt 0.375000 0.963500
vt 0.422750 0.000000
vt 0.422750 1.000000
vt 0.422750 0.250000
vt 0.422750 0.500000
vt 0.422750 0.750000
vt 0.422750 0.286500
vt 0.422750 0.963500
vt 0.422750 0.750000
vt 0.422750 0.963500
vt 0.577250 0.286500
vt 0.577250 0.963500
vt 0.577250 0.963500
vt 0.577250 0.000000
vt 0.577250 1.000000
vt 0.577250 0.250000
vt 0.577250 0.500000
vt 0.577250 0.750000
vt 0.577250 0.750000
vt 0.327250 0.000000
vt 0.375000 0.952250
vt 0.625000 0.952250
vt 0.672750 0.000000
vt 0.327250 0.250000
vt 0.375000 0.297750
vt 0.625000 0.297750
vt 0.672750 0.250000
vt 0.588500 0.952250
vt 0.588500 0.297750
vt 0.588500 0.952250
vt 0.375000 0.952250
vt 0.422750 0.952250
vt 0.422750 0.297750
vt 0.577250 0.952250
vt 0.577250 0.297750
vt 0.172750 0.000000
vt 0.375000 0.797750
vt 0.625000 0.797750
vt 0.827250 0.000000
vt 0.588500 0.797750
vt 0.588500 0.797750
vt 0.375000 0.797750
vt 0.422750 0.797750
vt 0.577250 0.797750
vt 0.172750 0.250000
vt 0.375000 0.452250
vt 0.625000 0.452250
vt 0.827250 0.250000
vt 0.588500 0.452250
vt 0.422750 0.452250
vt 0.577250 0.452250
vt 0.307250 0.250000
vt 0.375000 0.317750
vt 0.625000 0.317750
vt 0.692750 0.250000
vt 0.588500 0.317750
vt 0.422750 0.317750
vt 0.577250 0.317750
vt 0.307250 0.000000
vt 0.375000 0.932250
vt 0.625000 0.932250
vt 0.692750 0.000000
vt 0.588500 0.932250
vt 0.588500 0.932250
vt 0.375000 0.932250
vt 0.422750 0.932250
vt 0.577250 0.932250
vt 0.557250 0.000000
vt 0.557250 1.000000
vt 0.557250 0.250000
vt 0.557250 0.500000
vt 0.557250 0.750000
vt 0.557250 0.750000
vt 0.557250 0.286500
vt 0.557250 0.963500
vt 0.557250 0.963500
vt 0.557250 0.952250
vt 0.557250 0.297750
vt 0.557250 0.452250
vt 0.557250 0.797750
vt 0.557250 0.932250
vt 0.557250 0.317750
vt 0.375000 0.750000
vt 0.422750 0.750000
vt 0.375000 0.797750
vt 0.588500 0.952250
vt 0.588500 0.963500
vt 0.577250 0.963500
vt 0.422750 0.952250
vt 0.422750 0.963500
vt 0.375000 0.963500
vt 0.375000 0.952250
vt 0.557250 0.952250
vt 0.557250 0.932250
vt 0.577250 0.932250
vt 0.588500 0.932250
vt 0.375000 0.932250
vt 0.577250 0.797750
vt 0.557250 0.797750
vt 0.557250 0.750000
vt 0.577250 0.750000
vt 0.588500 0.797750
vt 0.588500 0.750000
vt 0.422750 0.932250
vt 0.557250 0.963500
vn 0.000000 0.000000 1.000000
vn 0.000000 0.000000 1.000000
vn 0.000000 0.000000 1.000000
vn 0.000000 0.000000 1.000000
vn 0.000000 1.000000 0.000000
vn 0.000000 1.000000 0.000000
vn 0.000000 1.000000 0.000000
vn 0.000000 1.000000 0.000000
vn 0.000000 0.000000 -1.000000
vn 0.000000 0.000000 -1.000000
vn 0.000000 0.000000 -1.000000
vn 0.000000 0.000000 -1.000000
vn 0.000000 -1.000000 0.000000
vn 0.000000 -1.000000 0.000000
vn 0.000000 -1.000000 -0.000000
vn 0.000000 -1.000000 0.000000
vn 1.000000 0.000000 0.000000
vn 1.000000 0.000000 0.000000
vn 1.000000 0.000000 0.000000
vn 1.000000 0.000000 0.000000
vn -1.000000 0.000000 0.000000
vn -1.000000 0.000000 0.000000
vn -1.000000 0.000000 0.000000
vn -1.000000 0.000000 0.000000
vn 0.000000 1.000000 0.000000
vn 0.000000 1.000000 0.000000
vn 0.000000 -1.000000 0.000000
vn 0.000000 -1.000000 0.000000
vn 0.000000 -1.000000 0.000000
vn 0.000000 -1.000000 0.000000
vn 1.000000 0.000000 0.000000
vn 1.000000 0.000000 0.000000
vn -1.000000 0.000000 0.000000
vn -1.000000 0.000000 0.000000
vn -1.000000 0.000000 0.000000
vn -1.000000 0.000000 0.000000
vn 0.000000 0.000000 1.000000
vn 0.000000 0.000000 1.000000
vn 0.000000 0.000000 1.000000
vn 0.000000 0.000000 1.000000
vn 0.000000 1.000000 0.000000
vn 0.000000 1.000000 0.000000
vn 0.000000 1.000000 0.000000
vn 0.000000 1.000000 0.000000
vn 0.000000 0.000000 -1.000000
vn 0.000000 0.000000 -1.000000
vn 0.000000 0.000000 -1.000000
vn 0.000000 0.000000 -1.000000
vn 0.000000 -1.000000 0.000000
vn 0.000000 -1.000000 0.000000
vn 0.000000 -1.000000 0.000000
vn 0.000000 -1.000000 0.000000
vn 0.000000 1.000000 0.000000
vn 0.000000 1.000000 0.000000
vn 0.000000 1.000000 0.000000
vn 0.000000 1.000000 0.000000
vn 0.000000 -1.000000 0.000000
vn 0.000000 -1.000000 0.000000
vn 0.000000 0.000000 -1.000000
vn 0.000000 0.000000 -1.000000
vn 1.000000 0.000000 0.000000
vn 1.000000 0.000000 0.000000
vn 1.000000 0.000000 0.000000
vn 1.000000 0.000000 0.000000
vn 0.000000 0.000000 1.000000
vn 0.000000 0.000000 1.000000
vn 0.000000 0.000000 1.000000
vn 0.000000 0.000000 1.000000
vn -1.000000 0.000000 0.000000
vn -1.000000 0.000000 0.000000
vn -1.000000 0.000000 0.000000
vn 0.000000 0.000000 1.000000
vn 0.000000 0.000000 1.000000
vn 0.000000 1.000000 0.000000
vn 0.000000 1.000000 0.000000
vn 0.000000 0.000000 -1.000000
vn 0.000000 0.000000 -1.000000
vn 0.000000 -1.000000 -0.000000
vn 0.000000 -1.000000 -0.000000
vn 0.000000 -1.000000 -0.000000
vn 0.000000 -1.000000 -0.000000
vn 0.000000 1.000000 0.000000
vn 0.000000 1.000000 -0.000000
vn 0.000000 1.000000 -0.000000
vn 0.000000 1.000000 0.000000
vn 0.000000 -1.000000 0.000000
vn 0.000000 -1.000000 0.000000
vn 0.000000 0.000000 -1.000000
vn 0.000000 0.000000 1.000000
vn 0.000000 0.000000 1.000000
vn 0.000000 0.000000 1.000000
vn 0.000000 0.000000 1.000000
vn 0.000000 0.000000 1.000000
vn 0.000000 0.000000 1.000000
vn 0.000000 0.000000 1.000000
vn 0.000000 0.000000 1.000000
vn 0.000000 1.000000 0.000000
vn 0.000000 1.000000 0.000000
vn 0.000000 0.000000 -1.000000
vn 0.000000 0.000000 -1.000000
vn 0.000000 -1.000000 0.000000
vn 0.000000 -1.000000 0.000000
vn 0.000000 -1.000000 0.000000
vn 0.000000 -1.000000 0.000000
vn 0.000000 1.000000 0.000000
vn 0.000000 1.000000 0.000000
vn 0.000000 -1.000000 0.000000
vn 0.000000 -1.000000 0.000000
vn 0.000000 0.000000 -1.000000
vn 0.000000 0.000000 -1.000000
vn 0.000000 -1.000000 0.000000
vn 0.000000 -1.000000 0.000000
vn 0.000000 -1.000000 0.000000
vn 0.000000 -1.000000 0.000000
vn -1.000000 0.000000 0.000000
vn 0.000000 1.000000 -0.000000
vn 0.000000 1.000000 0.000000
vn 1.000000 0.000000 0.000000
vn 1.000000 0.000000 0.000000
vn 0.000000 -1.000000 0.000000
vn 0.000000 -1.000000 0.000000
vn 0.000000 1.000000 0.000000
vn 0.000000 1.000000 0.000000
vn 1.000000 0.000000 0.000000
vn 1.000000 0.000000 0.000000
vn 1.000000 0.000000 0.000000
vn 1.000000 0.000000 0.000000
vn -1.000000 0.000000 0.000000
vn -1.000000 0.000000 0.000000
vn 0.000000 -1.000000 0.000000
vn 0.000000 -1.000000 0.000000
vn 0.000000 -1.000000 0.000000
vn 0.000000 1.000000 0.000000
vn 0.000000 1.000000 0.000000
vn 0.000000 -1.000000 0.000000
vn 0.000000 -1.000000 -0.000000
vn 0.000000 -1.000000 0.000000
vn -1.000000 0.000000 0.000000
vn 0.000000 1.000000 0.000000
vn 0.000000 1.000000 0.000000
vn 1.000000 0.000000 0.000000
vn 1.000000 0.000000 0.000000
vn 0.000000 1.000000 -0.000000
vn 0.000000 1.000000 0.000000
vn 0.000000 1.000000 0.000000
vn 0.000000 1.000000 0.000000
vn 1.000000 0.000000 0.000000
vn 1.000000 0.000000 0.000000
vn 1.000000 0.000000 0.000000
vn 1.000000 0.000000 0.000000
vn 0.000000 -1.000000 0.000000
vn 0.000000 -1.000000 0.000000
vn 0.000000 -1.000000 0.000000
vn 0.000000 -1.000000 0.000000
vn -1.000000 0.000000 0.000000
vn -1.000000 0.000000 0.000000
vn 0.000000 -1.000000 0.000000
vn 0.000000 -1.000000 -0.000000
vn 0.000000 -1.000000 0.000000
vn 0.000000 -1.000000 0.000000
vn 0.000000 -1.000000 0.000000
vn 0.000000 -1.000000 0.000000
vn 0.000000 -1.000000 0.000000
vn 0.000000 -1.000000 0.000000
vn 0.000000 -1.000000 0.000000
vn 0.000000 -1.000000 0.000000
vn 0.000000 -1.000000 0.000000
vn 0.000000 -1.000000 0.000000
vn 0.000000 -1.000000 0.000000
vn 0.000000 -1.000000 0.000000
vn 0.000000 -1.000000 0.000000
vn 0.000000 -1.000000 -0.000000
vn 0.000000 0.000000 -1.000000
vn 0.000000 0.000000 -1.000000
vn -1.000000 0.000000 0.000000
vn -1.000000 0.000000 0.000000
vn 1.000000 0.000000 0.000000
vn 1.000000 0.000000 0.000000
vn 1.000000 0.000000 0.000000
vn 1.000000 0.000000 0.000000
vn 0.000000 0.000000 1.000000
vn 0.000000 0.000000 1.000000
vn -1.000000 0.000000 0.000000
vn -1.000000 0.000000 0.000000
vn -1.000000 0.000000 0.000000
vn 0.000000 0.000000 1.000000
vn 0.000000 0.000000 1.000000
vn 0.000000 0.000000 1.000000
vn 0.000000 0.000000 1.000000
vn 0.000000 0.000000 -1.000000
vn 0.000000 0.000000 -1.000000
vn 0.000000 0.000000 1.000000
vn 0.000000 0.000000 1.000000
vn 0.000000 0.000000 -1.000000
vn 1.000000 0.000000 0.000000
vn 1.000000 0.000000 0.000000
vn 1.000000 0.000000 0.000000
vn 1.000000 0.000000 0.000000
vn 1.000000 0.000000 0.000000
vn 1.000000 0.000000 0.000000
vn 1.000000 0.000000 0.000000
vn 1.000000 0.000000 0.000000
vn 0.000000 0.000000 1.000000
vn 0.000000 0.000000 1.000000
vn 0.000000 0.000000 1.000000
vn 0.000000 0.000000 1.000000
vn 1.000000 0.000000 0.000000
vn 1.000000 0.000000 0.000000
vn 0.000000 0.000000 1.000000
vn 0.000001 0.000000 1.000000
vn -1.000000 -0.000000 0.000000
vn -1.000000 0.000000 0.000000
vn -1.000000 0.000000 0.000000
vn -1.000000 -0.000000 0.000000
vn 0.000000 0.000000 -1.000000
vn 0.000000 0.000000 -1.000000
vn 0.000000 0.000000 -1.000000
vn 0.000000 0.000000 -1.000000
vn 0.000000 0.000000 -1.000000
vn 0.000000 0.000000 -1.000000
vn 1.000000 0.000000 0.000000
vn -1.000000 -0.000000 0.000001
vn -1.000000 -0.000000 0.000001
vn 0.000000 0.000000 1.000000
f 1/1/1 23/34/2 24/36/3 3/3/4
f 3/3/5 24/36/6 27/39/7 9/16/8
f 5/5/9 25/37/10 26/38/11 7/7/12
f 87/115/13 88/116/14 89/75/15 90/117/16
f 2/2/17 12/22/18 10/18/19 4/4/20
f 7/13/21 50/68/22 56/77/23 5/14/24
f 9/16/8 27/39/7 48/65/25 41/57/26
f 11/20/27 28/40/28 23/35/29 1/9/30
f 10/18/19 12/22/18 40/55/31 42/59/32
f 9/15/33 11/19/34 1/1/35 3/3/36
f 14/25/37 13/23/38 2/2/39 4/4/40
f 17/28/41 14/25/42 4/4/43 10/17/44
f 16/27/45 15/26/46 6/6/47 8/8/48
f 18/29/49 43/60/50 40/54/51 12/21/52
f 15/26/53 58/81/54 57/79/55 6/6/56
f 13/24/57 18/29/49 12/21/52 2/10/58
f 7/7/12 26/38/11 29/41/59 19/30/60
f 16/27/61 52/72/62 53/73/63 20/31/64
f 18/29/65 32/44/66 33/45/67 21/32/68
f 11/20/34 39/53/69 46/63/70 22/33/71
f 24/36/3 23/34/2 73/100/72 74/102/73
f 27/39/7 24/36/6 74/102/74 78/106/75
f 26/38/11 25/37/10 75/103/76 76/104/77
f 30/42/78 47/64/79 81/109/80 80/108/81
f 25/37/82 59/82/83 83/111/84 75/103/85
f 23/35/29 28/40/28 79/107/86 73/101/87
f 29/41/59 26/38/11 76/104/77 77/105/88
f 30/42/89 28/40/90 11/20/91 22/33/92
f 33/45/67 32/44/66 79/107/93 80/108/94
f 35/48/95 34/46/96 13/23/38 14/25/37
f 31/43/97 35/48/98 14/25/42 17/28/41
f 37/50/99 36/49/100 15/26/46 16/27/45
f 105/120/101 104/66/102 106/118/103 107/119/104
f 36/49/105 60/83/106 58/81/54 15/26/53
f 34/47/107 32/44/108 18/29/49 13/24/57
f 38/51/109 37/50/99 16/27/45 20/31/110
f 92/124/111 91/121/112 93/122/113 94/123/114
f 41/56/115 39/52/69 11/19/34 9/15/33
f 41/57/26 48/65/25 64/89/116 61/85/117
f 42/59/32 40/55/31 67/94/118 62/87/119
f 40/54/51 43/60/50 68/95/120 67/93/121
f 42/58/122 44/61/123 17/28/41 10/17/44
f 45/62/124 43/60/125 18/29/126 21/32/127
f 46/63/70 39/53/69 66/92/128 70/97/129
f 104/66/102 108/125/130 109/126/131 110/127/132
f 49/67/133 82/110/134 78/106/75 31/43/97
f 106/118/103 104/66/102 110/127/132 111/128/135
f 44/61/123 49/67/133 31/43/97 17/28/41
f 90/117/16 89/75/15 95/98/136 96/129/137
f 56/77/23 50/68/22 66/91/128 61/84/138
f 57/79/55 58/81/54 63/88/139 62/86/140
f 53/73/63 52/72/62 68/95/141 69/96/142
f 60/83/106 83/111/84 86/114/143 65/90/144
f 58/81/54 60/83/106 65/90/144 63/88/139
f 56/78/145 59/82/83 25/37/82 5/5/146
f 57/80/147 51/71/148 8/11/149 6/12/150
f 51/70/151 52/72/152 16/27/153 8/8/154
f 54/74/155 50/69/22 7/7/21 19/30/156
f 98/130/157 97/131/158 99/132/159 100/133/160
f 101/134/161 98/130/157 100/133/160 102/135/162
f 61/85/117 64/89/116 59/82/83 56/78/145
f 62/87/119 67/94/118 51/71/148 57/80/147
f 67/93/121 68/95/120 52/72/152 51/70/151
f 70/97/129 66/92/128 50/69/22 54/74/155
f 72/99/163 85/113/164 84/112/165 55/76/166
f 69/96/167 72/99/163 55/76/166 53/73/168
f 96/129/137 95/136/136 91/121/112 92/124/111
f 61/84/138 66/91/128 39/52/69 41/56/115
f 62/86/140 63/88/139 44/61/123 42/58/122
f 69/96/142 68/95/141 43/60/125 45/62/124
f 65/90/144 86/114/143 82/110/134 49/67/133
f 63/88/139 65/90/144 49/67/133 44/61/123
f 74/102/73 73/100/72 34/46/96 35/48/95
f 78/106/75 74/102/74 35/48/98 31/43/97
f 76/104/77 75/103/76 36/49/100 37/50/99
f 112/137/169 108/125/130 104/66/102 105/120/101
f 75/103/85 83/111/84 60/83/106 36/49/105
f 73/101/87 79/107/86 32/44/108 34/47/107
f 77/105/88 76/104/77 37/50/99 38/51/109
f 80/108/94 79/107/93 28/40/90 30/42/89
f 85/113/170 81/109/80 47/64/79 71/98/171
f 78/106/75 82/110/134 48/65/25 27/39/7
f 86/114/143 83/111/84 59/82/83 64/89/116
f 99/132/159 97/131/158 89/75/15 88/116/14
f 97/131/158 103/126/172 95/136/136 89/75/15
f 82/110/134 86/114/143 64/89/116 48/65/25
f 19/30/60 29/41/59 88/116/173 87/115/174
f 54/74/155 19/30/156 87/115/175 90/117/176
f 47/62/177 30/32/178 93/119/179 91/118/180
f 30/32/89 22/45/92 94/120/181 93/119/182
f 22/64/71 46/42/70 92/122/183 94/121/184
f 70/42/129 54/33/155 90/123/176 96/122/185
f 55/33/186 84/63/187 97/124/188 98/123/189
f 77/109/88 38/113/109 100/126/190 99/125/191
f 53/113/192 55/99/186 98/127/189 101/126/193
f 38/99/109 20/96/110 102/128/194 100/127/190
f 20/96/64 53/62/63 101/118/195 102/128/196
f 71/97/197 47/74/177 91/117/180 95/129/198
f 46/76/70 70/112/129 96/131/185 92/130/183
f 29/105/59 77/51/88 99/133/191 88/132/173
f 84/73/199 85/76/200 103/130/201 97/134/202
f 85/51/203 71/31/204 95/135/205 103/133/206
f 45/31/124 21/73/127 107/134/207 106/135/208
f 21/98/68 33/64/67 105/121/209 107/136/210
f 81/63/211 85/97/212 109/129/213 108/124/214
f 85/108/215 72/109/216 110/125/217 109/137/218
f 72/45/216 69/108/219 111/137/220 110/120/217
f 69/41/142 45/105/124 106/132/208 111/116/221
f 80/112/222 81/113/211 108/126/214 112/131/223
f 33/113/67 80/98/94 112/136/224 105/126/209
