# This file uses centimeters as units for non-parametric coordinates.

v -0.500000 0.000000 0.500000
v 0.500000 0.000000 0.500000
v -0.500000 0.381966 0.500000
v 0.500000 0.381966 0.500000
v -0.500000 0.381966 -0.500000
v 0.500000 0.381966 -0.500000
v -0.500000 0.000000 -0.500000
v 0.500000 0.000000 -0.500000
v -0.500000 0.145898 0.500000
v 0.500000 0.145898 0.500000
v -0.500000 0.145898 -0.500000
v 0.500000 0.145898 -0.500000
v -0.500000 0.145898 0.881966
v -0.500000 0.381966 0.881966
v 0.500000 0.145898 0.881966
v 0.500000 0.381966 0.881966
v -0.500000 0.000000 0.736068
v 0.500000 0.000000 0.736068
v 0.500000 0.145898 0.736068
v -0.500000 0.145898 0.736068
vt 0.375000 0.000000
vt 0.625000 0.000000
vt 0.375000 0.250000
vt 0.625000 0.250000
vt 0.375000 0.500000
vt 0.625000 0.500000
vt 0.375000 0.750000
vt 0.625000 0.750000
vt 0.375000 1.000000
vt 0.625000 1.000000
vt 0.875000 0.000000
vt 0.875000 0.250000
vt 0.125000 0.000000
vt 0.125000 0.250000
vt 0.375000 0.036475
vt 0.625000 0.036475
vt 0.125000 0.036475
vt 0.375000 0.713525
vt 0.625000 0.713525
vt 0.875000 0.036475
vt 0.375000 0.250000
vt 0.375000 0.036475
vt 0.625000 0.036475
vt 0.625000 0.250000
vt 0.375000 0.000000
vt 0.625000 0.000000
vt 0.625000 0.036475
vt 0.375000 0.036475
vn 0.000000 0.000000 1.000000
vn 0.000000 0.000000 1.000000
vn 0.000000 0.000000 1.000000
vn 0.000000 0.000000 1.000000
vn 0.000000 1.000000 0.000000
vn 0.000000 1.000000 0.000000
vn 0.000000 1.000000 0.000000
vn 0.000000 1.000000 0.000000
vn 0.000000 0.000000 -1.000000
vn 0.000000 0.000000 -1.000000
vn 0.000000 0.000000 -1.000000
vn 0.000000 0.000000 -1.000000
vn 0.000000 -1.000000 0.000000
vn 0.000000 -1.000000 0.000000
vn 0.000000 -1.000000 0.000000
vn 0.000000 -1.000000 0.000000
vn 1.000000 0.000000 0.000000
vn 1.000000 0.000000 0.000000
vn 1.000000 0.000000 0.000000
vn 1.000000 0.000000 0.000000
vn -1.000000 0.000000 0.000000
vn -1.000000 0.000000 0.000000
vn -1.000000 0.000000 0.000000
vn -1.000000 0.000000 0.000000
vn 0.000000 0.000000 1.000000
vn 0.000000 0.000000 1.000000
vn 0.000000 0.000000 1.000000
vn 0.000000 0.000000 1.000000
vn 1.000000 0.000000 0.000000
vn 1.000000 0.000000 0.000000
vn -1.000000 0.000000 0.000000
vn -1.000000 0.000000 0.000000
vn 0.000000 0.000000 -1.000000
vn 0.000000 0.000000 -1.000000
vn -1.000000 0.000000 0.000000
vn -1.000000 0.000000 0.000000
vn 0.000000 -1.000000 0.000000
vn 0.000000 -1.000000 0.000000
vn 0.000000 -1.000000 0.000000
vn 0.000000 -1.000000 0.000000
vn 1.000000 0.000000 0.000000
vn 1.000000 0.000000 0.000000
vn 0.000000 1.000000 0.000000
vn 0.000000 1.000000 0.000000
vn 0.000000 -1.000000 0.000000
vn 0.000000 -1.000000 0.000000
vn 1.000000 0.000000 0.000000
vn 1.000000 0.000000 0.000000
vn 0.000000 1.000000 0.000000
vn 0.000000 1.000000 0.000000
vn 0.000000 1.000000 0.000000
vn 0.000000 1.000000 0.000000
vn -1.000000 0.000000 0.000000
vn -1.000000 0.000000 0.000000
f 17/25/1 18/26/2 19/27/3 20/28/4
f 3/3/5 4/4/6 6/6/7 5/5/8
f 5/5/9 6/6/10 12/19/11 11/18/12
f 7/7/13 8/8/14 2/10/15 1/9/16
f 2/2/17 8/11/18 12/20/19 10/16/20
f 7/13/21 1/1/22 9/15/23 11/17/24
f 14/21/25 13/22/26 15/23/27 16/24/28
f 4/4/29 10/16/20 12/20/19 6/12/30
f 5/14/31 11/17/24 9/15/23 3/3/32
f 11/18/12 12/19/11 8/8/33 7/7/34
f 3/3/32 9/15/23 13/22/35 14/21/36
f 9/15/37 10/16/38 15/23/39 13/22/40
f 10/16/20 4/4/29 16/24/41 15/23/42
f 4/4/6 3/3/5 14/21/43 16/24/44
f 1/1/16 2/2/15 18/26/45 17/25/46
f 2/2/17 10/16/20 19/27/47 18/26/48
f 10/16/49 9/15/50 20/28/51 19/27/52
f 9/15/23 1/1/22 17/25/53 20/28/54
