# This file uses centimeters as units for non-parametric coordinates.

v -0.500000 1.764000 0.500000
v 0.500000 1.764000 0.500000
v -0.500000 2.000000 0.500000
v 0.500000 2.000000 0.500000
v 0.500000 2.000000 -0.500000
v 0.500000 1.764000 -0.500000
v -0.500000 2.000000 0.354000
v 0.500000 2.000000 0.354000
v -0.500000 1.764000 0.354000
v 0.500000 1.764000 0.354000
v 0.354000 1.764000 0.500000
v 0.354000 2.000000 0.500000
v 0.354000 2.000000 -0.500000
v 0.354000 1.764000 -0.500000
v 0.354000 2.000000 0.354000
v 0.354000 1.764000 0.354000
v 0.354000 1.618000 -0.500000
v 0.354000 1.618000 0.354000
v -0.500000 1.618000 0.354000
v -0.309000 1.764000 0.500000
v -0.309000 2.000000 0.500000
v -0.309000 2.000000 0.354000
v -0.309000 1.764000 0.354000
v -0.309000 1.618000 0.354000
v 0.309000 2.000000 0.354000
v 0.309000 1.764000 0.354000
v 0.309000 1.618000 0.354000
v 0.309000 1.764000 0.500000
v 0.309000 2.000000 0.500000
v 0.309000 2.000000 -0.500000
v 0.500000 1.764000 0.309000
v -0.500000 2.000000 0.309000
v 0.500000 2.000000 0.309000
v 0.354000 1.764000 0.309000
v 0.354000 2.000000 0.309000
v 0.354000 1.618000 0.309000
v -0.309000 1.618000 0.309000
v -0.309000 2.000000 0.309000
v 0.309000 2.000000 0.309000
v 0.500000 1.764000 -0.309000
v 0.354000 1.764000 -0.309000
v 0.354000 1.618000 -0.309000
v 0.309000 1.618000 -0.309000
v 0.500000 2.000000 -0.309000
v 0.354000 2.000000 -0.309000
v 0.309000 2.000000 -0.309000
v -0.500000 2.000000 0.229000
v 0.500000 2.000000 0.229000
v 0.354000 2.000000 0.229000
v -0.309000 2.000000 0.229000
v 0.309000 2.000000 0.229000
v 0.500000 1.764000 0.229000
v 0.354000 1.764000 0.229000
v 0.354000 1.618000 0.229000
v -0.309000 1.618000 0.229000
v 0.309000 1.618000 0.229000
v 0.229000 1.764000 0.500000
v 0.229000 2.000000 0.500000
v 0.229000 2.000000 -0.500000
v 0.229000 2.000000 0.354000
v 0.229000 1.764000 0.354000
v 0.229000 1.618000 0.354000
v 0.229000 1.618000 0.309000
v 0.229000 2.000000 0.309000
v 0.229000 2.000000 -0.309000
v 0.229000 1.618000 -0.309000
v 0.229000 1.618000 0.229000
v 0.229000 2.000000 0.229000
v -0.309000 0.000000 0.309000
v -0.309000 0.000000 0.354000
v -0.500000 0.000000 0.354000
v -0.309000 0.000000 0.229000
v 0.229000 0.000000 -0.309000
v 0.309000 0.000000 -0.309000
v 0.354000 0.000000 -0.309000
v 0.354000 0.000000 -0.500000
v 0.229000 0.000000 0.229000
v 0.309000 0.000000 0.354000
v 0.354000 0.000000 0.309000
v 0.354000 0.000000 0.354000
v 0.229000 0.000000 0.309000
v 0.229000 0.000000 0.229000
v 0.309000 0.000000 0.229000
v 0.354000 0.000000 0.229000
v 0.229000 0.000000 0.354000
vt 0.375000 0.000000
vt 0.625000 0.000000
vt 0.375000 0.250000
vt 0.625000 0.250000
vt 0.625000 0.500000
vt 0.625000 0.750000
vt 0.375000 1.000000
vt 0.625000 1.000000
vt 0.875000 0.000000
vt 0.875000 0.250000
vt 0.375000 0.286500
vt 0.625000 0.286500
vt 0.661500 0.250000
vt 0.375000 0.963500
vt 0.625000 0.963500
vt 0.661500 0.000000
vt 0.588500 0.000000
vt 0.588500 1.000000
vt 0.588500 0.250000
vt 0.588500 0.500000
vt 0.588500 0.750000
vt 0.588500 0.286500
vt 0.588500 0.963500
vt 0.588500 0.750000
vt 0.588500 0.963500
vt 0.375000 0.963500
vt 0.422750 0.000000
vt 0.422750 1.000000
vt 0.422750 0.250000
vt 0.422750 0.286500
vt 0.422750 0.963500
vt 0.422750 0.963500
vt 0.577250 0.286500
vt 0.577250 0.963500
vt 0.577250 0.963500
vt 0.577250 0.000000
vt 0.577250 1.000000
vt 0.577250 0.250000
vt 0.577250 0.500000
vt 0.625000 0.952250
vt 0.672750 0.000000
vt 0.375000 0.297750
vt 0.625000 0.297750
vt 0.672750 0.250000
vt 0.588500 0.952250
vt 0.588500 0.297750
vt 0.588500 0.952250
vt 0.422750 0.952250
vt 0.422750 0.297750
vt 0.577250 0.297750
vt 0.625000 0.797750
vt 0.827250 0.000000
vt 0.588500 0.797750
vt 0.588500 0.797750
vt 0.577250 0.797750
vt 0.625000 0.452250
vt 0.827250 0.250000
vt 0.588500 0.452250
vt 0.577250 0.452250
vt 0.375000 0.317750
vt 0.625000 0.317750
vt 0.692750 0.250000
vt 0.588500 0.317750
vt 0.422750 0.317750
vt 0.577250 0.317750
vt 0.625000 0.932250
vt 0.692750 0.000000
vt 0.588500 0.932250
vt 0.588500 0.932250
vt 0.577250 0.932250
vt 0.557250 0.000000
vt 0.557250 1.000000
vt 0.557250 0.250000
vt 0.557250 0.500000
vt 0.557250 0.286500
vt 0.557250 0.963500
vt 0.557250 0.963500
vt 0.557250 0.952250
vt 0.557250 0.297750
vt 0.557250 0.452250
vt 0.557250 0.797750
vt 0.557250 0.932250
vt 0.557250 0.317750
vt 0.422750 0.932250
vt 0.588500 0.952250
vt 0.588500 0.963500
vt 0.588500 0.963500
vt 0.588500 0.952250
vt 0.588500 0.963500
vt 0.577250 0.963500
vt 0.577250 0.963500
vt 0.588500 0.963500
vt 0.375000 0.963500
vt 0.375000 0.952250
vt 0.375000 0.952250
vt 0.375000 0.963500
vt 0.557250 0.932250
vt 0.577250 0.932250
vt 0.577250 0.932250
vt 0.557250 0.932250
vt 0.588500 0.932250
vt 0.588500 0.952250
vt 0.588500 0.952250
vt 0.588500 0.932250
vt 0.375000 0.932250
vt 0.375000 0.797750
vt 0.375000 0.797750
vt 0.375000 0.932250
vt 0.588500 0.797750
vt 0.577250 0.797750
vt 0.577250 0.797750
vt 0.588500 0.797750
vt 0.577250 0.750000
vt 0.588500 0.750000
vt 0.588500 0.750000
vt 0.577250 0.750000
vt 0.588500 0.750000
vt 0.588500 0.797750
vt 0.588500 0.797750
vt 0.588500 0.750000
vt 0.422750 0.932250
vt 0.422750 0.952250
vt 0.422750 0.952250
vt 0.422750 0.932250
vt 0.375000 0.952250
vt 0.375000 0.932250
vt 0.375000 0.932250
vt 0.375000 0.952250
vt 0.557250 0.963500
vt 0.557250 0.952250
vt 0.557250 0.952250
vt 0.557250 0.963500
vt 0.577250 0.963500
vt 0.557250 0.963500
vt 0.557250 0.963500
vt 0.577250 0.963500
vt 0.422750 0.750000
vt 0.557250 0.750000
vt 0.557250 0.750000
vt 0.422750 0.750000
vt 0.557250 0.797750
vt 0.557250 0.932250
vt 0.557250 0.932250
vt 0.557250 0.797750
vt 0.557250 0.932250
vt 0.422750 0.932250
vt 0.422750 0.932250
vt 0.557250 0.932250
vn 0.000000 0.000000 1.000000
vn 0.000000 0.000000 1.000000
vn 0.000000 0.000000 1.000000
vn 0.000000 0.000000 1.000000
vn 0.000000 1.000000 0.000000
vn 0.000000 1.000000 0.000000
vn 0.000000 1.000000 0.000000
vn 0.000000 1.000000 0.000000
vn 1.000000 0.000000 0.000000
vn 1.000000 0.000000 0.000000
vn 1.000000 0.000000 0.000000
vn 1.000000 0.000000 0.000000
vn 0.000000 1.000000 0.000000
vn 0.000000 1.000000 0.000000
vn 0.000000 -1.000000 0.000000
vn 0.000000 -1.000000 0.000000
vn 0.000000 -1.000000 0.000000
vn 0.000000 -1.000000 0.000000
vn 1.000000 0.000000 0.000000
vn 1.000000 0.000000 0.000000
vn 0.000000 0.000000 1.000000
vn 0.000000 0.000000 1.000000
vn 0.000000 0.000000 1.000000
vn 0.000000 0.000000 1.000000
vn 0.000000 1.000000 0.000000
vn 0.000000 1.000000 0.000000
vn 0.000000 1.000000 0.000000
vn 0.000000 1.000000 0.000000
vn 0.000000 -1.000000 0.000000
vn 0.000000 -1.000000 0.000000
vn 0.000000 -1.000000 0.000000
vn 0.000000 -1.000000 0.000000
vn 0.000000 1.000000 0.000000
vn 0.000000 1.000000 0.000000
vn 0.000000 1.000000 0.000000
vn 0.000000 1.000000 0.000000
vn 0.000000 -1.000000 0.000000
vn 0.000000 -1.000000 0.000000
vn 1.000000 0.000000 0.000000
vn 1.000000 0.000000 0.000000
vn 1.000000 0.000000 0.000000
vn 1.000000 0.000000 0.000000
vn 0.000000 0.000000 1.000000
vn 0.000000 0.000000 1.000000
vn 0.000001 0.000000 1.000000
vn 0.000001 0.000000 1.000000
vn 0.000000 0.000000 1.000000
vn 0.000000 0.000000 1.000000
vn 0.000000 1.000000 0.000000
vn 0.000000 1.000000 0.000000
vn 0.000000 -1.000000 -0.000000
vn 0.000000 -1.000000 -0.000000
vn 0.000000 -1.000000 -0.000000
vn 0.000000 -1.000000 -0.000000
vn 0.000000 -1.000000 0.000000
vn 0.000000 -1.000000 0.000000
vn 0.000000 0.000000 1.000000
vn 0.000000 0.000000 1.000000
vn 0.000000 0.000000 1.000000
vn 0.000000 0.000000 1.000000
vn 0.000000 0.000000 1.000000
vn 0.000000 0.000000 1.000000
vn 0.000000 0.000000 1.000000
vn 0.000000 0.000000 1.000000
vn 0.000000 1.000000 0.000000
vn 0.000000 1.000000 0.000000
vn 0.000000 1.000000 0.000000
vn 0.000000 1.000000 0.000000
vn 0.000000 -1.000000 0.000000
vn 0.000000 -1.000000 0.000000
vn 0.000000 1.000000 0.000000
vn 0.000000 1.000000 0.000000
vn 1.000000 0.000000 0.000000
vn 1.000000 0.000000 0.000000
vn 0.000000 -1.000000 0.000000
vn 0.000000 -1.000000 0.000000
vn 0.000000 1.000000 0.000000
vn 0.000000 1.000000 0.000000
vn 1.000000 0.000000 0.000000
vn 1.000000 0.000000 0.000000
vn 1.000000 0.000000 0.000000
vn 1.000000 0.000000 0.000000
vn 0.000000 1.000000 0.000000
vn 0.000000 1.000000 0.000000
vn 0.000000 1.000000 0.000000
vn 0.000000 1.000000 0.000000
vn 1.000000 0.000000 0.000000
vn 1.000000 0.000000 0.000000
vn 0.000000 1.000000 0.000000
vn 0.000000 1.000000 0.000000
vn 0.000000 1.000000 0.000000
vn 1.000000 0.000000 0.000000
vn 1.000000 0.000000 0.000000
vn 1.000000 0.000000 0.000000
vn 1.000000 0.000000 0.000000
vn 0.000000 -1.000000 0.000000
vn 0.000000 -1.000000 0.000000
vn 0.000000 -1.000000 0.000000
vn 0.000000 -1.000000 0.000000
vn 0.000000 -1.000000 0.000000
vn 0.000000 -1.000000 0.000000
vn 0.000000 -1.000000 0.000000
vn 0.000000 -1.000000 0.000000
vn 0.000000 -1.000000 0.000000
vn 0.000000 -1.000000 0.000000
vn 0.000000 1.000000 0.000000
vn 0.000000 -1.000000 0.000000
vn 0.000000 -1.000000 0.000000
vn 1.000000 0.000000 0.000000
vn 1.000000 0.000000 0.000000
vn 1.000000 0.000000 0.000000
vn 1.000000 0.000000 0.000000
vn 0.000000 0.000000 1.000000
vn 0.000000 0.000000 1.000000
vn 0.000000 0.000000 1.000000
vn 0.000000 0.000000 1.000000
vn 0.000000 0.000000 1.000000
vn 0.000000 0.000000 1.000000
vn 0.000000 0.000000 1.000000
vn 0.000000 0.000000 1.000000
vn 1.000000 0.000000 0.000000
vn 1.000000 0.000000 0.000000
vn 1.000000 0.000000 0.000000
vn 1.000000 0.000000 0.000000
vn 1.000000 0.000000 0.000000
vn 1.000000 0.000000 0.000000
vn 1.000000 0.000000 0.000000
vn 1.000000 0.000000 0.000000
vn 0.000000 0.000000 1.000000
vn 0.000000 0.000000 1.000000
vn 0.000000 0.000000 1.000000
vn 0.000000 0.000000 1.000000
vn 1.000000 0.000000 0.000000
vn 1.000000 0.000000 0.000000
vn 0.000001 0.000000 1.000000
vn 0.000001 0.000000 1.000000
vn -1.000000 -0.000000 0.000000
vn -1.000000 0.000000 0.000000
vn -1.000000 0.000000 0.000000
vn -1.000000 -0.000000 0.000000
vn 0.000000 0.000000 -1.000000
vn 0.000000 0.000000 -1.000000
vn 0.000000 0.000000 -1.000000
vn 0.000000 0.000000 -1.000000
vn 0.000000 0.000000 -1.000000
vn 0.000000 0.000000 -1.000000
vn 1.000000 0.000000 0.000000
vn -1.000000 -0.000000 0.000001
vn -1.000000 -0.000000 0.000001
vn 0.000000 0.000000 1.000000
f 1/1/1 20/27/2 21/29/3 3/3/4
f 3/3/5 21/29/6 22/30/7 7/11/8
f 2/2/9 10/16/10 8/13/11 4/4/12
f 7/11/8 22/30/7 38/49/13 32/42/14
f 9/14/15 23/31/16 20/28/17 1/7/18
f 8/13/11 10/16/10 31/41/19 33/44/20
f 12/19/21 11/17/22 2/2/23 4/4/24
f 15/22/25 12/19/26 4/4/27 8/12/28
f 16/23/29 34/45/30 31/40/31 10/15/32
f 13/20/33 45/58/34 44/56/35 5/5/36
f 11/18/37 16/23/29 10/15/32 2/8/38
f 14/21/39 41/53/40 42/54/41 17/24/42
f 16/23/43 26/34/44 27/35/45 18/25/46
f 21/29/3 20/27/2 57/71/47 58/73/48
f 22/30/7 21/29/6 58/73/49 60/75/50
f 24/32/51 37/48/52 63/78/53 62/77/54
f 20/28/17 23/31/16 61/76/55 57/72/56
f 24/32/57 23/31/58 9/14/59 19/26/60
f 27/35/45 26/34/44 61/76/61 62/77/62
f 29/38/63 28/36/64 11/17/22 12/19/21
f 25/33/65 29/38/66 12/19/26 15/22/25
f 30/39/67 46/59/68 45/58/34 13/20/33
f 28/37/69 26/34/70 16/23/29 11/18/37
f 32/42/14 38/49/13 50/64/71 47/60/72
f 33/44/20 31/41/19 52/67/73 48/62/74
f 31/40/31 34/45/30 53/68/75 52/66/76
f 33/43/77 35/46/78 15/22/25 8/12/28
f 36/47/79 34/45/80 16/23/81 18/25/82
f 39/50/83 64/79/84 60/75/50 25/33/65
f 35/46/78 39/50/83 25/33/65 15/22/25
f 44/56/35 45/58/34 49/63/85 48/61/86
f 42/54/41 41/53/40 53/68/87 54/69/88
f 46/59/68 65/80/89 68/83/90 51/65/91
f 45/58/34 46/59/68 51/65/91 49/63/85
f 44/57/92 40/52/93 6/9/94 5/10/95
f 40/51/96 41/53/97 14/21/98 6/6/99
f 48/62/74 52/67/73 40/52/93 44/57/92
f 52/66/76 53/68/75 41/53/97 40/51/96
f 56/70/100 67/82/101 66/81/102 43/55/103
f 54/69/104 56/70/100 43/55/103 42/54/105
f 48/61/86 49/63/85 35/46/78 33/43/77
f 54/69/88 53/68/87 34/45/80 36/47/79
f 51/65/91 68/83/90 64/79/84 39/50/83
f 49/63/85 51/65/91 39/50/83 35/46/78
f 58/73/48 57/71/47 28/36/64 29/38/63
f 60/75/50 58/73/49 29/38/66 25/33/65
f 59/74/106 65/80/89 46/59/68 30/39/67
f 57/72/56 61/76/55 26/34/70 28/37/69
f 62/77/62 61/76/61 23/31/58 24/32/57
f 67/82/107 63/78/53 37/48/52 55/84/108
f 60/75/50 64/79/84 38/49/13 22/30/7
f 64/79/84 68/83/90 50/64/71 38/49/13
f 37/85/109 24/86/110 70/87/111 69/88/112
f 24/89/57 19/90/60 71/91/113 70/92/114
f 43/93/115 66/94/116 73/95/117 74/96/118
f 42/97/119 43/98/115 74/99/118 75/100/120
f 17/101/42 42/102/41 75/103/121 76/104/122
f 55/105/123 37/106/109 69/107/112 72/108/124
f 66/109/125 67/110/126 77/111/127 73/112/128
f 67/113/129 55/114/130 72/115/131 77/116/132
f 36/117/79 18/118/82 80/119/133 79/120/134
f 18/121/46 27/122/45 78/123/135 80/124/136
f 63/125/137 67/126/138 82/127/139 81/128/140
f 67/129/141 56/130/142 83/131/143 82/132/144
f 56/133/142 54/134/145 84/135/146 83/136/143
f 54/137/88 36/138/79 79/139/134 84/140/147
f 62/141/148 63/142/137 81/143/140 85/144/149
f 27/145/45 62/146/62 85/147/150 78/148/135
