# This file uses centimeters as units for non-parametric coordinates.

v 0.309000 0.000000 0.229490
v 0.309000 1.000000 0.229490
v -0.309000 0.000000 0.229490
v -0.309000 1.000000 0.229490
v -0.500000 0.000000 0.354102
v -0.500000 1.000000 0.354102
v -0.309000 0.000000 0.354102
v -0.309000 1.000000 0.354102
v 0.500000 0.000000 0.354102
v 0.500000 1.000000 0.354102
v 0.309000 1.000000 0.354102
v 0.309000 0.000000 0.354102
vt 0.577250 0.000000
vt 0.577250 0.250000
vt 0.422750 0.000000
vt 0.422750 0.250000
vt 0.375000 0.250000
vt 0.375000 0.000000
vt 0.422750 0.000000
vt 0.422750 0.250000
vt 0.625000 0.000000
vt 0.625000 0.250000
vt 0.577250 0.250000
vt 0.577250 0.000000
vn 0.000000 0.000000 1.000000
vn 0.000000 0.000000 1.000000
vn 0.000000 0.000000 1.000000
vn 0.000000 0.000000 1.000000
vn 0.000000 0.000000 1.000000
vn 0.000000 0.000000 1.000000
vn 0.000000 0.000000 1.000000
vn 0.000000 0.000000 1.000000
vn 0.000000 0.000000 1.000000
vn 0.000000 0.000000 1.000000
vn 0.000000 0.000000 1.000000
vn 0.000000 0.000000 1.000000
vn 1.000000 0.000000 0.000000
vn 1.000000 0.000000 0.000000
vn 1.000000 0.000000 0.000000
vn 1.000000 0.000000 0.000000
vn -1.000000 0.000000 0.000000
vn -1.000000 0.000000 0.000000
vn -1.000000 0.000000 0.000000
vn -1.000000 0.000000 0.000000
f 1/1/1 2/2/2 4/4/3 3/3/4
f 6/5/5 5/6/6 7/7/7 8/8/8
f 9/9/9 10/10/10 11/11/11 12/12/12
f 3/3/13 4/4/14 8/8/15 7/7/16
f 2/2/17 1/1/18 12/12/19 11/11/20
