# This file uses centimeters as units for non-parametric coordinates.

v -0.500000 2.000000 0.229490
v 0.500000 2.000000 0.229490
v 0.309000 0.000000 0.229490
v 0.309000 2.000000 0.229490
v -0.309000 0.000000 0.229490
v -0.309000 2.000000 0.229490
v 0.309000 1.618035 0.229490
v -0.309000 1.618035 0.229490
v 0.000000 0.000000 0.229490
v 0.000000 2.000000 0.229490
v 0.000000 1.618035 0.229490
v 0.309000 1.763933 0.354102
v 0.309000 2.000000 0.354102
v 0.000000 2.000000 0.354102
v 0.000000 1.763933 0.354102
v -0.500000 0.000000 0.354102
v -0.309000 0.000000 0.354102
v -0.309000 1.618035 0.354102
v -0.500000 1.618035 0.354102
v 0.500000 1.763933 0.354102
v 0.500000 2.000000 0.354102
v -0.309000 1.763933 0.354102
v -0.500000 1.763933 0.354102
v 0.309000 1.618035 0.354102
v 0.500000 1.618035 0.354102
v 0.309000 0.000000 0.354102
v 0.500000 0.000000 0.354102
v 0.000000 1.618035 0.354102
v -0.309000 2.000000 0.354102
v -0.500000 2.000000 0.354102
v 0.309000 1.763933 0.500000
v 0.309000 2.000000 0.500000
v 0.000000 2.000000 0.500000
v 0.000000 1.763933 0.500000
v 0.500000 1.763933 0.500000
v 0.500000 2.000000 0.500000
v -0.309000 1.763933 0.500000
v -0.500000 1.763933 0.500000
v -0.309000 2.000000 0.500000
v -0.500000 2.000000 0.500000
vt 0.375000 0.250000
vt 0.625000 0.250000
vt 0.577250 0.000000
vt 0.577250 0.250000
vt 0.422750 0.000000
vt 0.422750 0.250000
vt 0.577250 0.154509
vt 0.422750 0.154509
vt 0.577250 0.190983
vt 0.422750 0.190983
vt 0.500000 0.000000
vt 0.500000 0.250000
vt 0.500000 0.154509
vt 0.500000 0.190983
vt 0.577250 0.250000
vt 0.500000 0.250000
vt 0.375000 0.000000
vt 0.422750 0.000000
vt 0.422750 0.154509
vt 0.375000 0.154509
vt 0.625000 0.190983
vt 0.625000 0.250000
vt 0.375000 0.190983
vt 0.577250 0.154509
vt 0.577250 0.000000
vt 0.625000 0.000000
vt 0.625000 0.154509
vt 0.500000 0.154509
vt 0.422750 0.250000
vt 0.375000 0.250000
vt 0.577250 0.250000
vt 0.500000 0.250000
vt 0.500000 0.190983
vt 0.577250 0.190983
vt 0.625000 0.190983
vt 0.625000 0.250000
vt 0.375000 0.190983
vt 0.422750 0.190983
vt 0.422750 0.250000
vt 0.375000 0.250000
vn 0.000000 0.000000 1.000000
vn 0.000000 0.000000 1.000000
vn 0.000000 0.000000 1.000000
vn 0.000000 0.000000 1.000000
vn 0.000000 0.000000 1.000000
vn 0.000000 0.000000 1.000000
vn 0.000000 0.000000 1.000000
vn 0.000000 0.000000 1.000000
vn 0.000000 0.000000 1.000000
vn 0.000000 0.000000 1.000000
vn 0.000000 0.000000 1.000000
vn 0.000000 0.000000 1.000000
vn 0.000000 0.000000 1.000000
vn 0.000000 0.000000 1.000000
vn 0.000000 0.000000 1.000000
vn 0.000000 0.000000 1.000000
vn 0.000000 0.000000 1.000000
vn 0.000000 0.000000 1.000000
vn 0.000000 0.000000 1.000000
vn 0.000000 0.000000 1.000000
vn 0.000000 0.000000 1.000000
vn 0.000000 0.000000 1.000000
vn 0.000000 0.000000 1.000000
vn 0.000000 0.000000 1.000000
vn 0.000000 0.000000 1.000000
vn 0.000000 0.000000 1.000000
vn 0.000000 0.000000 1.000000
vn 0.000000 0.000000 1.000000
vn 0.000000 0.000000 1.000000
vn 0.000000 0.000000 1.000000
vn 0.000000 1.000000 0.000000
vn 0.000000 1.000000 0.000000
vn 0.000000 1.000000 0.000000
vn 0.000000 1.000000 0.000000
vn 1.000000 0.000000 0.000000
vn 1.000000 0.000000 0.000000
vn 1.000000 0.000000 0.000000
vn 1.000000 0.000000 0.000000
vn 0.000000 1.000000 0.000000
vn 0.000000 1.000000 0.000000
vn -1.000000 0.000000 0.000000
vn -1.000000 0.000000 0.000000
vn -1.000000 0.000000 0.000000
vn -1.000000 0.000000 0.000000
vn 0.000000 -1.000000 0.000000
vn 0.000000 -1.000000 0.000000
vn 0.000000 -1.000000 0.000000
vn 0.000000 -1.000000 0.000000
vn 0.000000 1.000000 0.000000
vn 0.000000 1.000000 0.000000
vn 0.000000 1.000000 0.000000
vn 0.000000 1.000000 0.000000
vn 0.000000 -1.000000 0.000000
vn 0.000000 -1.000000 0.000000
vn 0.000000 1.000000 0.000000
vn 0.000000 1.000000 0.000000
vn 0.000000 -1.000000 0.000000
vn 0.000000 -1.000000 0.000000
vn 0.000000 -1.000000 0.000000
vn 0.000000 -1.000000 0.000000
vn 0.000000 -1.000000 0.000000
vn 0.000000 -1.000000 0.000000
vn 0.000000 1.000000 0.000000
vn 0.000000 -1.000000 0.000000
vn 0.000000 -1.000000 0.000000
vn 0.000000 -1.000000 0.000000
vn 0.000000 -1.000000 0.000000
vn 0.000000 1.000000 0.000000
vn 0.000000 1.000000 0.000000
f 31/34/1 32/31/2 33/32/3 34/33/4
f 16/17/5 17/18/6 18/19/7 19/20/8
f 32/31/2 31/34/1 35/35/9 36/36/10
f 3/3/11 7/7/12 11/13/13 9/11/14
f 19/20/8 18/19/7 22/10/15 23/23/16
f 25/27/17 24/24/18 26/25/19 27/26/20
f 24/24/18 12/9/21 15/14/22 28/28/23
f 20/21/24 12/9/21 24/24/18 25/27/17
f 38/37/25 37/38/26 39/39/27 40/40/28
f 34/33/4 33/32/3 39/39/27 37/38/26
f 9/11/14 11/13/13 8/8/29 5/5/30
f 28/28/23 15/14/22 22/10/15 18/19/7
f 4/4/31 10/12/32 14/16/33 13/15/34
f 5/5/35 8/8/36 18/19/37 17/18/38
f 2/2/39 4/4/31 13/15/34 21/22/40
f 7/7/41 3/3/42 26/25/43 24/24/44
f 11/13/45 7/7/46 24/24/47 28/28/48
f 6/6/49 1/1/50 30/30/51 29/29/52
f 10/12/32 6/6/49 29/29/52 14/16/33
f 8/8/53 11/13/45 28/28/48 18/19/54
f 13/15/34 14/16/33 33/32/55 32/31/56
f 15/14/57 12/9/58 31/34/59 34/33/60
f 12/9/58 20/21/61 35/35/62 31/34/59
f 21/22/40 13/15/34 32/31/56 36/36/63
f 23/23/64 22/10/65 37/38/66 38/37/67
f 29/29/52 30/30/51 40/40/68 39/39/69
f 14/16/33 29/29/52 39/39/69 33/32/55
f 22/10/65 15/14/57 34/33/60 37/38/66
