# This file uses centimeters as units for non-parametric coordinates.

mtllib tree.mtl
g default
v 0.000000 -0.154714 -0.707107
v -0.707107 -0.154714 -0.000000
v -0.000000 -0.154714 0.707107
v 0.707107 -0.154714 0.000000
v 0.000000 1.457225 0.000000
vt 0.500000 0.000000
vt 0.250000 0.250000
vt 0.500000 0.500000
vt 0.750000 0.250000
vt 0.250000 0.500000
vt 0.375000 0.500000
vt 0.500000 0.500000
vt 0.625000 0.500000
vt 0.750000 0.500000
vt 0.500000 1.000000
vn 0.000000 -1.000000 0.000000
vn 0.000000 -1.000000 0.000000
vn 0.000000 -1.000000 0.000000
vn 0.000000 -1.000000 0.000000
vn -0.675363 0.296260 -0.675363
vn -0.675363 0.296260 -0.675363
vn -0.675363 0.296260 -0.675363
vn -0.675363 0.296260 0.675363
vn -0.675363 0.296260 0.675363
vn -0.675363 0.296260 0.675363
vn 0.675363 0.296260 0.675363
vn 0.675363 0.296260 0.675363
vn 0.675363 0.296260 0.675363
vn 0.675363 0.296260 -0.675363
vn 0.675363 0.296260 -0.675363
vn 0.675363 0.296260 -0.675363
s off
g pPyramid1
usemtl initialShadingGroup
f 1/1/1 4/4/2 3/3/3 2/2/4
f 1/5/5 2/6/6 5/10/7
f 2/6/8 3/7/9 5/10/10
f 3/7/11 4/8/12 5/10/13
f 4/8/14 1/9/15 5/10/16
g default
v 0.096144 -0.554617 -0.031239
v 0.081785 -0.554617 -0.059420
v 0.059420 -0.554617 -0.081785
v 0.031239 -0.554617 -0.096144
v 0.000000 -0.554617 -0.101092
v -0.031239 -0.554617 -0.096144
v -0.059420 -0.554617 -0.081785
v -0.081785 -0.554617 -0.059420
v -0.096144 -0.554617 -0.031239
v -0.101092 -0.554617 0.000000
v -0.096144 -0.554617 0.031239
v -0.081785 -0.554617 0.059420
v -0.059420 -0.554617 0.081785
v -0.031239 -0.554617 0.096144
v -0.000000 -0.554617 0.101092
v 0.031239 -0.554617 0.096144
v 0.059420 -0.554617 0.081785
v 0.081785 -0.554617 0.059420
v 0.096144 -0.554617 0.031239
v 0.101092 -0.554617 0.000000
v 0.096144 0.554617 -0.031239
v 0.081785 0.554617 -0.059420
v 0.059420 0.554617 -0.081785
v 0.031239 0.554617 -0.096144
v 0.000000 0.554617 -0.101092
v -0.031239 0.554617 -0.096144
v -0.059420 0.554617 -0.081785
v -0.081785 0.554617 -0.059420
v -0.096144 0.554617 -0.031239
v -0.101092 0.554617 0.000000
v -0.096144 0.554617 0.031239
v -0.081785 0.554617 0.059420
v -0.059420 0.554617 0.081785
v -0.031239 0.554617 0.096144
v -0.000000 0.554617 0.101092
v 0.031239 0.554617 0.096144
v 0.059420 0.554617 0.081785
v 0.081785 0.554617 0.059420
v 0.096144 0.554617 0.031239
v 0.101092 0.554617 0.000000
v 0.000000 -0.554617 0.000000
v 0.000000 0.554617 0.000000
vt 0.648603 0.107966
vt 0.626409 0.064408
vt 0.591842 0.029841
vt 0.548284 0.007647
vt 0.500000 -0.000000
vt 0.451716 0.007647
vt 0.408159 0.029841
vt 0.373591 0.064409
vt 0.351397 0.107966
vt 0.343750 0.156250
vt 0.351397 0.204534
vt 0.373591 0.248091
vt 0.408159 0.282659
vt 0.451716 0.304853
vt 0.500000 0.312500
vt 0.548284 0.304853
vt 0.591841 0.282659
vt 0.626409 0.248091
vt 0.648603 0.204534
vt 0.656250 0.156250
vt 0.375000 0.312500
vt 0.387500 0.312500
vt 0.400000 0.312500
vt 0.412500 0.312500
vt 0.425000 0.312500
vt 0.437500 0.312500
vt 0.450000 0.312500
vt 0.462500 0.312500
vt 0.475000 0.312500
vt 0.487500 0.312500
vt 0.500000 0.312500
vt 0.512500 0.312500
vt 0.525000 0.312500
vt 0.537500 0.312500
vt 0.550000 0.312500
vt 0.562500 0.312500
vt 0.575000 0.312500
vt 0.587500 0.312500
vt 0.600000 0.312500
vt 0.612500 0.312500
vt 0.625000 0.312500
vt 0.375000 0.688440
vt 0.387500 0.688440
vt 0.400000 0.688440
vt 0.412500 0.688440
vt 0.425000 0.688440
vt 0.437500 0.688440
vt 0.450000 0.688440
vt 0.462500 0.688440
vt 0.475000 0.688440
vt 0.487500 0.688440
vt 0.500000 0.688440
vt 0.512500 0.688440
vt 0.525000 0.688440
vt 0.537500 0.688440
vt 0.550000 0.688440
vt 0.562500 0.688440
vt 0.575000 0.688440
vt 0.587500 0.688440
vt 0.600000 0.688440
vt 0.612500 0.688440
vt 0.625000 0.688440
vt 0.648603 0.795466
vt 0.626409 0.751908
vt 0.591842 0.717341
vt 0.548284 0.695147
vt 0.500000 0.687500
vt 0.451716 0.695147
vt 0.408159 0.717341
vt 0.373591 0.751909
vt 0.351397 0.795466
vt 0.343750 0.843750
vt 0.351397 0.892034
vt 0.373591 0.935591
vt 0.408159 0.970159
vt 0.451716 0.992353
vt 0.500000 1.000000
vt 0.548284 0.992353
vt 0.591841 0.970159
vt 0.626409 0.935591
vt 0.648603 0.892034
vt 0.656250 0.843750
vt 0.500000 0.150000
vt 0.500000 0.837500
vn 0.951057 0.000000 -0.309016
vn 0.809017 0.000000 -0.587785
vn 0.809017 0.000000 -0.587785
vn 0.951057 0.000000 -0.309016
vn 0.587785 0.000000 -0.809017
vn 0.587785 0.000000 -0.809017
vn 0.309017 0.000000 -0.951057
vn 0.309017 0.000000 -0.951057
vn -0.000000 0.000000 -1.000000
vn -0.000000 0.000000 -1.000000
vn -0.309017 0.000000 -0.951056
vn -0.309017 0.000000 -0.951056
vn -0.587785 0.000000 -0.809017
vn -0.587785 0.000000 -0.809017
vn -0.809017 0.000000 -0.587785
vn -0.809017 0.000000 -0.587785
vn -0.951057 0.000000 -0.309017
vn -0.951057 0.000000 -0.309017
vn -1.000000 0.000000 0.000000
vn -1.000000 0.000000 0.000000
vn -0.951056 0.000000 0.309017
vn -0.951056 0.000000 0.309017
vn -0.809017 0.000000 0.587785
vn -0.809017 0.000000 0.587785
vn -0.587785 0.000000 0.809017
vn -0.587785 0.000000 0.809017
vn -0.309017 0.000000 0.951056
vn -0.309017 0.000000 0.951056
vn 0.000000 0.000000 1.000000
vn 0.000000 0.000000 1.000000
vn 0.309017 0.000000 0.951057
vn 0.309017 0.000000 0.951057
vn 0.587785 0.000000 0.809017
vn 0.587785 0.000000 0.809017
vn 0.809017 0.000000 0.587785
vn 0.809017 0.000000 0.587785
vn 0.951056 0.000000 0.309017
vn 0.951056 0.000000 0.309017
vn 1.000000 0.000000 0.000001
vn 1.000000 0.000000 0.000001
vn 0.000000 -1.000000 0.000000
vn 0.000000 -1.000000 0.000000
vn 0.000000 -1.000000 0.000000
vn 0.000000 -1.000000 0.000000
vn 0.000000 -1.000000 0.000000
vn 0.000000 -1.000000 0.000000
vn 0.000000 -1.000000 0.000000
vn 0.000000 -1.000000 0.000000
vn 0.000000 -1.000000 0.000000
vn 0.000000 -1.000000 0.000000
vn 0.000000 -1.000000 0.000000
vn 0.000000 -1.000000 0.000000
vn 0.000000 -1.000000 0.000000
vn 0.000000 -1.000000 0.000000
vn 0.000000 -1.000000 0.000000
vn 0.000000 -1.000000 0.000000
vn 0.000000 -1.000000 0.000000
vn 0.000000 -1.000000 0.000000
vn 0.000000 -1.000000 0.000000
vn 0.000000 -1.000000 0.000000
vn 0.000000 -1.000000 0.000000
vn 0.000000 1.000000 0.000000
vn 0.000000 1.000000 0.000000
vn 0.000000 1.000000 0.000000
vn 0.000000 1.000000 0.000000
vn 0.000000 1.000000 0.000000
vn 0.000000 1.000000 0.000000
vn 0.000000 1.000000 0.000000
vn 0.000000 1.000000 0.000000
vn 0.000000 1.000000 0.000000
vn 0.000000 1.000000 0.000000
vn 0.000000 1.000000 0.000000
vn 0.000000 1.000000 0.000000
vn 0.000000 1.000000 0.000000
vn 0.000000 1.000000 0.000000
vn 0.000000 1.000000 0.000000
vn 0.000000 1.000000 0.000000
vn 0.000000 1.000000 0.000000
vn 0.000000 1.000000 0.000000
vn 0.000000 1.000000 0.000000
vn 0.000000 1.000000 0.000000
vn 0.000000 1.000000 0.000000
s 1
g pCylinder1
usemtl initialShadingGroup
f 6/31/17 7/32/18 27/53/19 26/52/20
f 7/32/18 8/33/21 28/54/22 27/53/19
f 8/33/21 9/34/23 29/55/24 28/54/22
f 9/34/23 10/35/25 30/56/26 29/55/24
f 10/35/25 11/36/27 31/57/28 30/56/26
f 11/36/27 12/37/29 32/58/30 31/57/28
f 12/37/29 13/38/31 33/59/32 32/58/30
f 13/38/31 14/39/33 34/60/34 33/59/32
f 14/39/33 15/40/35 35/61/36 34/60/34
f 15/40/35 16/41/37 36/62/38 35/61/36
f 16/41/37 17/42/39 37/63/40 36/62/38
f 17/42/39 18/43/41 38/64/42 37/63/40
f 18/43/41 19/44/43 39/65/44 38/64/42
f 19/44/43 20/45/45 40/66/46 39/65/44
f 20/45/45 21/46/47 41/67/48 40/66/46
f 21/46/47 22/47/49 42/68/50 41/67/48
f 22/47/49 23/48/51 43/69/52 42/68/50
f 23/48/51 24/49/53 44/70/54 43/69/52
f 24/49/53 25/50/55 45/71/56 44/70/54
f 25/50/55 6/51/17 26/72/20 45/71/56
s 2
f 7/12/57 6/11/58 46/93/59
f 8/13/60 7/12/57 46/93/59
f 9/14/61 8/13/60 46/93/59
f 10/15/62 9/14/61 46/93/59
f 11/16/63 10/15/62 46/93/59
f 12/17/64 11/16/63 46/93/59
f 13/18/65 12/17/64 46/93/59
f 14/19/66 13/18/65 46/93/59
f 15/20/67 14/19/66 46/93/59
f 16/21/68 15/20/67 46/93/59
f 17/22/69 16/21/68 46/93/59
f 18/23/70 17/22/69 46/93/59
f 19/24/71 18/23/70 46/93/59
f 20/25/72 19/24/71 46/93/59
f 21/26/73 20/25/72 46/93/59
f 22/27/74 21/26/73 46/93/59
f 23/28/75 22/27/74 46/93/59
f 24/29/76 23/28/75 46/93/59
f 25/30/77 24/29/76 46/93/59
f 6/11/58 25/30/77 46/93/59
s 3
f 26/91/78 27/90/79 47/94/80
f 27/90/79 28/89/81 47/94/80
f 28/89/81 29/88/82 47/94/80
f 29/88/82 30/87/83 47/94/80
f 30/87/83 31/86/84 47/94/80
f 31/86/84 32/85/85 47/94/80
f 32/85/85 33/84/86 47/94/80
f 33/84/86 34/83/87 47/94/80
f 34/83/87 35/82/88 47/94/80
f 35/82/88 36/81/89 47/94/80
f 36/81/89 37/80/90 47/94/80
f 37/80/90 38/79/91 47/94/80
f 38/79/91 39/78/92 47/94/80
f 39/78/92 40/77/93 47/94/80
f 40/77/93 41/76/94 47/94/80
f 41/76/94 42/75/95 47/94/80
f 42/75/95 43/74/96 47/94/80
f 43/74/96 44/73/97 47/94/80
f 44/73/97 45/92/98 47/94/80
f 45/92/98 26/91/78 47/94/80
