# This file uses centimeters as units for non-parametric coordinates.

mtllib roof2.mtl
g default
v -0.500000 0.666667 0.500000
v 0.000000 0.666667 0.500000
v 0.500000 0.666667 0.500000
v -0.500000 0.666667 -0.500000
v 0.000000 0.666667 -0.500000
v 0.500000 0.666667 -0.500000
v -0.312111 0.887587 0.500000
v 0.000000 1.000000 0.500000
v 0.000000 1.000000 -0.500000
v -0.312111 0.887587 -0.500000
v 0.312111 0.887587 0.500000
v 0.312111 0.887587 -0.500000
vt 0.375000 0.250000
vt 0.500000 0.250000
vt 0.625000 0.250000
vt 0.375000 0.500000
vt 0.500000 0.500000
vt 0.625000 0.500000
vt 0.375000 0.250000
vt 0.500000 0.250000
vt 0.500000 0.500000
vt 0.375000 0.500000
vt 0.625000 0.250000
vt 0.625000 0.500000
vn -0.338862 0.940836 0.000000
vn 0.000000 1.000000 0.000000
vn 0.000000 1.000000 0.000000
vn -0.338862 0.940836 0.000000
vn 0.338862 0.940836 0.000000
vn 0.338862 0.940836 0.000000
vn 0.000000 0.000000 1.000000
vn 0.000000 0.000000 1.000000
vn 0.000000 0.000000 1.000000
vn 0.000000 0.000000 1.000000
vn 0.000000 0.000000 -1.000000
vn 0.000000 0.000000 -1.000000
vn 0.000000 0.000000 -1.000000
vn 0.000000 0.000000 -1.000000
vn -0.761758 0.647862 0.000000
vn -0.761758 0.647862 0.000000
vn -0.761758 0.647862 0.000000
vn -0.761758 0.647862 0.000000
vn 0.000000 0.000000 1.000000
vn 0.000000 0.000000 1.000000
vn 0.761758 0.647862 0.000000
vn 0.761758 0.647862 0.000000
vn 0.761758 0.647862 0.000000
vn 0.761758 0.647862 0.000000
vn 0.000000 0.000000 -1.000000
vn 0.000000 0.000000 -1.000000
vn 0.000000 -1.000000 0.000000
vn 0.000000 -1.000000 0.000000
vn 0.000000 -1.000000 0.000000
vn 0.000000 -1.000000 0.000000
vn 0.000000 -1.000000 0.000000
vn 0.000000 -1.000000 0.000000
s 1
g roof26
usemtl initialShadingGroup
f 7/7/1 8/8/2 9/9/3 10/10/4
f 8/8/2 11/11/5 12/12/6 9/9/3
s 2
f 1/1/7 2/2/8 8/8/9 7/7/10
s 3
f 5/5/11 4/4/12 10/10/13 9/9/14
s off
f 4/4/15 1/1/16 7/7/17 10/10/18
s 2
f 2/2/8 3/3/19 11/11/20 8/8/9
s off
f 3/3/21 6/6/22 12/12/23 11/11/24
s 3
f 6/6/25 5/5/11 9/9/14 12/12/26
s off
f 2/2/27 1/1/28 4/4/29 5/5/30 6/6/31 3/3/32
